G04 #@! TF.FileFunction,Copper,L1,Top,Signal*
%FSLAX46Y46*%
G04 Gerber Fmt 4.6, Leading zero omitted, Abs format (unit mm)*
G04 Created by KiCad (PCBNEW 4.0.2+dfsg1-stable) date 2016年07月17日 星期日 15时22分32秒*
%MOMM*%
G01*
G04 APERTURE LIST*
%ADD10C,0.100000*%
%ADD11C,10.000000*%
%ADD12R,0.750000X1.200000*%
%ADD13R,1.200000X0.750000*%
%ADD14R,2.032000X2.032000*%
%ADD15O,2.032000X2.032000*%
%ADD16R,1.727200X2.032000*%
%ADD17O,1.727200X2.032000*%
%ADD18R,0.800100X0.800100*%
%ADD19R,1.200000X0.900000*%
%ADD20R,0.900000X1.200000*%
%ADD21R,1.000000X0.250000*%
%ADD22R,0.250000X1.000000*%
%ADD23R,0.850000X0.300000*%
%ADD24R,0.300000X0.850000*%
%ADD25R,1.300000X1.300000*%
%ADD26R,1.060000X0.650000*%
%ADD27O,0.300000X0.750000*%
%ADD28O,0.750000X0.300000*%
%ADD29R,0.900000X0.900000*%
%ADD30R,2.100580X5.600700*%
%ADD31C,1.000760*%
%ADD32R,0.600000X1.200000*%
%ADD33R,1.397000X1.397000*%
%ADD34C,1.397000*%
%ADD35R,1.727200X1.727200*%
%ADD36O,1.727200X1.727200*%
%ADD37R,1.350000X0.400000*%
%ADD38O,0.950000X1.250000*%
%ADD39O,1.550000X1.000000*%
%ADD40C,0.600000*%
%ADD41C,0.400000*%
%ADD42C,0.250000*%
%ADD43C,0.254000*%
G04 APERTURE END LIST*
D10*
D11*
X179006500Y-136537700D03*
X93268800Y-136537700D03*
X179006500Y-50888900D03*
D12*
X117602000Y-79110800D03*
X117602000Y-81010800D03*
D13*
X123002000Y-89966800D03*
X124902000Y-89966800D03*
X123002000Y-93014800D03*
X124902000Y-93014800D03*
D12*
X144526000Y-100954800D03*
X144526000Y-102854800D03*
D13*
X141666000Y-112064800D03*
X139766000Y-112064800D03*
X134686000Y-112064800D03*
X136586000Y-112064800D03*
D12*
X129286000Y-111744800D03*
X129286000Y-109844800D03*
D13*
X130236000Y-101650800D03*
X128336000Y-101650800D03*
X140396000Y-81584800D03*
X138496000Y-81584800D03*
X138496000Y-84124800D03*
X140396000Y-84124800D03*
X150434000Y-101142800D03*
X152334000Y-101142800D03*
D12*
X152400000Y-98028800D03*
X152400000Y-96128800D03*
D14*
X114046000Y-97078800D03*
D15*
X114046000Y-99618800D03*
D16*
X143256000Y-115874800D03*
D17*
X140716000Y-115874800D03*
X138176000Y-115874800D03*
X135636000Y-115874800D03*
D14*
X158496000Y-71424800D03*
D15*
X155956000Y-71424800D03*
D14*
X114046000Y-73964800D03*
D15*
X114046000Y-71424800D03*
D14*
X114046000Y-115874800D03*
D15*
X116586000Y-115874800D03*
D14*
X158496000Y-113334800D03*
D15*
X158496000Y-115874800D03*
D18*
X153736000Y-77505560D03*
X155636000Y-77505560D03*
X154686000Y-75506580D03*
X120157240Y-79110800D03*
X120157240Y-81010800D03*
X122156220Y-80060800D03*
X120126760Y-76184800D03*
X120126760Y-74284800D03*
X118127780Y-75234800D03*
X125156000Y-109794040D03*
X123256000Y-109794040D03*
X124206000Y-111793020D03*
X152415240Y-111114800D03*
X152415240Y-113014800D03*
X154414220Y-112064800D03*
D19*
X129624000Y-84378800D03*
X127424000Y-84378800D03*
D20*
X123190000Y-99194800D03*
X123190000Y-96994800D03*
D19*
X120226000Y-85394800D03*
X118026000Y-85394800D03*
D20*
X125730000Y-96994800D03*
X125730000Y-99194800D03*
X128016000Y-96994800D03*
X128016000Y-99194800D03*
X144526000Y-107408800D03*
X144526000Y-109608800D03*
D19*
X123106000Y-106984800D03*
X125306000Y-106984800D03*
D20*
X158496000Y-77604800D03*
X158496000Y-75404800D03*
D19*
X151046000Y-104444800D03*
X153246000Y-104444800D03*
X120226000Y-71424800D03*
X118026000Y-71424800D03*
X129624000Y-82092800D03*
X127424000Y-82092800D03*
D20*
X120396000Y-111894800D03*
X120396000Y-109694800D03*
D19*
X152316000Y-115874800D03*
X154516000Y-115874800D03*
D21*
X142606000Y-96764800D03*
X142606000Y-96264800D03*
X142606000Y-95764800D03*
X142606000Y-95264800D03*
X142606000Y-94764800D03*
X142606000Y-94264800D03*
X142606000Y-93764800D03*
X142606000Y-93264800D03*
X142606000Y-92764800D03*
X142606000Y-92264800D03*
X142606000Y-91764800D03*
X142606000Y-91264800D03*
X142606000Y-90764800D03*
X142606000Y-90264800D03*
X142606000Y-89764800D03*
X142606000Y-89264800D03*
D22*
X140656000Y-87314800D03*
X140156000Y-87314800D03*
X139656000Y-87314800D03*
X139156000Y-87314800D03*
X138656000Y-87314800D03*
X138156000Y-87314800D03*
X137656000Y-87314800D03*
X137156000Y-87314800D03*
X136656000Y-87314800D03*
X136156000Y-87314800D03*
X135656000Y-87314800D03*
X135156000Y-87314800D03*
X134656000Y-87314800D03*
X134156000Y-87314800D03*
X133656000Y-87314800D03*
X133156000Y-87314800D03*
D21*
X131206000Y-89264800D03*
X131206000Y-89764800D03*
X131206000Y-90264800D03*
X131206000Y-90764800D03*
X131206000Y-91264800D03*
X131206000Y-91764800D03*
X131206000Y-92264800D03*
X131206000Y-92764800D03*
X131206000Y-93264800D03*
X131206000Y-93764800D03*
X131206000Y-94264800D03*
X131206000Y-94764800D03*
X131206000Y-95264800D03*
X131206000Y-95764800D03*
X131206000Y-96264800D03*
X131206000Y-96764800D03*
D22*
X133156000Y-98714800D03*
X133656000Y-98714800D03*
X134156000Y-98714800D03*
X134656000Y-98714800D03*
X135156000Y-98714800D03*
X135656000Y-98714800D03*
X136156000Y-98714800D03*
X136656000Y-98714800D03*
X137156000Y-98714800D03*
X137656000Y-98714800D03*
X138156000Y-98714800D03*
X138656000Y-98714800D03*
X139156000Y-98714800D03*
X139656000Y-98714800D03*
X140156000Y-98714800D03*
X140656000Y-98714800D03*
D23*
X136226000Y-104464800D03*
X136226000Y-104964800D03*
X136226000Y-105464800D03*
X136226000Y-105964800D03*
X136226000Y-106464800D03*
X136226000Y-106964800D03*
D24*
X136926000Y-107664800D03*
X137426000Y-107664800D03*
X137926000Y-107664800D03*
X138426000Y-107664800D03*
X138926000Y-107664800D03*
X139426000Y-107664800D03*
D23*
X140126000Y-106964800D03*
X140126000Y-106464800D03*
X140126000Y-105964800D03*
X140126000Y-105464800D03*
X140126000Y-104964800D03*
X140126000Y-104464800D03*
D24*
X139426000Y-103764800D03*
X138926000Y-103764800D03*
X138426000Y-103764800D03*
X137926000Y-103764800D03*
X137426000Y-103764800D03*
X136926000Y-103764800D03*
D25*
X138826000Y-106364800D03*
X138826000Y-105064800D03*
X137526000Y-106364800D03*
X137526000Y-105064800D03*
D26*
X118026000Y-90794800D03*
X118026000Y-91744800D03*
X118026000Y-92694800D03*
X120226000Y-92694800D03*
X120226000Y-90794800D03*
D27*
X128536000Y-107189800D03*
X129036000Y-107189800D03*
X129536000Y-107189800D03*
X130036000Y-107189800D03*
D28*
X130761000Y-106464800D03*
X130761000Y-105964800D03*
X130761000Y-105464800D03*
X130761000Y-104964800D03*
D27*
X130036000Y-104239800D03*
X129536000Y-104239800D03*
X129036000Y-104239800D03*
X128536000Y-104239800D03*
D28*
X127811000Y-104964800D03*
X127811000Y-105464800D03*
X127811000Y-105964800D03*
X127811000Y-106464800D03*
D29*
X129736000Y-105264800D03*
X128836000Y-105264800D03*
X129736000Y-106164800D03*
X128836000Y-106164800D03*
D30*
X147066000Y-91513660D03*
X147066000Y-81815940D03*
D31*
X147066000Y-96075500D03*
X147066000Y-97574100D03*
D16*
X128016000Y-115874800D03*
D17*
X125476000Y-115874800D03*
X122936000Y-115874800D03*
D32*
X113792000Y-84266800D03*
X113792000Y-77266800D03*
D33*
X114046000Y-86664800D03*
D34*
X114046000Y-89204800D03*
X114046000Y-91744800D03*
D35*
X124206000Y-73964800D03*
D36*
X124206000Y-71424800D03*
X126746000Y-73964800D03*
X126746000Y-71424800D03*
X129286000Y-73964800D03*
X129286000Y-71424800D03*
X131826000Y-73964800D03*
X131826000Y-71424800D03*
D37*
X116878540Y-105683900D03*
X116878540Y-106333900D03*
X116878540Y-106983900D03*
X116878540Y-107633900D03*
X116878540Y-108283900D03*
D38*
X116878540Y-104483900D03*
X116878540Y-109483900D03*
D39*
X114178540Y-103483900D03*
X114178540Y-110483900D03*
D11*
X93268800Y-50888900D03*
D40*
X119126000Y-88230600D03*
X135958700Y-93162200D03*
X126423800Y-100292300D03*
X144353200Y-91264800D03*
X133143400Y-85838200D03*
X140144600Y-86289200D03*
X142212700Y-108415100D03*
X112072300Y-90013300D03*
X145479600Y-90104900D03*
X138879800Y-85890300D03*
X141289300Y-87288600D03*
X144522800Y-92853500D03*
X127050300Y-85359400D03*
X124230600Y-84215500D03*
X124947000Y-79634200D03*
X143853800Y-93633300D03*
X118077000Y-105666500D03*
X132954500Y-113146200D03*
X132954500Y-107732400D03*
X141078200Y-106964800D03*
X140323300Y-92977100D03*
X121832300Y-79012200D03*
X141308500Y-98970000D03*
X142674500Y-97406800D03*
X136170700Y-88493100D03*
X144188300Y-97414400D03*
X128892400Y-77442700D03*
X137205900Y-83612800D03*
X130048000Y-103174800D03*
X130773000Y-109844800D03*
X131312900Y-104198100D03*
X130443000Y-100758400D03*
X149000800Y-83882000D03*
X156525000Y-87773700D03*
X121336700Y-99194800D03*
X127115900Y-94264800D03*
X124181300Y-95753600D03*
X133315600Y-95497700D03*
X135636000Y-100283100D03*
X133713100Y-96905300D03*
X126432200Y-81289300D03*
X127222500Y-79466200D03*
X127535300Y-111613000D03*
X118881300Y-97433700D03*
X134805000Y-100298200D03*
X137392400Y-102808300D03*
X145542000Y-98156300D03*
X139336000Y-93245000D03*
X133744900Y-90464000D03*
X132626300Y-88700300D03*
X129284500Y-76608100D03*
X132553700Y-90317600D03*
X127588000Y-107155800D03*
X131442300Y-106964800D03*
X124305400Y-102580400D03*
X125556100Y-102449000D03*
X129551800Y-100670000D03*
X129551800Y-95464500D03*
D41*
X118956300Y-92694800D02*
X118956300Y-90794800D01*
X118026000Y-92694800D02*
X118956300Y-92694800D01*
X118026000Y-90794800D02*
X118491200Y-90794800D01*
X118491200Y-90794800D02*
X118956300Y-90794800D01*
X119126000Y-90160000D02*
X119126000Y-88230600D01*
X118491200Y-90794800D02*
X119126000Y-90160000D01*
D42*
X129036000Y-104239800D02*
X129036000Y-102670800D01*
X130556000Y-102412800D02*
X131209500Y-103066300D01*
X129294000Y-102412800D02*
X130556000Y-102412800D01*
X129036000Y-102670800D02*
X129294000Y-102412800D01*
X115278800Y-110283300D02*
X116078200Y-109483900D01*
X115278800Y-110483900D02*
X115278800Y-110283300D01*
X114178500Y-110483900D02*
X115278800Y-110483900D01*
X115278800Y-103684500D02*
X116078200Y-104483900D01*
X115278800Y-103483900D02*
X115278800Y-103684500D01*
X116878500Y-104483900D02*
X116078200Y-104483900D01*
X114178500Y-103483900D02*
X115278800Y-103483900D01*
X116478400Y-109483900D02*
X116078200Y-109483900D01*
X115878200Y-108883700D02*
X115878200Y-108283900D01*
X116478400Y-109483900D02*
X115878200Y-108883700D01*
X116878500Y-108283900D02*
X115878200Y-108283900D01*
X116678500Y-109483900D02*
X116478400Y-109483900D01*
X116678500Y-109483900D02*
X116878500Y-109483900D01*
X119409800Y-109483900D02*
X119620700Y-109694800D01*
X116878500Y-109483900D02*
X119409800Y-109483900D01*
X114417300Y-83495200D02*
X116901700Y-81010800D01*
X114417300Y-84266800D02*
X114417300Y-83495200D01*
X128016000Y-115874800D02*
X129204900Y-115874800D01*
X144526000Y-102854800D02*
X143825700Y-102854800D01*
X140156000Y-98714800D02*
X140156000Y-97889500D01*
X143431300Y-88990200D02*
X143431300Y-91264800D01*
X142581200Y-88140100D02*
X143431300Y-88990200D01*
X140156000Y-88140100D02*
X142581200Y-88140100D01*
X140156000Y-87614800D02*
X140156000Y-88140100D01*
X140156000Y-87614800D02*
X140156000Y-87314800D01*
X153140600Y-113724100D02*
X153140600Y-113014800D01*
X154516000Y-115099500D02*
X153140600Y-113724100D01*
X120008400Y-109694800D02*
X119620700Y-109694800D01*
X120008400Y-109694800D02*
X120396000Y-109694800D01*
X122431400Y-109694800D02*
X122530600Y-109794000D01*
X120396000Y-109694800D02*
X122431400Y-109694800D01*
X152334000Y-101142800D02*
X152334000Y-101843100D01*
X156345300Y-76780200D02*
X155636000Y-76780200D01*
X157720700Y-75404800D02*
X156345300Y-76780200D01*
X158496000Y-75404800D02*
X157720700Y-75404800D01*
X154516000Y-115599700D02*
X154516000Y-115099500D01*
X154516000Y-115599700D02*
X154516000Y-115874800D01*
X154516000Y-115874800D02*
X154516000Y-116650100D01*
X120126800Y-74284800D02*
X119514000Y-74284800D01*
X155636000Y-77505600D02*
X155636000Y-77142900D01*
X155636000Y-77142900D02*
X155636000Y-76780200D01*
X143256000Y-115874800D02*
X143850500Y-115874800D01*
X143850500Y-115874800D02*
X143850500Y-112769600D01*
X152400000Y-98028800D02*
X152400000Y-98954100D01*
X152334000Y-99020100D02*
X152334000Y-101142800D01*
X152400000Y-98954100D02*
X152334000Y-99020100D01*
X138496000Y-84124800D02*
X138496000Y-81584800D01*
X138496000Y-81584800D02*
X138496000Y-80884500D01*
X129286000Y-111744800D02*
X129286000Y-112670100D01*
X136586000Y-112064800D02*
X136586000Y-111477100D01*
X136698600Y-111364500D02*
X137926000Y-111364500D01*
X136586000Y-111477100D02*
X136698600Y-111364500D01*
X123002000Y-93014800D02*
X122076700Y-93014800D01*
X118026000Y-91744800D02*
X117170700Y-91744800D01*
X123002000Y-89966800D02*
X123002000Y-89266500D01*
X114104700Y-84266800D02*
X114399800Y-84266800D01*
X113792000Y-84266800D02*
X114104700Y-84266800D01*
X114399800Y-84266800D02*
X114417300Y-84266800D01*
X117170700Y-88623300D02*
X117170700Y-91744800D01*
X117963500Y-87830500D02*
X117170700Y-88623300D01*
X114399800Y-84266800D02*
X117963500Y-87830500D01*
X121336900Y-87601400D02*
X123002000Y-89266500D01*
X118192600Y-87601400D02*
X121336900Y-87601400D01*
X117963500Y-87830500D02*
X118192600Y-87601400D01*
X114046000Y-97078800D02*
X114046000Y-95737500D01*
X114628200Y-95737500D02*
X117170700Y-93195000D01*
X114046000Y-95737500D02*
X114628200Y-95737500D01*
X117328300Y-93352600D02*
X117170700Y-93195000D01*
X121738900Y-93352600D02*
X117328300Y-93352600D01*
X122076700Y-93014800D02*
X121738900Y-93352600D01*
X117170700Y-93195000D02*
X117170700Y-91744800D01*
X123256000Y-109794000D02*
X122893300Y-109794000D01*
X122893300Y-109794000D02*
X122530600Y-109794000D01*
X129286000Y-111744800D02*
X128585700Y-111744800D01*
X143140200Y-103540300D02*
X143825700Y-102854800D01*
X143140200Y-104464800D02*
X143140200Y-103540300D01*
X140126000Y-104464800D02*
X143140200Y-104464800D01*
X131206000Y-96264800D02*
X134402400Y-96264800D01*
X138531300Y-96264800D02*
X140156000Y-97889500D01*
X134402400Y-96264800D02*
X138531300Y-96264800D01*
X133656000Y-87314800D02*
X133656000Y-86489500D01*
X127424000Y-84378800D02*
X127424000Y-83603500D01*
X127424000Y-83603500D02*
X127424000Y-82868100D01*
X127424000Y-82092800D02*
X127424000Y-82868100D01*
X134402400Y-96264800D02*
X134402400Y-93162200D01*
X133656000Y-88499700D02*
X133656000Y-87314800D01*
X134402400Y-89246100D02*
X133656000Y-88499700D01*
X134402400Y-93162200D02*
X134402400Y-89246100D01*
X118026000Y-71699800D02*
X118026000Y-72200100D01*
X118026000Y-71699800D02*
X118026000Y-71424800D01*
X123119300Y-72775900D02*
X124206000Y-72775900D01*
X120992900Y-70649500D02*
X123119300Y-72775900D01*
X118026000Y-70649500D02*
X120992900Y-70649500D01*
X118026000Y-71424800D02*
X118026000Y-70649500D01*
X124206000Y-73964800D02*
X124206000Y-72775900D01*
X152415200Y-113014800D02*
X152566300Y-113014800D01*
X152566300Y-113014800D02*
X153140600Y-113014800D01*
X153246000Y-102755100D02*
X152334000Y-101843100D01*
X153246000Y-104444800D02*
X153246000Y-102755100D01*
X153246000Y-112335100D02*
X152566300Y-113014800D01*
X153246000Y-104444800D02*
X153246000Y-112335100D01*
X144625800Y-116650100D02*
X154516000Y-116650100D01*
X143850500Y-115874800D02*
X144625800Y-116650100D01*
X129204900Y-112751200D02*
X129286000Y-112670100D01*
X129204900Y-115874800D02*
X129204900Y-112751200D01*
X142445700Y-117279600D02*
X143850500Y-115874800D01*
X130609700Y-117279600D02*
X142445700Y-117279600D01*
X129204900Y-115874800D02*
X130609700Y-117279600D01*
X127424000Y-82092800D02*
X127424000Y-81317500D01*
X119514000Y-74284800D02*
X119347900Y-74284800D01*
X118026000Y-72962900D02*
X118026000Y-72200100D01*
X119347900Y-74284800D02*
X118026000Y-72962900D01*
X125909500Y-109068600D02*
X128585700Y-111744800D01*
X123618700Y-109068600D02*
X125909500Y-109068600D01*
X122893300Y-109794000D02*
X123618700Y-109068600D01*
X142606000Y-91264800D02*
X143318700Y-91264800D01*
X143318700Y-91264800D02*
X143431300Y-91264800D01*
X143431300Y-91264800D02*
X144353200Y-91264800D01*
X132439600Y-72775900D02*
X124206000Y-72775900D01*
X139522100Y-79858400D02*
X132439600Y-72775900D01*
X142600400Y-76780100D02*
X139522100Y-79858400D01*
X155273200Y-76780100D02*
X142600400Y-76780100D01*
X155636000Y-77142900D02*
X155273200Y-76780100D01*
X139522100Y-79858400D02*
X138496000Y-80884500D01*
X134402400Y-93162200D02*
X135958700Y-93162200D01*
X117602000Y-81010800D02*
X117014300Y-81010800D01*
X117014300Y-81010800D02*
X116901700Y-81010800D01*
X113304700Y-76331200D02*
X119347900Y-76331200D01*
X113166600Y-76469300D02*
X113304700Y-76331200D01*
X113166600Y-78057200D02*
X113166600Y-76469300D01*
X116120200Y-81010800D02*
X113166600Y-78057200D01*
X116901700Y-81010800D02*
X116120200Y-81010800D01*
X119347900Y-74284800D02*
X119347900Y-76331200D01*
X130036000Y-104239800D02*
X131209500Y-103066300D01*
X131209500Y-103066300D02*
X132155200Y-102120600D01*
X132681500Y-102647000D02*
X132155200Y-102120600D01*
X133657900Y-102647000D02*
X132681500Y-102647000D01*
X135475700Y-104464800D02*
X133657900Y-102647000D01*
X136226000Y-104464800D02*
X135475700Y-104464800D01*
X138926000Y-107664800D02*
X138926000Y-108302500D01*
X130908700Y-83603500D02*
X133143400Y-85838200D01*
X127424000Y-83603500D02*
X130908700Y-83603500D01*
X133656000Y-86350800D02*
X133656000Y-86489500D01*
X133143400Y-85838200D02*
X133656000Y-86350800D01*
X140156000Y-87314800D02*
X140156000Y-86489500D01*
X140144600Y-86478100D02*
X140156000Y-86489500D01*
X140144600Y-86289200D02*
X140144600Y-86478100D01*
X119347900Y-76702000D02*
X119347900Y-76331200D01*
X120274100Y-77628200D02*
X119347900Y-76702000D01*
X123825400Y-77628200D02*
X120274100Y-77628200D01*
X127424000Y-81226800D02*
X123825400Y-77628200D01*
X127424000Y-81317500D02*
X127424000Y-81226800D01*
X137926000Y-111364500D02*
X137926000Y-107664800D01*
X139038600Y-108415100D02*
X142212700Y-108415100D01*
X138926000Y-108302500D02*
X139038600Y-108415100D01*
X145336800Y-106661400D02*
X143140200Y-104464800D01*
X145336800Y-108122000D02*
X145336800Y-106661400D01*
X145043700Y-108415100D02*
X145336800Y-108122000D01*
X142212700Y-108415100D02*
X145043700Y-108415100D01*
X129045200Y-100292300D02*
X126423800Y-100292300D01*
X129292800Y-100044700D02*
X129045200Y-100292300D01*
X129810900Y-100044700D02*
X129292800Y-100044700D01*
X129899300Y-100133100D02*
X129810900Y-100044700D01*
X130702100Y-100133100D02*
X129899300Y-100133100D01*
X131068300Y-100499300D02*
X130702100Y-100133100D01*
X131068300Y-101033800D02*
X131068300Y-100499300D01*
X132155200Y-102120600D02*
X131068300Y-101033800D01*
X143850500Y-112769600D02*
X142445400Y-111364500D01*
X137926000Y-111364500D02*
X139766000Y-111364500D01*
X142445400Y-111364500D02*
X139766000Y-111364500D01*
X139766000Y-112064800D02*
X139766000Y-111364500D01*
D41*
X112314500Y-90013300D02*
X112072300Y-90013300D01*
X114046000Y-91744800D02*
X112314500Y-90013300D01*
X112599200Y-72518000D02*
X114046000Y-73964800D01*
X112599200Y-70814200D02*
X112599200Y-72518000D01*
X113417400Y-69996000D02*
X112599200Y-70814200D01*
X157067200Y-69996000D02*
X113417400Y-69996000D01*
X158496000Y-71424800D02*
X157067200Y-69996000D01*
D42*
X139134600Y-85635500D02*
X138879800Y-85890300D01*
X141390700Y-85635500D02*
X139134600Y-85635500D01*
X145479600Y-89724400D02*
X141390700Y-85635500D01*
X145479600Y-90104900D02*
X145479600Y-89724400D01*
X144978600Y-92397700D02*
X144522800Y-92853500D01*
X144978600Y-90979300D02*
X144978600Y-92397700D01*
X144854300Y-90855000D02*
X144978600Y-90979300D01*
X144854300Y-89760900D02*
X144854300Y-90855000D01*
X142382000Y-87288600D02*
X144854300Y-89760900D01*
X141289300Y-87288600D02*
X142382000Y-87288600D01*
X129624000Y-84378800D02*
X129624000Y-85154100D01*
X127050300Y-85154200D02*
X127050300Y-85359400D01*
X129623900Y-85154200D02*
X129624000Y-85154100D01*
X127050300Y-85154200D02*
X129623900Y-85154200D01*
X125169300Y-85154200D02*
X124230600Y-84215500D01*
X127050300Y-85154200D02*
X125169300Y-85154200D01*
X115057700Y-77266800D02*
X116901700Y-79110800D01*
X113792000Y-77266800D02*
X115057700Y-77266800D01*
X118026000Y-85394800D02*
X118026000Y-84619500D01*
X117364500Y-79110800D02*
X116901700Y-79110800D01*
X117364500Y-79110800D02*
X117602000Y-79110800D01*
X118706400Y-79110800D02*
X119431800Y-79836200D01*
X117602000Y-79110800D02*
X118706400Y-79110800D01*
X119431800Y-83213700D02*
X118026000Y-84619500D01*
X119431800Y-79836200D02*
X119431800Y-83213700D01*
X120157200Y-79836200D02*
X119431800Y-79836200D01*
X120157200Y-79473500D02*
X120157200Y-79836200D01*
X120157200Y-79473500D02*
X120157200Y-79110800D01*
X123699600Y-78386800D02*
X124947000Y-79634200D01*
X121516000Y-78386800D02*
X123699600Y-78386800D01*
X120882600Y-79020200D02*
X121516000Y-78386800D01*
X120882600Y-79110800D02*
X120882600Y-79020200D01*
X120157200Y-79110800D02*
X120882600Y-79110800D01*
X143722300Y-93764800D02*
X142606000Y-93764800D01*
X143853800Y-93633300D02*
X143722300Y-93764800D01*
X116878500Y-105683900D02*
X117878800Y-105683900D01*
X117896200Y-105666500D02*
X118077000Y-105666500D01*
X117878800Y-105683900D02*
X117896200Y-105666500D01*
X141666000Y-112064800D02*
X141666000Y-112765100D01*
X140716000Y-113715100D02*
X141666000Y-112765100D01*
X139766000Y-112765100D02*
X140716000Y-113715100D01*
X134686000Y-112765100D02*
X139766000Y-112765100D01*
X134304900Y-113146200D02*
X132954500Y-113146200D01*
X134686000Y-112765100D02*
X134304900Y-113146200D01*
X129036000Y-107189800D02*
X129036000Y-107890100D01*
X130036000Y-107890100D02*
X129036000Y-107890100D01*
X124902000Y-89966800D02*
X124902000Y-90667100D01*
X142606000Y-96764800D02*
X141780700Y-96764800D01*
X129021300Y-96764800D02*
X128791300Y-96994800D01*
X131206000Y-96764800D02*
X129021300Y-96764800D01*
X142606000Y-90764800D02*
X141893300Y-90764800D01*
X141893300Y-90764800D02*
X141780700Y-90764800D01*
X124902000Y-89966800D02*
X124902000Y-89266500D01*
X128403700Y-96994800D02*
X128791300Y-96994800D01*
X128403700Y-96994800D02*
X128016000Y-96994800D01*
X128016000Y-96994800D02*
X125730000Y-96994800D01*
X125730000Y-96994800D02*
X124954700Y-96994800D01*
X120226000Y-85394800D02*
X120226000Y-86170100D01*
X121941500Y-86170100D02*
X124902000Y-89130600D01*
X120226000Y-86170100D02*
X121941500Y-86170100D01*
X124902000Y-89130600D02*
X124902000Y-89266500D01*
X120157200Y-84550700D02*
X120226000Y-84619500D01*
X120157200Y-81010800D02*
X120157200Y-84550700D01*
X120226000Y-85394800D02*
X120226000Y-84619500D01*
X140716000Y-115874800D02*
X140716000Y-113715100D01*
X134686000Y-112414900D02*
X134686000Y-112765100D01*
X124774300Y-92186800D02*
X124774300Y-90794800D01*
X124902000Y-92314500D02*
X124774300Y-92186800D01*
X120226000Y-90794800D02*
X124774300Y-90794800D01*
X124774300Y-90794800D02*
X124902000Y-90667100D01*
X133156000Y-87314800D02*
X133156000Y-88140100D01*
X137426000Y-107664800D02*
X137426000Y-108415100D01*
X140126000Y-106964800D02*
X141078200Y-106964800D01*
X134686000Y-112064800D02*
X134686000Y-112414900D01*
X125957600Y-88075000D02*
X124902000Y-89130600D01*
X132885400Y-88075000D02*
X125957600Y-88075000D01*
X132950500Y-88140100D02*
X132885400Y-88075000D01*
X133156000Y-88140100D02*
X132950500Y-88140100D01*
X141780700Y-90764800D02*
X141780700Y-92977100D01*
X141780700Y-92977100D02*
X140323300Y-92977100D01*
X137426000Y-108415100D02*
X134686000Y-111155100D01*
X134686000Y-111155100D02*
X134686000Y-112064800D01*
X120921600Y-107633900D02*
X121547200Y-107008300D01*
X116878500Y-107633900D02*
X120921600Y-107633900D01*
X120157200Y-80687300D02*
X121832300Y-79012200D01*
X120157200Y-81010800D02*
X120157200Y-80687300D01*
X122508500Y-107969700D02*
X121547200Y-107008300D01*
X126545600Y-107969700D02*
X122508500Y-107969700D01*
X126624600Y-108048700D02*
X126545600Y-107969700D01*
X127811200Y-108048700D02*
X126624600Y-108048700D01*
X128575800Y-108813300D02*
X127811200Y-108048700D01*
X132344200Y-108813300D02*
X128575800Y-108813300D01*
X134686000Y-111155100D02*
X132344200Y-108813300D01*
X124902000Y-92664600D02*
X124902000Y-92682200D01*
X124902000Y-93014800D02*
X124902000Y-92682200D01*
X124902000Y-92664600D02*
X124902000Y-92314500D01*
X116878500Y-107633900D02*
X115878200Y-107633900D01*
X140911200Y-98970000D02*
X140656000Y-98714800D01*
X141308500Y-98970000D02*
X140911200Y-98970000D01*
X142606000Y-96764800D02*
X143431300Y-96764800D01*
X139656000Y-88640100D02*
X139656000Y-88493100D01*
X141780700Y-90764800D02*
X139656000Y-88640100D01*
X139656000Y-88493100D02*
X139656000Y-87314800D01*
X139656000Y-88493100D02*
X136170700Y-88493100D01*
X141780700Y-92977100D02*
X141780700Y-96764800D01*
X130036000Y-107189800D02*
X130036000Y-107525700D01*
X130036000Y-107525700D02*
X130036000Y-107890100D01*
X143743100Y-97414400D02*
X143431300Y-97102600D01*
X144188300Y-97414400D02*
X143743100Y-97414400D01*
X143431300Y-96764800D02*
X143431300Y-97102600D01*
X143127100Y-97406800D02*
X142674500Y-97406800D01*
X143431300Y-97102600D02*
X143127100Y-97406800D01*
X113042900Y-104798600D02*
X115878200Y-107633900D01*
X113042900Y-102572900D02*
X113042900Y-104798600D01*
X115503900Y-100111900D02*
X113042900Y-102572900D01*
X115503900Y-99910800D02*
X115503900Y-100111900D01*
X118882500Y-96532200D02*
X115503900Y-99910800D01*
X121052000Y-96532200D02*
X118882500Y-96532200D01*
X124902000Y-92682200D02*
X121052000Y-96532200D01*
X124930800Y-97018700D02*
X124930800Y-104964800D01*
X124954700Y-96994800D02*
X124930800Y-97018700D01*
X123590700Y-104964800D02*
X124930800Y-104964800D01*
X121547200Y-107008300D02*
X123590700Y-104964800D01*
X124930800Y-104964800D02*
X127811000Y-104964800D01*
X130242700Y-107732400D02*
X132954500Y-107732400D01*
X130036000Y-107525700D02*
X130242700Y-107732400D01*
X138926000Y-103764800D02*
X138926000Y-103014500D01*
X141766000Y-103014500D02*
X143825700Y-100954800D01*
X138926000Y-103014500D02*
X141766000Y-103014500D01*
X144526000Y-100954800D02*
X143825700Y-100954800D01*
X145822700Y-101551200D02*
X145226300Y-100954800D01*
X145822700Y-109880700D02*
X145822700Y-101551200D01*
X145148800Y-110554600D02*
X145822700Y-109880700D01*
X140512300Y-110554600D02*
X145148800Y-110554600D01*
X138426000Y-108468300D02*
X140512300Y-110554600D01*
X138426000Y-107664800D02*
X138426000Y-108468300D01*
X144526000Y-100954800D02*
X145226300Y-100954800D01*
X135062500Y-83612800D02*
X128892400Y-77442700D01*
X137205900Y-83612800D02*
X135062500Y-83612800D01*
X129536000Y-104239800D02*
X129536000Y-103432800D01*
X129986300Y-109844800D02*
X130773000Y-109844800D01*
X129986300Y-109844800D02*
X129286000Y-109844800D01*
X129536000Y-103432800D02*
X130048000Y-103174800D01*
X130761000Y-104964800D02*
X131461300Y-104964800D01*
X131461300Y-104964800D02*
X131461300Y-104346500D01*
X131461300Y-104346500D02*
X131312900Y-104198100D01*
X130236000Y-101650800D02*
X130236000Y-100950500D01*
X130443000Y-100758400D02*
X130250900Y-100950500D01*
X130250900Y-100950500D02*
X130236000Y-100950500D01*
X128336000Y-103339500D02*
X128336000Y-101650800D01*
X128536000Y-103539500D02*
X128336000Y-103339500D01*
X128536000Y-104239800D02*
X128536000Y-103539500D01*
X152633300Y-83882000D02*
X156525000Y-87773700D01*
X149000800Y-83882000D02*
X152633300Y-83882000D01*
X140396000Y-81584800D02*
X141321300Y-81584800D01*
X141552400Y-81815900D02*
X147066000Y-81815900D01*
X141321300Y-81584800D02*
X141552400Y-81815900D01*
X147066000Y-81815900D02*
X148441600Y-81815900D01*
X148137300Y-94764800D02*
X142606000Y-94764800D01*
X148441600Y-94460500D02*
X148137300Y-94764800D01*
X148441600Y-84207100D02*
X148441600Y-94460500D01*
X148375500Y-84141000D02*
X148441600Y-84207100D01*
X148375500Y-83623000D02*
X148375500Y-84141000D01*
X148441600Y-83556900D02*
X148375500Y-83623000D01*
X148441600Y-81815900D02*
X148441600Y-83556900D01*
X142606000Y-94264800D02*
X143431300Y-94264800D01*
X147066000Y-91513700D02*
X147025800Y-91513700D01*
X147025800Y-91513700D02*
X145690400Y-91513700D01*
X140396000Y-84124800D02*
X140396000Y-84825100D01*
X141296800Y-84825100D02*
X140396000Y-84825100D01*
X147025800Y-90554100D02*
X141296800Y-84825100D01*
X147025800Y-91513700D02*
X147025800Y-90554100D01*
X145690400Y-92681100D02*
X145690400Y-91513700D01*
X144106700Y-94264800D02*
X145690400Y-92681100D01*
X143431300Y-94264800D02*
X144106700Y-94264800D01*
X145256700Y-95764800D02*
X142606000Y-95764800D01*
X147066000Y-97574100D02*
X145256700Y-95764800D01*
X149934400Y-100442500D02*
X147066000Y-97574100D01*
X150434000Y-100442500D02*
X149934400Y-100442500D01*
X150434000Y-101142800D02*
X150434000Y-100442500D01*
X146255300Y-95264800D02*
X147066000Y-96075500D01*
X142606000Y-95264800D02*
X146255300Y-95264800D01*
X147119300Y-96128800D02*
X147066000Y-96075500D01*
X152400000Y-96128800D02*
X147119300Y-96128800D01*
X123190000Y-99194800D02*
X121336700Y-99194800D01*
X131206000Y-94264800D02*
X127115900Y-94264800D01*
X126305700Y-93629200D02*
X124181300Y-95753600D01*
X130245000Y-93629200D02*
X126305700Y-93629200D01*
X130380600Y-93764800D02*
X130245000Y-93629200D01*
X131206000Y-93764800D02*
X130380600Y-93764800D01*
X133048500Y-95764800D02*
X133315600Y-95497700D01*
X131206000Y-95764800D02*
X133048500Y-95764800D01*
X133156000Y-98714800D02*
X133156000Y-99540100D01*
X134931300Y-99540100D02*
X133156000Y-99540100D01*
X135636000Y-100244800D02*
X134931300Y-99540100D01*
X135636000Y-100283100D02*
X135636000Y-100244800D01*
X155956000Y-73511200D02*
X155956000Y-71424800D01*
X154686000Y-74781200D02*
X155956000Y-73511200D01*
X154686000Y-75506600D02*
X154686000Y-74781200D01*
X117402400Y-74781200D02*
X114046000Y-71424800D01*
X117402400Y-75234800D02*
X117402400Y-74781200D01*
X118127800Y-75234800D02*
X117402400Y-75234800D01*
X119398800Y-115874800D02*
X116586000Y-115874800D01*
X123480600Y-111793000D02*
X119398800Y-115874800D01*
X124206000Y-111793000D02*
X123480600Y-111793000D01*
X155139600Y-112518400D02*
X158496000Y-115874800D01*
X155139600Y-112064800D02*
X155139600Y-112518400D01*
X154414200Y-112064800D02*
X155139600Y-112064800D01*
X154461400Y-77596400D02*
X154461400Y-77505600D01*
X155095900Y-78230900D02*
X154461400Y-77596400D01*
X157094600Y-78230900D02*
X155095900Y-78230900D01*
X157720700Y-77604800D02*
X157094600Y-78230900D01*
X158496000Y-77604800D02*
X157720700Y-77604800D01*
X154098700Y-77505600D02*
X154461400Y-77505600D01*
X154098700Y-77505600D02*
X153736000Y-77505600D01*
X138156000Y-85729800D02*
X138156000Y-87314800D01*
X138620800Y-85265000D02*
X138156000Y-85729800D01*
X138829900Y-85265000D02*
X138620800Y-85265000D01*
X139470600Y-84624300D02*
X138829900Y-85265000D01*
X139470600Y-81061700D02*
X139470600Y-84624300D01*
X143026700Y-77505600D02*
X139470600Y-81061700D01*
X153736000Y-77505600D02*
X143026700Y-77505600D01*
X151046000Y-104444800D02*
X151046000Y-103669500D01*
X138656000Y-99036600D02*
X138656000Y-99540100D01*
X138656000Y-99036600D02*
X138656000Y-98714800D01*
X137671800Y-96905300D02*
X133713100Y-96905300D01*
X138656000Y-97889500D02*
X137671800Y-96905300D01*
X122156200Y-80060800D02*
X122881600Y-80060800D01*
X138656000Y-98714800D02*
X138656000Y-97889500D01*
X124110100Y-81289300D02*
X126432200Y-81289300D01*
X122881600Y-80060800D02*
X124110100Y-81289300D01*
X150409100Y-103669500D02*
X151046000Y-103669500D01*
X146334900Y-99595300D02*
X150409100Y-103669500D01*
X138711200Y-99595300D02*
X146334900Y-99595300D01*
X138656000Y-99540100D02*
X138711200Y-99595300D01*
X120217600Y-75459400D02*
X120126800Y-75459400D01*
X120852100Y-74824900D02*
X120217600Y-75459400D01*
X120852100Y-72826200D02*
X120852100Y-74824900D01*
X120226000Y-72200100D02*
X120852100Y-72826200D01*
X120226000Y-71424800D02*
X120226000Y-72200100D01*
X120126800Y-75822100D02*
X120126800Y-75459400D01*
X120126800Y-75822100D02*
X120126800Y-76184800D01*
X137656000Y-87314800D02*
X137656000Y-86489500D01*
X137019200Y-86489500D02*
X137656000Y-86489500D01*
X126714500Y-76184800D02*
X137019200Y-86489500D01*
X120126800Y-76184800D02*
X126714500Y-76184800D01*
X124430600Y-109884800D02*
X124430600Y-109794000D01*
X122420600Y-111894800D02*
X124430600Y-109884800D01*
X121171300Y-111894800D02*
X122420600Y-111894800D01*
X120396000Y-111894800D02*
X121171300Y-111894800D01*
X124793300Y-109794000D02*
X125067600Y-109794000D01*
X124793300Y-109794000D02*
X124430600Y-109794000D01*
X125156000Y-109794000D02*
X125067600Y-109794000D01*
X129132700Y-79466200D02*
X127222500Y-79466200D01*
X136156000Y-86489500D02*
X129132700Y-79466200D01*
X125156000Y-109794000D02*
X125881300Y-109794000D01*
X125881300Y-109959000D02*
X127535300Y-111613000D01*
X125881300Y-109794000D02*
X125881300Y-109959000D01*
X136156000Y-87314800D02*
X136156000Y-86489500D01*
X152324400Y-111840200D02*
X152415200Y-111840200D01*
X151689900Y-112474700D02*
X152324400Y-111840200D01*
X151689900Y-114473400D02*
X151689900Y-112474700D01*
X152316000Y-115099500D02*
X151689900Y-114473400D01*
X152316000Y-115874800D02*
X152316000Y-115099500D01*
X152415200Y-111114800D02*
X152415200Y-111840200D01*
X152415200Y-111114800D02*
X152415200Y-110389500D01*
X151971400Y-109945700D02*
X152415200Y-110389500D01*
X151971400Y-103777000D02*
X151971400Y-109945700D01*
X150950700Y-102756300D02*
X151971400Y-103777000D01*
X150508300Y-102756300D02*
X150950700Y-102756300D01*
X146547700Y-98795700D02*
X150508300Y-102756300D01*
X142506000Y-98795700D02*
X146547700Y-98795700D01*
X135516100Y-91805800D02*
X142506000Y-98795700D01*
X135516100Y-88094200D02*
X135516100Y-91805800D01*
X135656000Y-87954300D02*
X135516100Y-88094200D01*
X135656000Y-87314800D02*
X135656000Y-87954300D01*
X123190000Y-96994800D02*
X122414700Y-96994800D01*
X121975800Y-97433700D02*
X118881300Y-97433700D01*
X122414700Y-96994800D02*
X121975800Y-97433700D01*
X125730000Y-99194800D02*
X126505300Y-99194800D01*
X137656000Y-98302100D02*
X137656000Y-97889500D01*
X137656000Y-98302100D02*
X137656000Y-98714800D01*
X133202000Y-100298200D02*
X134805000Y-100298200D01*
X131651400Y-98747600D02*
X133202000Y-100298200D01*
X131651400Y-98269400D02*
X131651400Y-98747600D01*
X127430700Y-98269400D02*
X131651400Y-98269400D01*
X126505300Y-99194800D02*
X127430700Y-98269400D01*
X132031300Y-97889500D02*
X137656000Y-97889500D01*
X131651400Y-98269400D02*
X132031300Y-97889500D01*
X137426000Y-102841900D02*
X137392400Y-102808300D01*
X137426000Y-103764800D02*
X137426000Y-102841900D01*
X128016000Y-99194800D02*
X128791300Y-99194800D01*
X138156000Y-98714800D02*
X138156000Y-99540100D01*
X138156000Y-99540100D02*
X136641100Y-101055000D01*
X132843400Y-101055000D02*
X136641100Y-101055000D01*
X130983200Y-99194800D02*
X132843400Y-101055000D01*
X128791300Y-99194800D02*
X130983200Y-99194800D01*
X136641100Y-103479900D02*
X136926000Y-103764800D01*
X136641100Y-101055000D02*
X136641100Y-103479900D01*
X139336000Y-94988800D02*
X139336000Y-93245000D01*
X142503500Y-98156300D02*
X139336000Y-94988800D01*
X145542000Y-98156300D02*
X142503500Y-98156300D01*
X144526000Y-107408800D02*
X143750700Y-107408800D01*
X143494700Y-107664800D02*
X143750700Y-107408800D01*
X139426000Y-107664800D02*
X143494700Y-107664800D01*
X125550700Y-105964800D02*
X125306000Y-106209500D01*
X127811000Y-105964800D02*
X125550700Y-105964800D01*
X125306000Y-106984800D02*
X125306000Y-106209500D01*
X135156000Y-87314800D02*
X135156000Y-86489500D01*
X129624000Y-82092800D02*
X129624000Y-82868100D01*
X131534600Y-82868100D02*
X135156000Y-86489500D01*
X129624000Y-82868100D02*
X131534600Y-82868100D01*
X132222200Y-89764800D02*
X131206000Y-89764800D01*
X132294700Y-89692300D02*
X132222200Y-89764800D01*
X132973200Y-89692300D02*
X132294700Y-89692300D01*
X133744900Y-90464000D02*
X132973200Y-89692300D01*
X130675000Y-88700300D02*
X132626300Y-88700300D01*
X130380700Y-88994600D02*
X130675000Y-88700300D01*
X130380700Y-90764800D02*
X130380700Y-88994600D01*
X131206000Y-90764800D02*
X130380700Y-90764800D01*
X130738900Y-75153700D02*
X129284500Y-76608100D01*
X131826000Y-75153700D02*
X130738900Y-75153700D01*
X132500900Y-90264800D02*
X131206000Y-90264800D01*
X132553700Y-90317600D02*
X132500900Y-90264800D01*
X131826000Y-73964800D02*
X131826000Y-75153700D01*
X136226000Y-106964800D02*
X131442300Y-106964800D01*
X127811000Y-106464800D02*
X127588000Y-106687800D01*
X127588000Y-106687800D02*
X127588000Y-107155800D01*
X136227900Y-108362900D02*
X136926000Y-107664800D01*
X128811800Y-108362900D02*
X136227900Y-108362900D01*
X128536000Y-108087100D02*
X128811800Y-108362900D01*
X128536000Y-107189800D02*
X128536000Y-108087100D01*
X128167200Y-94764800D02*
X131206000Y-94764800D01*
X127892300Y-95039700D02*
X128167200Y-94764800D01*
X126113500Y-95039700D02*
X127892300Y-95039700D01*
X124287000Y-96866200D02*
X126113500Y-95039700D01*
X124287000Y-100413300D02*
X124287000Y-96866200D01*
X118366400Y-106333900D02*
X124287000Y-100413300D01*
X116878500Y-106333900D02*
X118366400Y-106333900D01*
X119901900Y-106983900D02*
X124305400Y-102580400D01*
X116878500Y-106983900D02*
X119901900Y-106983900D01*
X129271400Y-100950400D02*
X129551800Y-100670000D01*
X127054700Y-100950400D02*
X129271400Y-100950400D01*
X125556100Y-102449000D02*
X127054700Y-100950400D01*
X129751500Y-95264800D02*
X129551800Y-95464500D01*
X131206000Y-95264800D02*
X129751500Y-95264800D01*
X134156000Y-88140100D02*
X134656000Y-88140100D01*
X134156000Y-87314800D02*
X134156000Y-88140100D01*
X134656000Y-87314800D02*
X134656000Y-88140100D01*
D43*
G36*
X160655000Y-74075564D02*
X160513532Y-74217032D01*
X160365043Y-74439262D01*
X160312900Y-74701400D01*
X160314163Y-74707750D01*
X160312900Y-74714100D01*
X160312900Y-112255300D01*
X160365043Y-112517438D01*
X160513532Y-112739668D01*
X160627832Y-112853968D01*
X160655000Y-112872121D01*
X160655000Y-118033800D01*
X155845236Y-118033800D01*
X155729168Y-117917732D01*
X155506938Y-117769243D01*
X155244800Y-117717100D01*
X117627400Y-117717100D01*
X117365262Y-117769243D01*
X117143032Y-117917732D01*
X117065478Y-118033800D01*
X111887000Y-118033800D01*
X111887000Y-113041550D01*
X111977668Y-112980968D01*
X112126157Y-112758738D01*
X112178300Y-112496600D01*
X112178300Y-110785774D01*
X112809421Y-110785774D01*
X113011172Y-111196663D01*
X113351862Y-111483902D01*
X113776540Y-111618900D01*
X114051540Y-111618900D01*
X114051540Y-110610900D01*
X114305540Y-110610900D01*
X114305540Y-111618900D01*
X114580540Y-111618900D01*
X115005218Y-111483902D01*
X115345908Y-111196663D01*
X115547659Y-110785774D01*
X115421494Y-110610900D01*
X114305540Y-110610900D01*
X114051540Y-110610900D01*
X112935586Y-110610900D01*
X112809421Y-110785774D01*
X112178300Y-110785774D01*
X112178300Y-110182026D01*
X112809421Y-110182026D01*
X112935586Y-110356900D01*
X114051540Y-110356900D01*
X114051540Y-109348900D01*
X114305540Y-109348900D01*
X114305540Y-110356900D01*
X115421494Y-110356900D01*
X115547659Y-110182026D01*
X115352731Y-109785031D01*
X115777311Y-109785031D01*
X115918972Y-110194949D01*
X116206719Y-110519452D01*
X116580602Y-110703168D01*
X116751540Y-110576634D01*
X116751540Y-109610900D01*
X117005540Y-109610900D01*
X117005540Y-110576634D01*
X117176478Y-110703168D01*
X117550361Y-110519452D01*
X117838108Y-110194949D01*
X117979769Y-109785031D01*
X117831103Y-109610900D01*
X117005540Y-109610900D01*
X116751540Y-109610900D01*
X115925977Y-109610900D01*
X115777311Y-109785031D01*
X115352731Y-109785031D01*
X115345908Y-109771137D01*
X115005218Y-109483898D01*
X114580540Y-109348900D01*
X114305540Y-109348900D01*
X114051540Y-109348900D01*
X113776540Y-109348900D01*
X113351862Y-109483898D01*
X113011172Y-109771137D01*
X112809421Y-110182026D01*
X112178300Y-110182026D01*
X112178300Y-95936490D01*
X112395000Y-95936490D01*
X112395000Y-96793050D01*
X112553750Y-96951800D01*
X113919000Y-96951800D01*
X113919000Y-95586550D01*
X114173000Y-95586550D01*
X114173000Y-96951800D01*
X115538250Y-96951800D01*
X115697000Y-96793050D01*
X115697000Y-95936490D01*
X115600327Y-95703101D01*
X115421698Y-95524473D01*
X115188309Y-95427800D01*
X114331750Y-95427800D01*
X114173000Y-95586550D01*
X113919000Y-95586550D01*
X113760250Y-95427800D01*
X112903691Y-95427800D01*
X112670302Y-95524473D01*
X112491673Y-95703101D01*
X112395000Y-95936490D01*
X112178300Y-95936490D01*
X112178300Y-91057968D01*
X112712633Y-91592301D01*
X112712269Y-92008886D01*
X112914854Y-92499180D01*
X113289647Y-92874627D01*
X113779587Y-93078068D01*
X114310086Y-93078531D01*
X114800380Y-92875946D01*
X115175827Y-92501153D01*
X115379268Y-92011213D01*
X115379731Y-91480714D01*
X115177146Y-90990420D01*
X114802353Y-90614973D01*
X114464554Y-90474706D01*
X114800380Y-90335946D01*
X115175827Y-89961153D01*
X115379268Y-89471213D01*
X115379731Y-88940714D01*
X115177146Y-88450420D01*
X114802353Y-88074973D01*
X114647663Y-88010740D01*
X114744500Y-88010740D01*
X114979817Y-87966462D01*
X115195941Y-87827390D01*
X115340931Y-87615190D01*
X115391940Y-87363300D01*
X115391940Y-85966300D01*
X115347662Y-85730983D01*
X115208590Y-85514859D01*
X114996390Y-85369869D01*
X114744500Y-85318860D01*
X114537966Y-85318860D01*
X114630327Y-85226498D01*
X114727000Y-84993109D01*
X114727000Y-84552550D01*
X114568250Y-84393800D01*
X113919000Y-84393800D01*
X113919000Y-84413800D01*
X113665000Y-84413800D01*
X113665000Y-84393800D01*
X113015750Y-84393800D01*
X112857000Y-84552550D01*
X112857000Y-84993109D01*
X112953673Y-85226498D01*
X113098875Y-85371701D01*
X112896059Y-85502210D01*
X112751069Y-85714410D01*
X112700060Y-85966300D01*
X112700060Y-87363300D01*
X112744338Y-87598617D01*
X112883410Y-87814741D01*
X113095610Y-87959731D01*
X113347500Y-88010740D01*
X113443884Y-88010740D01*
X113291620Y-88073654D01*
X112916173Y-88448447D01*
X112712732Y-88938387D01*
X112712421Y-89294233D01*
X112634041Y-89241861D01*
X112620693Y-89239206D01*
X112602627Y-89221108D01*
X112259099Y-89078462D01*
X112178300Y-89078392D01*
X112178300Y-83540491D01*
X112857000Y-83540491D01*
X112857000Y-83981050D01*
X113015750Y-84139800D01*
X113665000Y-84139800D01*
X113665000Y-83190550D01*
X113919000Y-83190550D01*
X113919000Y-84139800D01*
X114568250Y-84139800D01*
X114727000Y-83981050D01*
X114727000Y-83540491D01*
X114630327Y-83307102D01*
X114451699Y-83128473D01*
X114218310Y-83031800D01*
X114077750Y-83031800D01*
X113919000Y-83190550D01*
X113665000Y-83190550D01*
X113506250Y-83031800D01*
X113365690Y-83031800D01*
X113132301Y-83128473D01*
X112953673Y-83307102D01*
X112857000Y-83540491D01*
X112178300Y-83540491D01*
X112178300Y-81296550D01*
X116592000Y-81296550D01*
X116592000Y-81737109D01*
X116688673Y-81970498D01*
X116867301Y-82149127D01*
X117100690Y-82245800D01*
X117316250Y-82245800D01*
X117475000Y-82087050D01*
X117475000Y-81137800D01*
X117729000Y-81137800D01*
X117729000Y-82087050D01*
X117887750Y-82245800D01*
X118103310Y-82245800D01*
X118336699Y-82149127D01*
X118515327Y-81970498D01*
X118612000Y-81737109D01*
X118612000Y-81296550D01*
X118453250Y-81137800D01*
X117729000Y-81137800D01*
X117475000Y-81137800D01*
X116750750Y-81137800D01*
X116592000Y-81296550D01*
X112178300Y-81296550D01*
X112178300Y-75069700D01*
X112175774Y-75057000D01*
X112178300Y-75044300D01*
X112126157Y-74782162D01*
X111977668Y-74559932D01*
X111939395Y-74534359D01*
X111887000Y-74481964D01*
X111887000Y-72926198D01*
X111924600Y-72982470D01*
X112008766Y-73108434D01*
X112382560Y-73482228D01*
X112382560Y-74980800D01*
X112426838Y-75216117D01*
X112565910Y-75432241D01*
X112778110Y-75577231D01*
X113030000Y-75628240D01*
X115062000Y-75628240D01*
X115297317Y-75583962D01*
X115513441Y-75444890D01*
X115658431Y-75232690D01*
X115709440Y-74980800D01*
X115709440Y-74163042D01*
X116642400Y-75096002D01*
X116642400Y-75234800D01*
X116700252Y-75525639D01*
X116864999Y-75772201D01*
X117111561Y-75936948D01*
X117175757Y-75949718D01*
X117263640Y-76086291D01*
X117475840Y-76231281D01*
X117727730Y-76282290D01*
X118527830Y-76282290D01*
X118763147Y-76238012D01*
X118979271Y-76098940D01*
X119079270Y-75952587D01*
X119079270Y-76584850D01*
X119123548Y-76820167D01*
X119262620Y-77036291D01*
X119474820Y-77181281D01*
X119726710Y-77232290D01*
X120526810Y-77232290D01*
X120762127Y-77188012D01*
X120978251Y-77048940D01*
X121049407Y-76944800D01*
X126399698Y-76944800D01*
X128161098Y-78706200D01*
X127784963Y-78706200D01*
X127752827Y-78674008D01*
X127409299Y-78531362D01*
X127037333Y-78531038D01*
X126693557Y-78673083D01*
X126430308Y-78935873D01*
X126287662Y-79279401D01*
X126287338Y-79651367D01*
X126429383Y-79995143D01*
X126692173Y-80258392D01*
X127035701Y-80401038D01*
X127407667Y-80401362D01*
X127751443Y-80259317D01*
X127784618Y-80226200D01*
X128817898Y-80226200D01*
X129587058Y-80995360D01*
X129024000Y-80995360D01*
X128788683Y-81039638D01*
X128572559Y-81178710D01*
X128526031Y-81246806D01*
X128383698Y-81104473D01*
X128150309Y-81007800D01*
X127709750Y-81007800D01*
X127551000Y-81166550D01*
X127551000Y-81965800D01*
X127571000Y-81965800D01*
X127571000Y-82219800D01*
X127551000Y-82219800D01*
X127551000Y-83019050D01*
X127709750Y-83177800D01*
X128150309Y-83177800D01*
X128383698Y-83081127D01*
X128524936Y-82939890D01*
X128559910Y-82994241D01*
X128772110Y-83139231D01*
X128930055Y-83171216D01*
X129005924Y-83284761D01*
X128788683Y-83325638D01*
X128572559Y-83464710D01*
X128526031Y-83532806D01*
X128383698Y-83390473D01*
X128150309Y-83293800D01*
X127709750Y-83293800D01*
X127551000Y-83452550D01*
X127551000Y-84251800D01*
X127571000Y-84251800D01*
X127571000Y-84394200D01*
X125484102Y-84394200D01*
X125165722Y-84075820D01*
X125165762Y-84030333D01*
X125071620Y-83802490D01*
X126189000Y-83802490D01*
X126189000Y-84093050D01*
X126347750Y-84251800D01*
X127297000Y-84251800D01*
X127297000Y-83452550D01*
X127138250Y-83293800D01*
X126697691Y-83293800D01*
X126464302Y-83390473D01*
X126285673Y-83569101D01*
X126189000Y-83802490D01*
X125071620Y-83802490D01*
X125023717Y-83686557D01*
X124760927Y-83423308D01*
X124417399Y-83280662D01*
X124045433Y-83280338D01*
X123701657Y-83422383D01*
X123438408Y-83685173D01*
X123295762Y-84028701D01*
X123295438Y-84400667D01*
X123437483Y-84744443D01*
X123700273Y-85007692D01*
X124043801Y-85150338D01*
X124090677Y-85150379D01*
X124631899Y-85691601D01*
X124878460Y-85856348D01*
X125169300Y-85914200D01*
X126282995Y-85914200D01*
X126519973Y-86151592D01*
X126863501Y-86294238D01*
X127235467Y-86294562D01*
X127579243Y-86152517D01*
X127817976Y-85914200D01*
X129623900Y-85914200D01*
X129914739Y-85856348D01*
X130161301Y-85691601D01*
X130161401Y-85691501D01*
X130316916Y-85458757D01*
X130459317Y-85431962D01*
X130675441Y-85292890D01*
X130820431Y-85080690D01*
X130871440Y-84828800D01*
X130871440Y-83928800D01*
X130827162Y-83693483D01*
X130785089Y-83628100D01*
X131219798Y-83628100D01*
X133802124Y-86210426D01*
X133795683Y-86211638D01*
X133655273Y-86301990D01*
X133532890Y-86218369D01*
X133458192Y-86203242D01*
X133434750Y-86179800D01*
X133404690Y-86179800D01*
X133384247Y-86188268D01*
X133281000Y-86167360D01*
X133031000Y-86167360D01*
X132795683Y-86211638D01*
X132579559Y-86350710D01*
X132434569Y-86562910D01*
X132383560Y-86814800D01*
X132383560Y-87315000D01*
X125957600Y-87315000D01*
X125666761Y-87372852D01*
X125420199Y-87537599D01*
X124902000Y-88055798D01*
X122478901Y-85632699D01*
X122232339Y-85467952D01*
X121941500Y-85410100D01*
X121473440Y-85410100D01*
X121473440Y-84944800D01*
X121429162Y-84709483D01*
X121290090Y-84493359D01*
X121077890Y-84348369D01*
X120919945Y-84316384D01*
X120917200Y-84312276D01*
X120917200Y-81933839D01*
X121008731Y-81874940D01*
X121153721Y-81662740D01*
X121204730Y-81410850D01*
X121204730Y-80776545D01*
X121292080Y-80912291D01*
X121504280Y-81057281D01*
X121756170Y-81108290D01*
X122556270Y-81108290D01*
X122791587Y-81064012D01*
X122802797Y-81056799D01*
X123572699Y-81826701D01*
X123819260Y-81991448D01*
X124110100Y-82049300D01*
X125869737Y-82049300D01*
X125901873Y-82081492D01*
X126189000Y-82200718D01*
X126189000Y-82219802D01*
X126234959Y-82219802D01*
X126245401Y-82224138D01*
X126343327Y-82224223D01*
X126189000Y-82378550D01*
X126189000Y-82669110D01*
X126285673Y-82902499D01*
X126464302Y-83081127D01*
X126697691Y-83177800D01*
X127138250Y-83177800D01*
X127297000Y-83019050D01*
X127297000Y-82219800D01*
X127277000Y-82219800D01*
X127277000Y-81965800D01*
X127297000Y-81965800D01*
X127297000Y-81644768D01*
X127367038Y-81476099D01*
X127367362Y-81104133D01*
X127225317Y-80760357D01*
X126962527Y-80497108D01*
X126618999Y-80354462D01*
X126247033Y-80354138D01*
X125903257Y-80496183D01*
X125870082Y-80529300D01*
X125229125Y-80529300D01*
X125475943Y-80427317D01*
X125739192Y-80164527D01*
X125881838Y-79820999D01*
X125882162Y-79449033D01*
X125740117Y-79105257D01*
X125477327Y-78842008D01*
X125133799Y-78699362D01*
X125086923Y-78699321D01*
X124237001Y-77849399D01*
X123990439Y-77684652D01*
X123699600Y-77626800D01*
X121516000Y-77626800D01*
X121225161Y-77684652D01*
X120978599Y-77849399D01*
X120729762Y-78098236D01*
X120557290Y-78063310D01*
X119757190Y-78063310D01*
X119521873Y-78107588D01*
X119305749Y-78246660D01*
X119160759Y-78458860D01*
X119150226Y-78510874D01*
X118997239Y-78408652D01*
X118706400Y-78350800D01*
X118594334Y-78350800D01*
X118580162Y-78275483D01*
X118441090Y-78059359D01*
X118228890Y-77914369D01*
X117977000Y-77863360D01*
X117227000Y-77863360D01*
X116991683Y-77907638D01*
X116858829Y-77993127D01*
X115595101Y-76729399D01*
X115348539Y-76564652D01*
X115057700Y-76506800D01*
X114709334Y-76506800D01*
X114695162Y-76431483D01*
X114556090Y-76215359D01*
X114343890Y-76070369D01*
X114092000Y-76019360D01*
X113492000Y-76019360D01*
X113256683Y-76063638D01*
X113040559Y-76202710D01*
X112895569Y-76414910D01*
X112844560Y-76666800D01*
X112844560Y-77866800D01*
X112888838Y-78102117D01*
X113027910Y-78318241D01*
X113240110Y-78463231D01*
X113492000Y-78514240D01*
X114092000Y-78514240D01*
X114327317Y-78469962D01*
X114543441Y-78330890D01*
X114688431Y-78118690D01*
X114707039Y-78026800D01*
X114742898Y-78026800D01*
X116364299Y-79648201D01*
X116597043Y-79803715D01*
X116623838Y-79946117D01*
X116690329Y-80049446D01*
X116688673Y-80051102D01*
X116592000Y-80284491D01*
X116592000Y-80725050D01*
X116750750Y-80883800D01*
X117475000Y-80883800D01*
X117475000Y-80863800D01*
X117729000Y-80863800D01*
X117729000Y-80883800D01*
X118453250Y-80883800D01*
X118612000Y-80725050D01*
X118612000Y-80284491D01*
X118515327Y-80051102D01*
X118513957Y-80049732D01*
X118536921Y-80016123D01*
X118671800Y-80151002D01*
X118671800Y-82898898D01*
X117488599Y-84082099D01*
X117333085Y-84314843D01*
X117190683Y-84341638D01*
X116974559Y-84480710D01*
X116829569Y-84692910D01*
X116778560Y-84944800D01*
X116778560Y-85844800D01*
X116822838Y-86080117D01*
X116961910Y-86296241D01*
X117174110Y-86441231D01*
X117426000Y-86492240D01*
X118626000Y-86492240D01*
X118861317Y-86447962D01*
X119077441Y-86308890D01*
X119125134Y-86239089D01*
X119161910Y-86296241D01*
X119374110Y-86441231D01*
X119532055Y-86473216D01*
X119688599Y-86707501D01*
X119935161Y-86872248D01*
X120226000Y-86930100D01*
X121626698Y-86930100D01*
X123653398Y-88956800D01*
X123287750Y-88956800D01*
X123129000Y-89115550D01*
X123129000Y-89839800D01*
X123149000Y-89839800D01*
X123149000Y-90034800D01*
X121230669Y-90034800D01*
X121220090Y-90018359D01*
X121007890Y-89873369D01*
X120756000Y-89822360D01*
X119961000Y-89822360D01*
X119961000Y-89465490D01*
X121767000Y-89465490D01*
X121767000Y-89681050D01*
X121925750Y-89839800D01*
X122875000Y-89839800D01*
X122875000Y-89115550D01*
X122716250Y-88956800D01*
X122275691Y-88956800D01*
X122042302Y-89053473D01*
X121863673Y-89232101D01*
X121767000Y-89465490D01*
X119961000Y-89465490D01*
X119961000Y-88657834D01*
X120060838Y-88417399D01*
X120061162Y-88045433D01*
X119919117Y-87701657D01*
X119656327Y-87438408D01*
X119312799Y-87295762D01*
X118940833Y-87295438D01*
X118597057Y-87437483D01*
X118333808Y-87700273D01*
X118191162Y-88043801D01*
X118190838Y-88415767D01*
X118291000Y-88658178D01*
X118291000Y-89814132D01*
X118282772Y-89822360D01*
X117496000Y-89822360D01*
X117260683Y-89866638D01*
X117044559Y-90005710D01*
X116899569Y-90217910D01*
X116848560Y-90469800D01*
X116848560Y-91119800D01*
X116874919Y-91259886D01*
X116861000Y-91293490D01*
X116861000Y-91459050D01*
X117019750Y-91617800D01*
X117100051Y-91617800D01*
X117244110Y-91716231D01*
X117381120Y-91743976D01*
X117260683Y-91766638D01*
X117097257Y-91871800D01*
X117019750Y-91871800D01*
X116861000Y-92030550D01*
X116861000Y-92196110D01*
X116876268Y-92232971D01*
X116848560Y-92369800D01*
X116848560Y-93019800D01*
X116892838Y-93255117D01*
X117031910Y-93471241D01*
X117244110Y-93616231D01*
X117496000Y-93667240D01*
X118556000Y-93667240D01*
X118791317Y-93622962D01*
X118936095Y-93529800D01*
X118956300Y-93529800D01*
X119236145Y-93474135D01*
X119444110Y-93616231D01*
X119696000Y-93667240D01*
X120756000Y-93667240D01*
X120991317Y-93622962D01*
X121207441Y-93483890D01*
X121352431Y-93271690D01*
X121403440Y-93019800D01*
X121403440Y-92513490D01*
X121767000Y-92513490D01*
X121767000Y-92729050D01*
X121925750Y-92887800D01*
X122875000Y-92887800D01*
X122875000Y-92163550D01*
X122716250Y-92004800D01*
X122275691Y-92004800D01*
X122042302Y-92101473D01*
X121863673Y-92280101D01*
X121767000Y-92513490D01*
X121403440Y-92513490D01*
X121403440Y-92369800D01*
X121359162Y-92134483D01*
X121220090Y-91918359D01*
X121007890Y-91773369D01*
X120870880Y-91745624D01*
X120991317Y-91722962D01*
X121207441Y-91583890D01*
X121227317Y-91554800D01*
X124014300Y-91554800D01*
X124014300Y-92070346D01*
X123963354Y-92103129D01*
X123961698Y-92101473D01*
X123728309Y-92004800D01*
X123287750Y-92004800D01*
X123129000Y-92163550D01*
X123129000Y-92887800D01*
X123149000Y-92887800D01*
X123149000Y-93141800D01*
X123129000Y-93141800D01*
X123129000Y-93161800D01*
X122875000Y-93161800D01*
X122875000Y-93141800D01*
X121925750Y-93141800D01*
X121767000Y-93300550D01*
X121767000Y-93516110D01*
X121863673Y-93749499D01*
X122042302Y-93928127D01*
X122275691Y-94024800D01*
X122484598Y-94024800D01*
X120737198Y-95772200D01*
X118882500Y-95772200D01*
X118591661Y-95830052D01*
X118345099Y-95994799D01*
X115503229Y-98836669D01*
X115379034Y-98650799D01*
X115421698Y-98633127D01*
X115600327Y-98454499D01*
X115697000Y-98221110D01*
X115697000Y-97364550D01*
X115538250Y-97205800D01*
X114173000Y-97205800D01*
X114173000Y-97225800D01*
X113919000Y-97225800D01*
X113919000Y-97205800D01*
X112553750Y-97205800D01*
X112395000Y-97364550D01*
X112395000Y-98221110D01*
X112491673Y-98454499D01*
X112670302Y-98633127D01*
X112712966Y-98650799D01*
X112488330Y-98986990D01*
X112362655Y-99618800D01*
X112488330Y-100250610D01*
X112846222Y-100786233D01*
X113381845Y-101144125D01*
X113394380Y-101146618D01*
X112505499Y-102035499D01*
X112340752Y-102282061D01*
X112282900Y-102572900D01*
X112282900Y-104798600D01*
X112340752Y-105089439D01*
X112505499Y-105336001D01*
X115340799Y-108171301D01*
X115568540Y-108323472D01*
X115568540Y-108410902D01*
X115700288Y-108410902D01*
X115568540Y-108542650D01*
X115568540Y-108610210D01*
X115665213Y-108843599D01*
X115835630Y-109014015D01*
X115777311Y-109182769D01*
X115925977Y-109356900D01*
X116751540Y-109356900D01*
X116751540Y-109336900D01*
X117005540Y-109336900D01*
X117005540Y-109356900D01*
X117831103Y-109356900D01*
X117979769Y-109182769D01*
X117921450Y-109014015D01*
X117966974Y-108968491D01*
X119311000Y-108968491D01*
X119311000Y-109409050D01*
X119469750Y-109567800D01*
X120269000Y-109567800D01*
X120269000Y-108618550D01*
X120523000Y-108618550D01*
X120523000Y-109567800D01*
X121322250Y-109567800D01*
X121481000Y-109409050D01*
X121481000Y-109267680D01*
X122220950Y-109267680D01*
X122220950Y-109508290D01*
X122379700Y-109667040D01*
X123129000Y-109667040D01*
X123129000Y-108917740D01*
X122970250Y-108758990D01*
X122729641Y-108758990D01*
X122496252Y-108855663D01*
X122317623Y-109034291D01*
X122220950Y-109267680D01*
X121481000Y-109267680D01*
X121481000Y-108968491D01*
X121384327Y-108735102D01*
X121205699Y-108556473D01*
X120972310Y-108459800D01*
X120681750Y-108459800D01*
X120523000Y-108618550D01*
X120269000Y-108618550D01*
X120110250Y-108459800D01*
X119819690Y-108459800D01*
X119586301Y-108556473D01*
X119407673Y-108735102D01*
X119311000Y-108968491D01*
X117966974Y-108968491D01*
X118091867Y-108843599D01*
X118188540Y-108610210D01*
X118188540Y-108542650D01*
X118056792Y-108410902D01*
X118188540Y-108410902D01*
X118188540Y-108393900D01*
X120921600Y-108393900D01*
X121212439Y-108336048D01*
X121459001Y-108171301D01*
X121547172Y-108083130D01*
X121971071Y-108507073D01*
X121971088Y-108507084D01*
X121971099Y-108507101D01*
X122089331Y-108586101D01*
X122217624Y-108671833D01*
X122217645Y-108671837D01*
X122217661Y-108671848D01*
X122360092Y-108700180D01*
X122508460Y-108729700D01*
X122508480Y-108729696D01*
X122508500Y-108729700D01*
X126302111Y-108729700D01*
X126333761Y-108750848D01*
X126624600Y-108808700D01*
X127496398Y-108808700D01*
X128038399Y-109350701D01*
X128263560Y-109501148D01*
X128263560Y-110444800D01*
X128307838Y-110680117D01*
X128374329Y-110783446D01*
X128372673Y-110785102D01*
X128276000Y-111018491D01*
X128276000Y-111031548D01*
X128065627Y-110820808D01*
X127722099Y-110678162D01*
X127675223Y-110678121D01*
X126604103Y-109607001D01*
X126583448Y-109503161D01*
X126418701Y-109256599D01*
X126172139Y-109091852D01*
X126108005Y-109079095D01*
X126020140Y-108942549D01*
X125807940Y-108797559D01*
X125556050Y-108746550D01*
X124755950Y-108746550D01*
X124520633Y-108790828D01*
X124304509Y-108929900D01*
X124209023Y-109069649D01*
X124194377Y-109034291D01*
X124015748Y-108855663D01*
X123782359Y-108758990D01*
X123541750Y-108758990D01*
X123383000Y-108917740D01*
X123383000Y-109667040D01*
X123403000Y-109667040D01*
X123403000Y-109837598D01*
X123299558Y-109941040D01*
X123129000Y-109941040D01*
X123129000Y-109921040D01*
X122379700Y-109921040D01*
X122220950Y-110079790D01*
X122220950Y-110320400D01*
X122317623Y-110553789D01*
X122496252Y-110732417D01*
X122504687Y-110735911D01*
X122105798Y-111134800D01*
X121463334Y-111134800D01*
X121449162Y-111059483D01*
X121310090Y-110843359D01*
X121241994Y-110796831D01*
X121384327Y-110654498D01*
X121481000Y-110421109D01*
X121481000Y-109980550D01*
X121322250Y-109821800D01*
X120523000Y-109821800D01*
X120523000Y-109841800D01*
X120269000Y-109841800D01*
X120269000Y-109821800D01*
X119469750Y-109821800D01*
X119311000Y-109980550D01*
X119311000Y-110421109D01*
X119407673Y-110654498D01*
X119548910Y-110795736D01*
X119494559Y-110830710D01*
X119349569Y-111042910D01*
X119298560Y-111294800D01*
X119298560Y-112494800D01*
X119342838Y-112730117D01*
X119481910Y-112946241D01*
X119694110Y-113091231D01*
X119946000Y-113142240D01*
X120846000Y-113142240D01*
X121081317Y-113097962D01*
X121136066Y-113062732D01*
X119083998Y-115114800D01*
X118047283Y-115114800D01*
X117753433Y-114675022D01*
X117217810Y-114317130D01*
X116586000Y-114191455D01*
X115954190Y-114317130D01*
X115614208Y-114544299D01*
X115526090Y-114407359D01*
X115313890Y-114262369D01*
X115062000Y-114211360D01*
X113030000Y-114211360D01*
X112794683Y-114255638D01*
X112578559Y-114394710D01*
X112433569Y-114606910D01*
X112382560Y-114858800D01*
X112382560Y-116890800D01*
X112426838Y-117126117D01*
X112565910Y-117342241D01*
X112778110Y-117487231D01*
X113030000Y-117538240D01*
X115062000Y-117538240D01*
X115297317Y-117493962D01*
X115513441Y-117354890D01*
X115615198Y-117205963D01*
X115954190Y-117432470D01*
X116586000Y-117558145D01*
X117217810Y-117432470D01*
X117753433Y-117074578D01*
X118047283Y-116634800D01*
X119398800Y-116634800D01*
X119689639Y-116576948D01*
X119936201Y-116412201D01*
X120658347Y-115690055D01*
X121437400Y-115690055D01*
X121437400Y-116059545D01*
X121551474Y-116633034D01*
X121876330Y-117119215D01*
X122362511Y-117444071D01*
X122936000Y-117558145D01*
X123509489Y-117444071D01*
X123995670Y-117119215D01*
X124206000Y-116804434D01*
X124416330Y-117119215D01*
X124902511Y-117444071D01*
X125476000Y-117558145D01*
X126049489Y-117444071D01*
X126535670Y-117119215D01*
X126550500Y-117097020D01*
X126614073Y-117250498D01*
X126792701Y-117429127D01*
X127026090Y-117525800D01*
X127730250Y-117525800D01*
X127889000Y-117367050D01*
X127889000Y-116001800D01*
X128143000Y-116001800D01*
X128143000Y-117367050D01*
X128301750Y-117525800D01*
X129005910Y-117525800D01*
X129239299Y-117429127D01*
X129417927Y-117250498D01*
X129514600Y-117017109D01*
X129514600Y-116160550D01*
X129355850Y-116001800D01*
X128143000Y-116001800D01*
X127889000Y-116001800D01*
X127869000Y-116001800D01*
X127869000Y-115747800D01*
X127889000Y-115747800D01*
X127889000Y-114382550D01*
X128143000Y-114382550D01*
X128143000Y-115747800D01*
X129355850Y-115747800D01*
X129514600Y-115589050D01*
X129514600Y-114732491D01*
X129417927Y-114499102D01*
X129239299Y-114320473D01*
X129005910Y-114223800D01*
X128301750Y-114223800D01*
X128143000Y-114382550D01*
X127889000Y-114382550D01*
X127730250Y-114223800D01*
X127026090Y-114223800D01*
X126792701Y-114320473D01*
X126614073Y-114499102D01*
X126550500Y-114652580D01*
X126535670Y-114630385D01*
X126049489Y-114305529D01*
X125476000Y-114191455D01*
X124902511Y-114305529D01*
X124416330Y-114630385D01*
X124206000Y-114945166D01*
X123995670Y-114630385D01*
X123509489Y-114305529D01*
X122936000Y-114191455D01*
X122362511Y-114305529D01*
X121876330Y-114630385D01*
X121551474Y-115116566D01*
X121437400Y-115690055D01*
X120658347Y-115690055D01*
X123558086Y-112790316D01*
X123805950Y-112840510D01*
X124606050Y-112840510D01*
X124841367Y-112796232D01*
X125057491Y-112657160D01*
X125202481Y-112444960D01*
X125253490Y-112193070D01*
X125253490Y-111392970D01*
X125209212Y-111157653D01*
X125070140Y-110941529D01*
X124923787Y-110841530D01*
X125556050Y-110841530D01*
X125667969Y-110820471D01*
X126600178Y-111752680D01*
X126600138Y-111798167D01*
X126742183Y-112141943D01*
X127004973Y-112405192D01*
X127348501Y-112547838D01*
X127720467Y-112548162D01*
X128064243Y-112406117D01*
X128276000Y-112194729D01*
X128276000Y-112471109D01*
X128372673Y-112704498D01*
X128551301Y-112883127D01*
X128784690Y-112979800D01*
X129000250Y-112979800D01*
X129159000Y-112821050D01*
X129159000Y-111871800D01*
X129413000Y-111871800D01*
X129413000Y-112821050D01*
X129571750Y-112979800D01*
X129787310Y-112979800D01*
X130020699Y-112883127D01*
X130199327Y-112704498D01*
X130296000Y-112471109D01*
X130296000Y-112030550D01*
X130137250Y-111871800D01*
X129413000Y-111871800D01*
X129159000Y-111871800D01*
X129139000Y-111871800D01*
X129139000Y-111617800D01*
X129159000Y-111617800D01*
X129159000Y-111597800D01*
X129413000Y-111597800D01*
X129413000Y-111617800D01*
X130137250Y-111617800D01*
X130296000Y-111459050D01*
X130296000Y-111018491D01*
X130199327Y-110785102D01*
X130197957Y-110783732D01*
X130257431Y-110696690D01*
X130267438Y-110647275D01*
X130586201Y-110779638D01*
X130958167Y-110779962D01*
X131301943Y-110637917D01*
X131565192Y-110375127D01*
X131707838Y-110031599D01*
X131708162Y-109659633D01*
X131672490Y-109573300D01*
X132029398Y-109573300D01*
X133663308Y-111207210D01*
X133634559Y-111225710D01*
X133489569Y-111437910D01*
X133438560Y-111689800D01*
X133438560Y-112334796D01*
X133141299Y-112211362D01*
X132769333Y-112211038D01*
X132425557Y-112353083D01*
X132162308Y-112615873D01*
X132019662Y-112959401D01*
X132019338Y-113331367D01*
X132161383Y-113675143D01*
X132424173Y-113938392D01*
X132767701Y-114081038D01*
X133139667Y-114081362D01*
X133483443Y-113939317D01*
X133516618Y-113906200D01*
X134304900Y-113906200D01*
X134595739Y-113848348D01*
X134842301Y-113683601D01*
X135000802Y-113525100D01*
X139451198Y-113525100D01*
X139956000Y-114029902D01*
X139956000Y-114430152D01*
X139656330Y-114630385D01*
X139446000Y-114945166D01*
X139235670Y-114630385D01*
X138749489Y-114305529D01*
X138176000Y-114191455D01*
X137602511Y-114305529D01*
X137116330Y-114630385D01*
X136906000Y-114945166D01*
X136695670Y-114630385D01*
X136209489Y-114305529D01*
X135636000Y-114191455D01*
X135062511Y-114305529D01*
X134576330Y-114630385D01*
X134251474Y-115116566D01*
X134137400Y-115690055D01*
X134137400Y-116059545D01*
X134251474Y-116633034D01*
X134576330Y-117119215D01*
X135062511Y-117444071D01*
X135636000Y-117558145D01*
X136209489Y-117444071D01*
X136695670Y-117119215D01*
X136906000Y-116804434D01*
X137116330Y-117119215D01*
X137602511Y-117444071D01*
X138176000Y-117558145D01*
X138749489Y-117444071D01*
X139235670Y-117119215D01*
X139446000Y-116804434D01*
X139656330Y-117119215D01*
X140142511Y-117444071D01*
X140716000Y-117558145D01*
X141289489Y-117444071D01*
X141775670Y-117119215D01*
X141790500Y-117097020D01*
X141854073Y-117250498D01*
X142032701Y-117429127D01*
X142266090Y-117525800D01*
X142970250Y-117525800D01*
X143129000Y-117367050D01*
X143129000Y-116001800D01*
X143383000Y-116001800D01*
X143383000Y-117367050D01*
X143541750Y-117525800D01*
X144245910Y-117525800D01*
X144479299Y-117429127D01*
X144657927Y-117250498D01*
X144754600Y-117017109D01*
X144754600Y-116160550D01*
X144595850Y-116001800D01*
X143383000Y-116001800D01*
X143129000Y-116001800D01*
X143109000Y-116001800D01*
X143109000Y-115747800D01*
X143129000Y-115747800D01*
X143129000Y-114382550D01*
X143383000Y-114382550D01*
X143383000Y-115747800D01*
X144595850Y-115747800D01*
X144754600Y-115589050D01*
X144754600Y-114732491D01*
X144657927Y-114499102D01*
X144479299Y-114320473D01*
X144245910Y-114223800D01*
X143541750Y-114223800D01*
X143383000Y-114382550D01*
X143129000Y-114382550D01*
X142970250Y-114223800D01*
X142266090Y-114223800D01*
X142032701Y-114320473D01*
X141854073Y-114499102D01*
X141790500Y-114652580D01*
X141775670Y-114630385D01*
X141476000Y-114430152D01*
X141476000Y-114029902D01*
X142203401Y-113302501D01*
X142358915Y-113069757D01*
X142501317Y-113042962D01*
X142717441Y-112903890D01*
X142862431Y-112691690D01*
X142913440Y-112439800D01*
X142913440Y-111689800D01*
X142869162Y-111454483D01*
X142779150Y-111314600D01*
X145148800Y-111314600D01*
X145439639Y-111256748D01*
X145686201Y-111092001D01*
X146360101Y-110418101D01*
X146524848Y-110171539D01*
X146582700Y-109880700D01*
X146582700Y-101551200D01*
X146524848Y-101260361D01*
X146360101Y-101013799D01*
X145763701Y-100417399D01*
X145670763Y-100355300D01*
X146020098Y-100355300D01*
X149798560Y-104133762D01*
X149798560Y-104894800D01*
X149842838Y-105130117D01*
X149981910Y-105346241D01*
X150194110Y-105491231D01*
X150446000Y-105542240D01*
X151211400Y-105542240D01*
X151211400Y-109945700D01*
X151269252Y-110236539D01*
X151419626Y-110461591D01*
X151418759Y-110462860D01*
X151367750Y-110714750D01*
X151367750Y-111514850D01*
X151400563Y-111689235D01*
X151152499Y-111937299D01*
X150987752Y-112183861D01*
X150929900Y-112474700D01*
X150929900Y-114473400D01*
X150987752Y-114764239D01*
X151152499Y-115010801D01*
X151198739Y-115057041D01*
X151119569Y-115172910D01*
X151068560Y-115424800D01*
X151068560Y-116324800D01*
X151112838Y-116560117D01*
X151251910Y-116776241D01*
X151464110Y-116921231D01*
X151716000Y-116972240D01*
X152916000Y-116972240D01*
X153151317Y-116927962D01*
X153367441Y-116788890D01*
X153413969Y-116720794D01*
X153556302Y-116863127D01*
X153789691Y-116959800D01*
X154230250Y-116959800D01*
X154389000Y-116801050D01*
X154389000Y-116001800D01*
X154643000Y-116001800D01*
X154643000Y-116801050D01*
X154801750Y-116959800D01*
X155242309Y-116959800D01*
X155475698Y-116863127D01*
X155654327Y-116684499D01*
X155751000Y-116451110D01*
X155751000Y-116160550D01*
X155592250Y-116001800D01*
X154643000Y-116001800D01*
X154389000Y-116001800D01*
X154369000Y-116001800D01*
X154369000Y-115747800D01*
X154389000Y-115747800D01*
X154389000Y-114948550D01*
X154643000Y-114948550D01*
X154643000Y-115747800D01*
X155592250Y-115747800D01*
X155751000Y-115589050D01*
X155751000Y-115298490D01*
X155654327Y-115065101D01*
X155475698Y-114886473D01*
X155242309Y-114789800D01*
X154801750Y-114789800D01*
X154643000Y-114948550D01*
X154389000Y-114948550D01*
X154230250Y-114789800D01*
X153789691Y-114789800D01*
X153556302Y-114886473D01*
X153415064Y-115027710D01*
X153380090Y-114973359D01*
X153167890Y-114828369D01*
X153009945Y-114796384D01*
X152853401Y-114562099D01*
X152449900Y-114158598D01*
X152449900Y-114049850D01*
X152542242Y-114049850D01*
X152542242Y-113891102D01*
X152700990Y-114049850D01*
X152941600Y-114049850D01*
X153174989Y-113953177D01*
X153353617Y-113774548D01*
X153450290Y-113541159D01*
X153450290Y-113300550D01*
X153291540Y-113141800D01*
X152542240Y-113141800D01*
X152542240Y-113161800D01*
X152449900Y-113161800D01*
X152449900Y-112867800D01*
X152542240Y-112867800D01*
X152542240Y-112887800D01*
X153291540Y-112887800D01*
X153437697Y-112741643D01*
X153550080Y-112916291D01*
X153762280Y-113061281D01*
X154014170Y-113112290D01*
X154658688Y-113112290D01*
X156913619Y-115367221D01*
X156812655Y-115874800D01*
X156938330Y-116506610D01*
X157296222Y-117042233D01*
X157831845Y-117400125D01*
X158463655Y-117525800D01*
X158528345Y-117525800D01*
X159160155Y-117400125D01*
X159695778Y-117042233D01*
X160053670Y-116506610D01*
X160179345Y-115874800D01*
X160053670Y-115242990D01*
X159826501Y-114903008D01*
X159963441Y-114814890D01*
X160108431Y-114602690D01*
X160159440Y-114350800D01*
X160159440Y-112318800D01*
X160115162Y-112083483D01*
X159976090Y-111867359D01*
X159763890Y-111722369D01*
X159512000Y-111671360D01*
X157480000Y-111671360D01*
X157244683Y-111715638D01*
X157028559Y-111854710D01*
X156883569Y-112066910D01*
X156832560Y-112318800D01*
X156832560Y-113136558D01*
X155899600Y-112203598D01*
X155899600Y-112064800D01*
X155841748Y-111773961D01*
X155677001Y-111527399D01*
X155430439Y-111362652D01*
X155366243Y-111349882D01*
X155278360Y-111213309D01*
X155066160Y-111068319D01*
X154814270Y-111017310D01*
X154014170Y-111017310D01*
X153778853Y-111061588D01*
X153562729Y-111200660D01*
X153462730Y-111347013D01*
X153462730Y-110714750D01*
X153418452Y-110479433D01*
X153279380Y-110263309D01*
X153129764Y-110161081D01*
X153117348Y-110098661D01*
X152952601Y-109852099D01*
X152731400Y-109630898D01*
X152731400Y-105529800D01*
X152960250Y-105529800D01*
X153119000Y-105371050D01*
X153119000Y-104571800D01*
X153373000Y-104571800D01*
X153373000Y-105371050D01*
X153531750Y-105529800D01*
X153972309Y-105529800D01*
X154205698Y-105433127D01*
X154384327Y-105254499D01*
X154481000Y-105021110D01*
X154481000Y-104730550D01*
X154322250Y-104571800D01*
X153373000Y-104571800D01*
X153119000Y-104571800D01*
X153099000Y-104571800D01*
X153099000Y-104317800D01*
X153119000Y-104317800D01*
X153119000Y-103518550D01*
X153373000Y-103518550D01*
X153373000Y-104317800D01*
X154322250Y-104317800D01*
X154481000Y-104159050D01*
X154481000Y-103868490D01*
X154384327Y-103635101D01*
X154205698Y-103456473D01*
X153972309Y-103359800D01*
X153531750Y-103359800D01*
X153373000Y-103518550D01*
X153119000Y-103518550D01*
X152960250Y-103359800D01*
X152589117Y-103359800D01*
X152508801Y-103239599D01*
X151488101Y-102218899D01*
X151306102Y-102097291D01*
X151372646Y-102054471D01*
X151374302Y-102056127D01*
X151607691Y-102152800D01*
X152048250Y-102152800D01*
X152207000Y-101994050D01*
X152207000Y-101269800D01*
X152461000Y-101269800D01*
X152461000Y-101994050D01*
X152619750Y-102152800D01*
X153060309Y-102152800D01*
X153293698Y-102056127D01*
X153472327Y-101877499D01*
X153569000Y-101644110D01*
X153569000Y-101428550D01*
X153410250Y-101269800D01*
X152461000Y-101269800D01*
X152207000Y-101269800D01*
X152187000Y-101269800D01*
X152187000Y-101015800D01*
X152207000Y-101015800D01*
X152207000Y-100291550D01*
X152461000Y-100291550D01*
X152461000Y-101015800D01*
X153410250Y-101015800D01*
X153569000Y-100857050D01*
X153569000Y-100641490D01*
X153472327Y-100408101D01*
X153293698Y-100229473D01*
X153060309Y-100132800D01*
X152619750Y-100132800D01*
X152461000Y-100291550D01*
X152207000Y-100291550D01*
X152048250Y-100132800D01*
X151607691Y-100132800D01*
X151374302Y-100229473D01*
X151372932Y-100230843D01*
X151285890Y-100171369D01*
X151127945Y-100139384D01*
X150971401Y-99905099D01*
X150724839Y-99740352D01*
X150434000Y-99682500D01*
X150249202Y-99682500D01*
X148881252Y-98314550D01*
X151390000Y-98314550D01*
X151390000Y-98755109D01*
X151486673Y-98988498D01*
X151665301Y-99167127D01*
X151898690Y-99263800D01*
X152114250Y-99263800D01*
X152273000Y-99105050D01*
X152273000Y-98155800D01*
X152527000Y-98155800D01*
X152527000Y-99105050D01*
X152685750Y-99263800D01*
X152901310Y-99263800D01*
X153134699Y-99167127D01*
X153313327Y-98988498D01*
X153410000Y-98755109D01*
X153410000Y-98314550D01*
X153251250Y-98155800D01*
X152527000Y-98155800D01*
X152273000Y-98155800D01*
X151548750Y-98155800D01*
X151390000Y-98314550D01*
X148881252Y-98314550D01*
X148201327Y-97634625D01*
X148201576Y-97349250D01*
X148029089Y-96931799D01*
X147986165Y-96888800D01*
X151407666Y-96888800D01*
X151421838Y-96964117D01*
X151488329Y-97067446D01*
X151486673Y-97069102D01*
X151390000Y-97302491D01*
X151390000Y-97743050D01*
X151548750Y-97901800D01*
X152273000Y-97901800D01*
X152273000Y-97881800D01*
X152527000Y-97881800D01*
X152527000Y-97901800D01*
X153251250Y-97901800D01*
X153410000Y-97743050D01*
X153410000Y-97302491D01*
X153313327Y-97069102D01*
X153311957Y-97067732D01*
X153371431Y-96980690D01*
X153422440Y-96728800D01*
X153422440Y-95528800D01*
X153378162Y-95293483D01*
X153239090Y-95077359D01*
X153026890Y-94932369D01*
X152775000Y-94881360D01*
X152025000Y-94881360D01*
X151789683Y-94925638D01*
X151573559Y-95064710D01*
X151428569Y-95276910D01*
X151409961Y-95368800D01*
X148575028Y-95368800D01*
X148674701Y-95302201D01*
X148979001Y-94997901D01*
X149143748Y-94751340D01*
X149201600Y-94460500D01*
X149201600Y-84810703D01*
X149529743Y-84675117D01*
X149562918Y-84642000D01*
X152318498Y-84642000D01*
X155589878Y-87913380D01*
X155589838Y-87958867D01*
X155731883Y-88302643D01*
X155994673Y-88565892D01*
X156338201Y-88708538D01*
X156710167Y-88708862D01*
X157053943Y-88566817D01*
X157317192Y-88304027D01*
X157459838Y-87960499D01*
X157460162Y-87588533D01*
X157318117Y-87244757D01*
X157055327Y-86981508D01*
X156711799Y-86838862D01*
X156664923Y-86838821D01*
X153170701Y-83344599D01*
X152924139Y-83179852D01*
X152633300Y-83122000D01*
X149563263Y-83122000D01*
X149531127Y-83089808D01*
X149201600Y-82952976D01*
X149201600Y-81815900D01*
X149143748Y-81525061D01*
X148979001Y-81278499D01*
X148763730Y-81134660D01*
X148763730Y-79015590D01*
X148719452Y-78780273D01*
X148580380Y-78564149D01*
X148368180Y-78419159D01*
X148116290Y-78368150D01*
X146015710Y-78368150D01*
X145780393Y-78412428D01*
X145564269Y-78551500D01*
X145419279Y-78763700D01*
X145368270Y-79015590D01*
X145368270Y-81055900D01*
X141867202Y-81055900D01*
X141858701Y-81047399D01*
X141612139Y-80882652D01*
X141529492Y-80866212D01*
X141460090Y-80758359D01*
X141247890Y-80613369D01*
X141036534Y-80570568D01*
X143341502Y-78265600D01*
X152813013Y-78265600D01*
X152871860Y-78357051D01*
X153084060Y-78502041D01*
X153335950Y-78553050D01*
X154136050Y-78553050D01*
X154310435Y-78520237D01*
X154558499Y-78768302D01*
X154791820Y-78924201D01*
X154805061Y-78933048D01*
X155095900Y-78990900D01*
X157094600Y-78990900D01*
X157385439Y-78933048D01*
X157632001Y-78768301D01*
X157678241Y-78722061D01*
X157794110Y-78801231D01*
X158046000Y-78852240D01*
X158946000Y-78852240D01*
X159181317Y-78807962D01*
X159397441Y-78668890D01*
X159542431Y-78456690D01*
X159593440Y-78204800D01*
X159593440Y-77004800D01*
X159549162Y-76769483D01*
X159410090Y-76553359D01*
X159341994Y-76506831D01*
X159484327Y-76364498D01*
X159581000Y-76131109D01*
X159581000Y-75690550D01*
X159422250Y-75531800D01*
X158623000Y-75531800D01*
X158623000Y-75551800D01*
X158369000Y-75551800D01*
X158369000Y-75531800D01*
X157569750Y-75531800D01*
X157411000Y-75690550D01*
X157411000Y-76131109D01*
X157507673Y-76364498D01*
X157648910Y-76505736D01*
X157594559Y-76540710D01*
X157449569Y-76752910D01*
X157417584Y-76910855D01*
X157183299Y-77067399D01*
X156779798Y-77470900D01*
X156671050Y-77470900D01*
X156671050Y-77378558D01*
X156512302Y-77378558D01*
X156671050Y-77219810D01*
X156671050Y-76979200D01*
X156574377Y-76745811D01*
X156395748Y-76567183D01*
X156162359Y-76470510D01*
X155921750Y-76470510D01*
X155763000Y-76629260D01*
X155763000Y-77378560D01*
X155783000Y-77378560D01*
X155783000Y-77470900D01*
X155489000Y-77470900D01*
X155489000Y-77378560D01*
X155509000Y-77378560D01*
X155509000Y-76629260D01*
X155362843Y-76483103D01*
X155537491Y-76370720D01*
X155682481Y-76158520D01*
X155733490Y-75906630D01*
X155733490Y-75106530D01*
X155689212Y-74871213D01*
X155681999Y-74860003D01*
X155863511Y-74678491D01*
X157411000Y-74678491D01*
X157411000Y-75119050D01*
X157569750Y-75277800D01*
X158369000Y-75277800D01*
X158369000Y-74328550D01*
X158623000Y-74328550D01*
X158623000Y-75277800D01*
X159422250Y-75277800D01*
X159581000Y-75119050D01*
X159581000Y-74678491D01*
X159484327Y-74445102D01*
X159305699Y-74266473D01*
X159072310Y-74169800D01*
X158781750Y-74169800D01*
X158623000Y-74328550D01*
X158369000Y-74328550D01*
X158210250Y-74169800D01*
X157919690Y-74169800D01*
X157686301Y-74266473D01*
X157507673Y-74445102D01*
X157411000Y-74678491D01*
X155863511Y-74678491D01*
X156493401Y-74048601D01*
X156658148Y-73802040D01*
X156716000Y-73511200D01*
X156716000Y-72896816D01*
X156927792Y-72755301D01*
X157015910Y-72892241D01*
X157228110Y-73037231D01*
X157480000Y-73088240D01*
X159512000Y-73088240D01*
X159747317Y-73043962D01*
X159963441Y-72904890D01*
X160108431Y-72692690D01*
X160159440Y-72440800D01*
X160159440Y-70408800D01*
X160115162Y-70173483D01*
X159976090Y-69957359D01*
X159763890Y-69812369D01*
X159512000Y-69761360D01*
X158013428Y-69761360D01*
X157657634Y-69405566D01*
X157622167Y-69381868D01*
X157448459Y-69265800D01*
X160655000Y-69265800D01*
X160655000Y-74075564D01*
X160655000Y-74075564D01*
G37*
X160655000Y-74075564D02*
X160513532Y-74217032D01*
X160365043Y-74439262D01*
X160312900Y-74701400D01*
X160314163Y-74707750D01*
X160312900Y-74714100D01*
X160312900Y-112255300D01*
X160365043Y-112517438D01*
X160513532Y-112739668D01*
X160627832Y-112853968D01*
X160655000Y-112872121D01*
X160655000Y-118033800D01*
X155845236Y-118033800D01*
X155729168Y-117917732D01*
X155506938Y-117769243D01*
X155244800Y-117717100D01*
X117627400Y-117717100D01*
X117365262Y-117769243D01*
X117143032Y-117917732D01*
X117065478Y-118033800D01*
X111887000Y-118033800D01*
X111887000Y-113041550D01*
X111977668Y-112980968D01*
X112126157Y-112758738D01*
X112178300Y-112496600D01*
X112178300Y-110785774D01*
X112809421Y-110785774D01*
X113011172Y-111196663D01*
X113351862Y-111483902D01*
X113776540Y-111618900D01*
X114051540Y-111618900D01*
X114051540Y-110610900D01*
X114305540Y-110610900D01*
X114305540Y-111618900D01*
X114580540Y-111618900D01*
X115005218Y-111483902D01*
X115345908Y-111196663D01*
X115547659Y-110785774D01*
X115421494Y-110610900D01*
X114305540Y-110610900D01*
X114051540Y-110610900D01*
X112935586Y-110610900D01*
X112809421Y-110785774D01*
X112178300Y-110785774D01*
X112178300Y-110182026D01*
X112809421Y-110182026D01*
X112935586Y-110356900D01*
X114051540Y-110356900D01*
X114051540Y-109348900D01*
X114305540Y-109348900D01*
X114305540Y-110356900D01*
X115421494Y-110356900D01*
X115547659Y-110182026D01*
X115352731Y-109785031D01*
X115777311Y-109785031D01*
X115918972Y-110194949D01*
X116206719Y-110519452D01*
X116580602Y-110703168D01*
X116751540Y-110576634D01*
X116751540Y-109610900D01*
X117005540Y-109610900D01*
X117005540Y-110576634D01*
X117176478Y-110703168D01*
X117550361Y-110519452D01*
X117838108Y-110194949D01*
X117979769Y-109785031D01*
X117831103Y-109610900D01*
X117005540Y-109610900D01*
X116751540Y-109610900D01*
X115925977Y-109610900D01*
X115777311Y-109785031D01*
X115352731Y-109785031D01*
X115345908Y-109771137D01*
X115005218Y-109483898D01*
X114580540Y-109348900D01*
X114305540Y-109348900D01*
X114051540Y-109348900D01*
X113776540Y-109348900D01*
X113351862Y-109483898D01*
X113011172Y-109771137D01*
X112809421Y-110182026D01*
X112178300Y-110182026D01*
X112178300Y-95936490D01*
X112395000Y-95936490D01*
X112395000Y-96793050D01*
X112553750Y-96951800D01*
X113919000Y-96951800D01*
X113919000Y-95586550D01*
X114173000Y-95586550D01*
X114173000Y-96951800D01*
X115538250Y-96951800D01*
X115697000Y-96793050D01*
X115697000Y-95936490D01*
X115600327Y-95703101D01*
X115421698Y-95524473D01*
X115188309Y-95427800D01*
X114331750Y-95427800D01*
X114173000Y-95586550D01*
X113919000Y-95586550D01*
X113760250Y-95427800D01*
X112903691Y-95427800D01*
X112670302Y-95524473D01*
X112491673Y-95703101D01*
X112395000Y-95936490D01*
X112178300Y-95936490D01*
X112178300Y-91057968D01*
X112712633Y-91592301D01*
X112712269Y-92008886D01*
X112914854Y-92499180D01*
X113289647Y-92874627D01*
X113779587Y-93078068D01*
X114310086Y-93078531D01*
X114800380Y-92875946D01*
X115175827Y-92501153D01*
X115379268Y-92011213D01*
X115379731Y-91480714D01*
X115177146Y-90990420D01*
X114802353Y-90614973D01*
X114464554Y-90474706D01*
X114800380Y-90335946D01*
X115175827Y-89961153D01*
X115379268Y-89471213D01*
X115379731Y-88940714D01*
X115177146Y-88450420D01*
X114802353Y-88074973D01*
X114647663Y-88010740D01*
X114744500Y-88010740D01*
X114979817Y-87966462D01*
X115195941Y-87827390D01*
X115340931Y-87615190D01*
X115391940Y-87363300D01*
X115391940Y-85966300D01*
X115347662Y-85730983D01*
X115208590Y-85514859D01*
X114996390Y-85369869D01*
X114744500Y-85318860D01*
X114537966Y-85318860D01*
X114630327Y-85226498D01*
X114727000Y-84993109D01*
X114727000Y-84552550D01*
X114568250Y-84393800D01*
X113919000Y-84393800D01*
X113919000Y-84413800D01*
X113665000Y-84413800D01*
X113665000Y-84393800D01*
X113015750Y-84393800D01*
X112857000Y-84552550D01*
X112857000Y-84993109D01*
X112953673Y-85226498D01*
X113098875Y-85371701D01*
X112896059Y-85502210D01*
X112751069Y-85714410D01*
X112700060Y-85966300D01*
X112700060Y-87363300D01*
X112744338Y-87598617D01*
X112883410Y-87814741D01*
X113095610Y-87959731D01*
X113347500Y-88010740D01*
X113443884Y-88010740D01*
X113291620Y-88073654D01*
X112916173Y-88448447D01*
X112712732Y-88938387D01*
X112712421Y-89294233D01*
X112634041Y-89241861D01*
X112620693Y-89239206D01*
X112602627Y-89221108D01*
X112259099Y-89078462D01*
X112178300Y-89078392D01*
X112178300Y-83540491D01*
X112857000Y-83540491D01*
X112857000Y-83981050D01*
X113015750Y-84139800D01*
X113665000Y-84139800D01*
X113665000Y-83190550D01*
X113919000Y-83190550D01*
X113919000Y-84139800D01*
X114568250Y-84139800D01*
X114727000Y-83981050D01*
X114727000Y-83540491D01*
X114630327Y-83307102D01*
X114451699Y-83128473D01*
X114218310Y-83031800D01*
X114077750Y-83031800D01*
X113919000Y-83190550D01*
X113665000Y-83190550D01*
X113506250Y-83031800D01*
X113365690Y-83031800D01*
X113132301Y-83128473D01*
X112953673Y-83307102D01*
X112857000Y-83540491D01*
X112178300Y-83540491D01*
X112178300Y-81296550D01*
X116592000Y-81296550D01*
X116592000Y-81737109D01*
X116688673Y-81970498D01*
X116867301Y-82149127D01*
X117100690Y-82245800D01*
X117316250Y-82245800D01*
X117475000Y-82087050D01*
X117475000Y-81137800D01*
X117729000Y-81137800D01*
X117729000Y-82087050D01*
X117887750Y-82245800D01*
X118103310Y-82245800D01*
X118336699Y-82149127D01*
X118515327Y-81970498D01*
X118612000Y-81737109D01*
X118612000Y-81296550D01*
X118453250Y-81137800D01*
X117729000Y-81137800D01*
X117475000Y-81137800D01*
X116750750Y-81137800D01*
X116592000Y-81296550D01*
X112178300Y-81296550D01*
X112178300Y-75069700D01*
X112175774Y-75057000D01*
X112178300Y-75044300D01*
X112126157Y-74782162D01*
X111977668Y-74559932D01*
X111939395Y-74534359D01*
X111887000Y-74481964D01*
X111887000Y-72926198D01*
X111924600Y-72982470D01*
X112008766Y-73108434D01*
X112382560Y-73482228D01*
X112382560Y-74980800D01*
X112426838Y-75216117D01*
X112565910Y-75432241D01*
X112778110Y-75577231D01*
X113030000Y-75628240D01*
X115062000Y-75628240D01*
X115297317Y-75583962D01*
X115513441Y-75444890D01*
X115658431Y-75232690D01*
X115709440Y-74980800D01*
X115709440Y-74163042D01*
X116642400Y-75096002D01*
X116642400Y-75234800D01*
X116700252Y-75525639D01*
X116864999Y-75772201D01*
X117111561Y-75936948D01*
X117175757Y-75949718D01*
X117263640Y-76086291D01*
X117475840Y-76231281D01*
X117727730Y-76282290D01*
X118527830Y-76282290D01*
X118763147Y-76238012D01*
X118979271Y-76098940D01*
X119079270Y-75952587D01*
X119079270Y-76584850D01*
X119123548Y-76820167D01*
X119262620Y-77036291D01*
X119474820Y-77181281D01*
X119726710Y-77232290D01*
X120526810Y-77232290D01*
X120762127Y-77188012D01*
X120978251Y-77048940D01*
X121049407Y-76944800D01*
X126399698Y-76944800D01*
X128161098Y-78706200D01*
X127784963Y-78706200D01*
X127752827Y-78674008D01*
X127409299Y-78531362D01*
X127037333Y-78531038D01*
X126693557Y-78673083D01*
X126430308Y-78935873D01*
X126287662Y-79279401D01*
X126287338Y-79651367D01*
X126429383Y-79995143D01*
X126692173Y-80258392D01*
X127035701Y-80401038D01*
X127407667Y-80401362D01*
X127751443Y-80259317D01*
X127784618Y-80226200D01*
X128817898Y-80226200D01*
X129587058Y-80995360D01*
X129024000Y-80995360D01*
X128788683Y-81039638D01*
X128572559Y-81178710D01*
X128526031Y-81246806D01*
X128383698Y-81104473D01*
X128150309Y-81007800D01*
X127709750Y-81007800D01*
X127551000Y-81166550D01*
X127551000Y-81965800D01*
X127571000Y-81965800D01*
X127571000Y-82219800D01*
X127551000Y-82219800D01*
X127551000Y-83019050D01*
X127709750Y-83177800D01*
X128150309Y-83177800D01*
X128383698Y-83081127D01*
X128524936Y-82939890D01*
X128559910Y-82994241D01*
X128772110Y-83139231D01*
X128930055Y-83171216D01*
X129005924Y-83284761D01*
X128788683Y-83325638D01*
X128572559Y-83464710D01*
X128526031Y-83532806D01*
X128383698Y-83390473D01*
X128150309Y-83293800D01*
X127709750Y-83293800D01*
X127551000Y-83452550D01*
X127551000Y-84251800D01*
X127571000Y-84251800D01*
X127571000Y-84394200D01*
X125484102Y-84394200D01*
X125165722Y-84075820D01*
X125165762Y-84030333D01*
X125071620Y-83802490D01*
X126189000Y-83802490D01*
X126189000Y-84093050D01*
X126347750Y-84251800D01*
X127297000Y-84251800D01*
X127297000Y-83452550D01*
X127138250Y-83293800D01*
X126697691Y-83293800D01*
X126464302Y-83390473D01*
X126285673Y-83569101D01*
X126189000Y-83802490D01*
X125071620Y-83802490D01*
X125023717Y-83686557D01*
X124760927Y-83423308D01*
X124417399Y-83280662D01*
X124045433Y-83280338D01*
X123701657Y-83422383D01*
X123438408Y-83685173D01*
X123295762Y-84028701D01*
X123295438Y-84400667D01*
X123437483Y-84744443D01*
X123700273Y-85007692D01*
X124043801Y-85150338D01*
X124090677Y-85150379D01*
X124631899Y-85691601D01*
X124878460Y-85856348D01*
X125169300Y-85914200D01*
X126282995Y-85914200D01*
X126519973Y-86151592D01*
X126863501Y-86294238D01*
X127235467Y-86294562D01*
X127579243Y-86152517D01*
X127817976Y-85914200D01*
X129623900Y-85914200D01*
X129914739Y-85856348D01*
X130161301Y-85691601D01*
X130161401Y-85691501D01*
X130316916Y-85458757D01*
X130459317Y-85431962D01*
X130675441Y-85292890D01*
X130820431Y-85080690D01*
X130871440Y-84828800D01*
X130871440Y-83928800D01*
X130827162Y-83693483D01*
X130785089Y-83628100D01*
X131219798Y-83628100D01*
X133802124Y-86210426D01*
X133795683Y-86211638D01*
X133655273Y-86301990D01*
X133532890Y-86218369D01*
X133458192Y-86203242D01*
X133434750Y-86179800D01*
X133404690Y-86179800D01*
X133384247Y-86188268D01*
X133281000Y-86167360D01*
X133031000Y-86167360D01*
X132795683Y-86211638D01*
X132579559Y-86350710D01*
X132434569Y-86562910D01*
X132383560Y-86814800D01*
X132383560Y-87315000D01*
X125957600Y-87315000D01*
X125666761Y-87372852D01*
X125420199Y-87537599D01*
X124902000Y-88055798D01*
X122478901Y-85632699D01*
X122232339Y-85467952D01*
X121941500Y-85410100D01*
X121473440Y-85410100D01*
X121473440Y-84944800D01*
X121429162Y-84709483D01*
X121290090Y-84493359D01*
X121077890Y-84348369D01*
X120919945Y-84316384D01*
X120917200Y-84312276D01*
X120917200Y-81933839D01*
X121008731Y-81874940D01*
X121153721Y-81662740D01*
X121204730Y-81410850D01*
X121204730Y-80776545D01*
X121292080Y-80912291D01*
X121504280Y-81057281D01*
X121756170Y-81108290D01*
X122556270Y-81108290D01*
X122791587Y-81064012D01*
X122802797Y-81056799D01*
X123572699Y-81826701D01*
X123819260Y-81991448D01*
X124110100Y-82049300D01*
X125869737Y-82049300D01*
X125901873Y-82081492D01*
X126189000Y-82200718D01*
X126189000Y-82219802D01*
X126234959Y-82219802D01*
X126245401Y-82224138D01*
X126343327Y-82224223D01*
X126189000Y-82378550D01*
X126189000Y-82669110D01*
X126285673Y-82902499D01*
X126464302Y-83081127D01*
X126697691Y-83177800D01*
X127138250Y-83177800D01*
X127297000Y-83019050D01*
X127297000Y-82219800D01*
X127277000Y-82219800D01*
X127277000Y-81965800D01*
X127297000Y-81965800D01*
X127297000Y-81644768D01*
X127367038Y-81476099D01*
X127367362Y-81104133D01*
X127225317Y-80760357D01*
X126962527Y-80497108D01*
X126618999Y-80354462D01*
X126247033Y-80354138D01*
X125903257Y-80496183D01*
X125870082Y-80529300D01*
X125229125Y-80529300D01*
X125475943Y-80427317D01*
X125739192Y-80164527D01*
X125881838Y-79820999D01*
X125882162Y-79449033D01*
X125740117Y-79105257D01*
X125477327Y-78842008D01*
X125133799Y-78699362D01*
X125086923Y-78699321D01*
X124237001Y-77849399D01*
X123990439Y-77684652D01*
X123699600Y-77626800D01*
X121516000Y-77626800D01*
X121225161Y-77684652D01*
X120978599Y-77849399D01*
X120729762Y-78098236D01*
X120557290Y-78063310D01*
X119757190Y-78063310D01*
X119521873Y-78107588D01*
X119305749Y-78246660D01*
X119160759Y-78458860D01*
X119150226Y-78510874D01*
X118997239Y-78408652D01*
X118706400Y-78350800D01*
X118594334Y-78350800D01*
X118580162Y-78275483D01*
X118441090Y-78059359D01*
X118228890Y-77914369D01*
X117977000Y-77863360D01*
X117227000Y-77863360D01*
X116991683Y-77907638D01*
X116858829Y-77993127D01*
X115595101Y-76729399D01*
X115348539Y-76564652D01*
X115057700Y-76506800D01*
X114709334Y-76506800D01*
X114695162Y-76431483D01*
X114556090Y-76215359D01*
X114343890Y-76070369D01*
X114092000Y-76019360D01*
X113492000Y-76019360D01*
X113256683Y-76063638D01*
X113040559Y-76202710D01*
X112895569Y-76414910D01*
X112844560Y-76666800D01*
X112844560Y-77866800D01*
X112888838Y-78102117D01*
X113027910Y-78318241D01*
X113240110Y-78463231D01*
X113492000Y-78514240D01*
X114092000Y-78514240D01*
X114327317Y-78469962D01*
X114543441Y-78330890D01*
X114688431Y-78118690D01*
X114707039Y-78026800D01*
X114742898Y-78026800D01*
X116364299Y-79648201D01*
X116597043Y-79803715D01*
X116623838Y-79946117D01*
X116690329Y-80049446D01*
X116688673Y-80051102D01*
X116592000Y-80284491D01*
X116592000Y-80725050D01*
X116750750Y-80883800D01*
X117475000Y-80883800D01*
X117475000Y-80863800D01*
X117729000Y-80863800D01*
X117729000Y-80883800D01*
X118453250Y-80883800D01*
X118612000Y-80725050D01*
X118612000Y-80284491D01*
X118515327Y-80051102D01*
X118513957Y-80049732D01*
X118536921Y-80016123D01*
X118671800Y-80151002D01*
X118671800Y-82898898D01*
X117488599Y-84082099D01*
X117333085Y-84314843D01*
X117190683Y-84341638D01*
X116974559Y-84480710D01*
X116829569Y-84692910D01*
X116778560Y-84944800D01*
X116778560Y-85844800D01*
X116822838Y-86080117D01*
X116961910Y-86296241D01*
X117174110Y-86441231D01*
X117426000Y-86492240D01*
X118626000Y-86492240D01*
X118861317Y-86447962D01*
X119077441Y-86308890D01*
X119125134Y-86239089D01*
X119161910Y-86296241D01*
X119374110Y-86441231D01*
X119532055Y-86473216D01*
X119688599Y-86707501D01*
X119935161Y-86872248D01*
X120226000Y-86930100D01*
X121626698Y-86930100D01*
X123653398Y-88956800D01*
X123287750Y-88956800D01*
X123129000Y-89115550D01*
X123129000Y-89839800D01*
X123149000Y-89839800D01*
X123149000Y-90034800D01*
X121230669Y-90034800D01*
X121220090Y-90018359D01*
X121007890Y-89873369D01*
X120756000Y-89822360D01*
X119961000Y-89822360D01*
X119961000Y-89465490D01*
X121767000Y-89465490D01*
X121767000Y-89681050D01*
X121925750Y-89839800D01*
X122875000Y-89839800D01*
X122875000Y-89115550D01*
X122716250Y-88956800D01*
X122275691Y-88956800D01*
X122042302Y-89053473D01*
X121863673Y-89232101D01*
X121767000Y-89465490D01*
X119961000Y-89465490D01*
X119961000Y-88657834D01*
X120060838Y-88417399D01*
X120061162Y-88045433D01*
X119919117Y-87701657D01*
X119656327Y-87438408D01*
X119312799Y-87295762D01*
X118940833Y-87295438D01*
X118597057Y-87437483D01*
X118333808Y-87700273D01*
X118191162Y-88043801D01*
X118190838Y-88415767D01*
X118291000Y-88658178D01*
X118291000Y-89814132D01*
X118282772Y-89822360D01*
X117496000Y-89822360D01*
X117260683Y-89866638D01*
X117044559Y-90005710D01*
X116899569Y-90217910D01*
X116848560Y-90469800D01*
X116848560Y-91119800D01*
X116874919Y-91259886D01*
X116861000Y-91293490D01*
X116861000Y-91459050D01*
X117019750Y-91617800D01*
X117100051Y-91617800D01*
X117244110Y-91716231D01*
X117381120Y-91743976D01*
X117260683Y-91766638D01*
X117097257Y-91871800D01*
X117019750Y-91871800D01*
X116861000Y-92030550D01*
X116861000Y-92196110D01*
X116876268Y-92232971D01*
X116848560Y-92369800D01*
X116848560Y-93019800D01*
X116892838Y-93255117D01*
X117031910Y-93471241D01*
X117244110Y-93616231D01*
X117496000Y-93667240D01*
X118556000Y-93667240D01*
X118791317Y-93622962D01*
X118936095Y-93529800D01*
X118956300Y-93529800D01*
X119236145Y-93474135D01*
X119444110Y-93616231D01*
X119696000Y-93667240D01*
X120756000Y-93667240D01*
X120991317Y-93622962D01*
X121207441Y-93483890D01*
X121352431Y-93271690D01*
X121403440Y-93019800D01*
X121403440Y-92513490D01*
X121767000Y-92513490D01*
X121767000Y-92729050D01*
X121925750Y-92887800D01*
X122875000Y-92887800D01*
X122875000Y-92163550D01*
X122716250Y-92004800D01*
X122275691Y-92004800D01*
X122042302Y-92101473D01*
X121863673Y-92280101D01*
X121767000Y-92513490D01*
X121403440Y-92513490D01*
X121403440Y-92369800D01*
X121359162Y-92134483D01*
X121220090Y-91918359D01*
X121007890Y-91773369D01*
X120870880Y-91745624D01*
X120991317Y-91722962D01*
X121207441Y-91583890D01*
X121227317Y-91554800D01*
X124014300Y-91554800D01*
X124014300Y-92070346D01*
X123963354Y-92103129D01*
X123961698Y-92101473D01*
X123728309Y-92004800D01*
X123287750Y-92004800D01*
X123129000Y-92163550D01*
X123129000Y-92887800D01*
X123149000Y-92887800D01*
X123149000Y-93141800D01*
X123129000Y-93141800D01*
X123129000Y-93161800D01*
X122875000Y-93161800D01*
X122875000Y-93141800D01*
X121925750Y-93141800D01*
X121767000Y-93300550D01*
X121767000Y-93516110D01*
X121863673Y-93749499D01*
X122042302Y-93928127D01*
X122275691Y-94024800D01*
X122484598Y-94024800D01*
X120737198Y-95772200D01*
X118882500Y-95772200D01*
X118591661Y-95830052D01*
X118345099Y-95994799D01*
X115503229Y-98836669D01*
X115379034Y-98650799D01*
X115421698Y-98633127D01*
X115600327Y-98454499D01*
X115697000Y-98221110D01*
X115697000Y-97364550D01*
X115538250Y-97205800D01*
X114173000Y-97205800D01*
X114173000Y-97225800D01*
X113919000Y-97225800D01*
X113919000Y-97205800D01*
X112553750Y-97205800D01*
X112395000Y-97364550D01*
X112395000Y-98221110D01*
X112491673Y-98454499D01*
X112670302Y-98633127D01*
X112712966Y-98650799D01*
X112488330Y-98986990D01*
X112362655Y-99618800D01*
X112488330Y-100250610D01*
X112846222Y-100786233D01*
X113381845Y-101144125D01*
X113394380Y-101146618D01*
X112505499Y-102035499D01*
X112340752Y-102282061D01*
X112282900Y-102572900D01*
X112282900Y-104798600D01*
X112340752Y-105089439D01*
X112505499Y-105336001D01*
X115340799Y-108171301D01*
X115568540Y-108323472D01*
X115568540Y-108410902D01*
X115700288Y-108410902D01*
X115568540Y-108542650D01*
X115568540Y-108610210D01*
X115665213Y-108843599D01*
X115835630Y-109014015D01*
X115777311Y-109182769D01*
X115925977Y-109356900D01*
X116751540Y-109356900D01*
X116751540Y-109336900D01*
X117005540Y-109336900D01*
X117005540Y-109356900D01*
X117831103Y-109356900D01*
X117979769Y-109182769D01*
X117921450Y-109014015D01*
X117966974Y-108968491D01*
X119311000Y-108968491D01*
X119311000Y-109409050D01*
X119469750Y-109567800D01*
X120269000Y-109567800D01*
X120269000Y-108618550D01*
X120523000Y-108618550D01*
X120523000Y-109567800D01*
X121322250Y-109567800D01*
X121481000Y-109409050D01*
X121481000Y-109267680D01*
X122220950Y-109267680D01*
X122220950Y-109508290D01*
X122379700Y-109667040D01*
X123129000Y-109667040D01*
X123129000Y-108917740D01*
X122970250Y-108758990D01*
X122729641Y-108758990D01*
X122496252Y-108855663D01*
X122317623Y-109034291D01*
X122220950Y-109267680D01*
X121481000Y-109267680D01*
X121481000Y-108968491D01*
X121384327Y-108735102D01*
X121205699Y-108556473D01*
X120972310Y-108459800D01*
X120681750Y-108459800D01*
X120523000Y-108618550D01*
X120269000Y-108618550D01*
X120110250Y-108459800D01*
X119819690Y-108459800D01*
X119586301Y-108556473D01*
X119407673Y-108735102D01*
X119311000Y-108968491D01*
X117966974Y-108968491D01*
X118091867Y-108843599D01*
X118188540Y-108610210D01*
X118188540Y-108542650D01*
X118056792Y-108410902D01*
X118188540Y-108410902D01*
X118188540Y-108393900D01*
X120921600Y-108393900D01*
X121212439Y-108336048D01*
X121459001Y-108171301D01*
X121547172Y-108083130D01*
X121971071Y-108507073D01*
X121971088Y-108507084D01*
X121971099Y-108507101D01*
X122089331Y-108586101D01*
X122217624Y-108671833D01*
X122217645Y-108671837D01*
X122217661Y-108671848D01*
X122360092Y-108700180D01*
X122508460Y-108729700D01*
X122508480Y-108729696D01*
X122508500Y-108729700D01*
X126302111Y-108729700D01*
X126333761Y-108750848D01*
X126624600Y-108808700D01*
X127496398Y-108808700D01*
X128038399Y-109350701D01*
X128263560Y-109501148D01*
X128263560Y-110444800D01*
X128307838Y-110680117D01*
X128374329Y-110783446D01*
X128372673Y-110785102D01*
X128276000Y-111018491D01*
X128276000Y-111031548D01*
X128065627Y-110820808D01*
X127722099Y-110678162D01*
X127675223Y-110678121D01*
X126604103Y-109607001D01*
X126583448Y-109503161D01*
X126418701Y-109256599D01*
X126172139Y-109091852D01*
X126108005Y-109079095D01*
X126020140Y-108942549D01*
X125807940Y-108797559D01*
X125556050Y-108746550D01*
X124755950Y-108746550D01*
X124520633Y-108790828D01*
X124304509Y-108929900D01*
X124209023Y-109069649D01*
X124194377Y-109034291D01*
X124015748Y-108855663D01*
X123782359Y-108758990D01*
X123541750Y-108758990D01*
X123383000Y-108917740D01*
X123383000Y-109667040D01*
X123403000Y-109667040D01*
X123403000Y-109837598D01*
X123299558Y-109941040D01*
X123129000Y-109941040D01*
X123129000Y-109921040D01*
X122379700Y-109921040D01*
X122220950Y-110079790D01*
X122220950Y-110320400D01*
X122317623Y-110553789D01*
X122496252Y-110732417D01*
X122504687Y-110735911D01*
X122105798Y-111134800D01*
X121463334Y-111134800D01*
X121449162Y-111059483D01*
X121310090Y-110843359D01*
X121241994Y-110796831D01*
X121384327Y-110654498D01*
X121481000Y-110421109D01*
X121481000Y-109980550D01*
X121322250Y-109821800D01*
X120523000Y-109821800D01*
X120523000Y-109841800D01*
X120269000Y-109841800D01*
X120269000Y-109821800D01*
X119469750Y-109821800D01*
X119311000Y-109980550D01*
X119311000Y-110421109D01*
X119407673Y-110654498D01*
X119548910Y-110795736D01*
X119494559Y-110830710D01*
X119349569Y-111042910D01*
X119298560Y-111294800D01*
X119298560Y-112494800D01*
X119342838Y-112730117D01*
X119481910Y-112946241D01*
X119694110Y-113091231D01*
X119946000Y-113142240D01*
X120846000Y-113142240D01*
X121081317Y-113097962D01*
X121136066Y-113062732D01*
X119083998Y-115114800D01*
X118047283Y-115114800D01*
X117753433Y-114675022D01*
X117217810Y-114317130D01*
X116586000Y-114191455D01*
X115954190Y-114317130D01*
X115614208Y-114544299D01*
X115526090Y-114407359D01*
X115313890Y-114262369D01*
X115062000Y-114211360D01*
X113030000Y-114211360D01*
X112794683Y-114255638D01*
X112578559Y-114394710D01*
X112433569Y-114606910D01*
X112382560Y-114858800D01*
X112382560Y-116890800D01*
X112426838Y-117126117D01*
X112565910Y-117342241D01*
X112778110Y-117487231D01*
X113030000Y-117538240D01*
X115062000Y-117538240D01*
X115297317Y-117493962D01*
X115513441Y-117354890D01*
X115615198Y-117205963D01*
X115954190Y-117432470D01*
X116586000Y-117558145D01*
X117217810Y-117432470D01*
X117753433Y-117074578D01*
X118047283Y-116634800D01*
X119398800Y-116634800D01*
X119689639Y-116576948D01*
X119936201Y-116412201D01*
X120658347Y-115690055D01*
X121437400Y-115690055D01*
X121437400Y-116059545D01*
X121551474Y-116633034D01*
X121876330Y-117119215D01*
X122362511Y-117444071D01*
X122936000Y-117558145D01*
X123509489Y-117444071D01*
X123995670Y-117119215D01*
X124206000Y-116804434D01*
X124416330Y-117119215D01*
X124902511Y-117444071D01*
X125476000Y-117558145D01*
X126049489Y-117444071D01*
X126535670Y-117119215D01*
X126550500Y-117097020D01*
X126614073Y-117250498D01*
X126792701Y-117429127D01*
X127026090Y-117525800D01*
X127730250Y-117525800D01*
X127889000Y-117367050D01*
X127889000Y-116001800D01*
X128143000Y-116001800D01*
X128143000Y-117367050D01*
X128301750Y-117525800D01*
X129005910Y-117525800D01*
X129239299Y-117429127D01*
X129417927Y-117250498D01*
X129514600Y-117017109D01*
X129514600Y-116160550D01*
X129355850Y-116001800D01*
X128143000Y-116001800D01*
X127889000Y-116001800D01*
X127869000Y-116001800D01*
X127869000Y-115747800D01*
X127889000Y-115747800D01*
X127889000Y-114382550D01*
X128143000Y-114382550D01*
X128143000Y-115747800D01*
X129355850Y-115747800D01*
X129514600Y-115589050D01*
X129514600Y-114732491D01*
X129417927Y-114499102D01*
X129239299Y-114320473D01*
X129005910Y-114223800D01*
X128301750Y-114223800D01*
X128143000Y-114382550D01*
X127889000Y-114382550D01*
X127730250Y-114223800D01*
X127026090Y-114223800D01*
X126792701Y-114320473D01*
X126614073Y-114499102D01*
X126550500Y-114652580D01*
X126535670Y-114630385D01*
X126049489Y-114305529D01*
X125476000Y-114191455D01*
X124902511Y-114305529D01*
X124416330Y-114630385D01*
X124206000Y-114945166D01*
X123995670Y-114630385D01*
X123509489Y-114305529D01*
X122936000Y-114191455D01*
X122362511Y-114305529D01*
X121876330Y-114630385D01*
X121551474Y-115116566D01*
X121437400Y-115690055D01*
X120658347Y-115690055D01*
X123558086Y-112790316D01*
X123805950Y-112840510D01*
X124606050Y-112840510D01*
X124841367Y-112796232D01*
X125057491Y-112657160D01*
X125202481Y-112444960D01*
X125253490Y-112193070D01*
X125253490Y-111392970D01*
X125209212Y-111157653D01*
X125070140Y-110941529D01*
X124923787Y-110841530D01*
X125556050Y-110841530D01*
X125667969Y-110820471D01*
X126600178Y-111752680D01*
X126600138Y-111798167D01*
X126742183Y-112141943D01*
X127004973Y-112405192D01*
X127348501Y-112547838D01*
X127720467Y-112548162D01*
X128064243Y-112406117D01*
X128276000Y-112194729D01*
X128276000Y-112471109D01*
X128372673Y-112704498D01*
X128551301Y-112883127D01*
X128784690Y-112979800D01*
X129000250Y-112979800D01*
X129159000Y-112821050D01*
X129159000Y-111871800D01*
X129413000Y-111871800D01*
X129413000Y-112821050D01*
X129571750Y-112979800D01*
X129787310Y-112979800D01*
X130020699Y-112883127D01*
X130199327Y-112704498D01*
X130296000Y-112471109D01*
X130296000Y-112030550D01*
X130137250Y-111871800D01*
X129413000Y-111871800D01*
X129159000Y-111871800D01*
X129139000Y-111871800D01*
X129139000Y-111617800D01*
X129159000Y-111617800D01*
X129159000Y-111597800D01*
X129413000Y-111597800D01*
X129413000Y-111617800D01*
X130137250Y-111617800D01*
X130296000Y-111459050D01*
X130296000Y-111018491D01*
X130199327Y-110785102D01*
X130197957Y-110783732D01*
X130257431Y-110696690D01*
X130267438Y-110647275D01*
X130586201Y-110779638D01*
X130958167Y-110779962D01*
X131301943Y-110637917D01*
X131565192Y-110375127D01*
X131707838Y-110031599D01*
X131708162Y-109659633D01*
X131672490Y-109573300D01*
X132029398Y-109573300D01*
X133663308Y-111207210D01*
X133634559Y-111225710D01*
X133489569Y-111437910D01*
X133438560Y-111689800D01*
X133438560Y-112334796D01*
X133141299Y-112211362D01*
X132769333Y-112211038D01*
X132425557Y-112353083D01*
X132162308Y-112615873D01*
X132019662Y-112959401D01*
X132019338Y-113331367D01*
X132161383Y-113675143D01*
X132424173Y-113938392D01*
X132767701Y-114081038D01*
X133139667Y-114081362D01*
X133483443Y-113939317D01*
X133516618Y-113906200D01*
X134304900Y-113906200D01*
X134595739Y-113848348D01*
X134842301Y-113683601D01*
X135000802Y-113525100D01*
X139451198Y-113525100D01*
X139956000Y-114029902D01*
X139956000Y-114430152D01*
X139656330Y-114630385D01*
X139446000Y-114945166D01*
X139235670Y-114630385D01*
X138749489Y-114305529D01*
X138176000Y-114191455D01*
X137602511Y-114305529D01*
X137116330Y-114630385D01*
X136906000Y-114945166D01*
X136695670Y-114630385D01*
X136209489Y-114305529D01*
X135636000Y-114191455D01*
X135062511Y-114305529D01*
X134576330Y-114630385D01*
X134251474Y-115116566D01*
X134137400Y-115690055D01*
X134137400Y-116059545D01*
X134251474Y-116633034D01*
X134576330Y-117119215D01*
X135062511Y-117444071D01*
X135636000Y-117558145D01*
X136209489Y-117444071D01*
X136695670Y-117119215D01*
X136906000Y-116804434D01*
X137116330Y-117119215D01*
X137602511Y-117444071D01*
X138176000Y-117558145D01*
X138749489Y-117444071D01*
X139235670Y-117119215D01*
X139446000Y-116804434D01*
X139656330Y-117119215D01*
X140142511Y-117444071D01*
X140716000Y-117558145D01*
X141289489Y-117444071D01*
X141775670Y-117119215D01*
X141790500Y-117097020D01*
X141854073Y-117250498D01*
X142032701Y-117429127D01*
X142266090Y-117525800D01*
X142970250Y-117525800D01*
X143129000Y-117367050D01*
X143129000Y-116001800D01*
X143383000Y-116001800D01*
X143383000Y-117367050D01*
X143541750Y-117525800D01*
X144245910Y-117525800D01*
X144479299Y-117429127D01*
X144657927Y-117250498D01*
X144754600Y-117017109D01*
X144754600Y-116160550D01*
X144595850Y-116001800D01*
X143383000Y-116001800D01*
X143129000Y-116001800D01*
X143109000Y-116001800D01*
X143109000Y-115747800D01*
X143129000Y-115747800D01*
X143129000Y-114382550D01*
X143383000Y-114382550D01*
X143383000Y-115747800D01*
X144595850Y-115747800D01*
X144754600Y-115589050D01*
X144754600Y-114732491D01*
X144657927Y-114499102D01*
X144479299Y-114320473D01*
X144245910Y-114223800D01*
X143541750Y-114223800D01*
X143383000Y-114382550D01*
X143129000Y-114382550D01*
X142970250Y-114223800D01*
X142266090Y-114223800D01*
X142032701Y-114320473D01*
X141854073Y-114499102D01*
X141790500Y-114652580D01*
X141775670Y-114630385D01*
X141476000Y-114430152D01*
X141476000Y-114029902D01*
X142203401Y-113302501D01*
X142358915Y-113069757D01*
X142501317Y-113042962D01*
X142717441Y-112903890D01*
X142862431Y-112691690D01*
X142913440Y-112439800D01*
X142913440Y-111689800D01*
X142869162Y-111454483D01*
X142779150Y-111314600D01*
X145148800Y-111314600D01*
X145439639Y-111256748D01*
X145686201Y-111092001D01*
X146360101Y-110418101D01*
X146524848Y-110171539D01*
X146582700Y-109880700D01*
X146582700Y-101551200D01*
X146524848Y-101260361D01*
X146360101Y-101013799D01*
X145763701Y-100417399D01*
X145670763Y-100355300D01*
X146020098Y-100355300D01*
X149798560Y-104133762D01*
X149798560Y-104894800D01*
X149842838Y-105130117D01*
X149981910Y-105346241D01*
X150194110Y-105491231D01*
X150446000Y-105542240D01*
X151211400Y-105542240D01*
X151211400Y-109945700D01*
X151269252Y-110236539D01*
X151419626Y-110461591D01*
X151418759Y-110462860D01*
X151367750Y-110714750D01*
X151367750Y-111514850D01*
X151400563Y-111689235D01*
X151152499Y-111937299D01*
X150987752Y-112183861D01*
X150929900Y-112474700D01*
X150929900Y-114473400D01*
X150987752Y-114764239D01*
X151152499Y-115010801D01*
X151198739Y-115057041D01*
X151119569Y-115172910D01*
X151068560Y-115424800D01*
X151068560Y-116324800D01*
X151112838Y-116560117D01*
X151251910Y-116776241D01*
X151464110Y-116921231D01*
X151716000Y-116972240D01*
X152916000Y-116972240D01*
X153151317Y-116927962D01*
X153367441Y-116788890D01*
X153413969Y-116720794D01*
X153556302Y-116863127D01*
X153789691Y-116959800D01*
X154230250Y-116959800D01*
X154389000Y-116801050D01*
X154389000Y-116001800D01*
X154643000Y-116001800D01*
X154643000Y-116801050D01*
X154801750Y-116959800D01*
X155242309Y-116959800D01*
X155475698Y-116863127D01*
X155654327Y-116684499D01*
X155751000Y-116451110D01*
X155751000Y-116160550D01*
X155592250Y-116001800D01*
X154643000Y-116001800D01*
X154389000Y-116001800D01*
X154369000Y-116001800D01*
X154369000Y-115747800D01*
X154389000Y-115747800D01*
X154389000Y-114948550D01*
X154643000Y-114948550D01*
X154643000Y-115747800D01*
X155592250Y-115747800D01*
X155751000Y-115589050D01*
X155751000Y-115298490D01*
X155654327Y-115065101D01*
X155475698Y-114886473D01*
X155242309Y-114789800D01*
X154801750Y-114789800D01*
X154643000Y-114948550D01*
X154389000Y-114948550D01*
X154230250Y-114789800D01*
X153789691Y-114789800D01*
X153556302Y-114886473D01*
X153415064Y-115027710D01*
X153380090Y-114973359D01*
X153167890Y-114828369D01*
X153009945Y-114796384D01*
X152853401Y-114562099D01*
X152449900Y-114158598D01*
X152449900Y-114049850D01*
X152542242Y-114049850D01*
X152542242Y-113891102D01*
X152700990Y-114049850D01*
X152941600Y-114049850D01*
X153174989Y-113953177D01*
X153353617Y-113774548D01*
X153450290Y-113541159D01*
X153450290Y-113300550D01*
X153291540Y-113141800D01*
X152542240Y-113141800D01*
X152542240Y-113161800D01*
X152449900Y-113161800D01*
X152449900Y-112867800D01*
X152542240Y-112867800D01*
X152542240Y-112887800D01*
X153291540Y-112887800D01*
X153437697Y-112741643D01*
X153550080Y-112916291D01*
X153762280Y-113061281D01*
X154014170Y-113112290D01*
X154658688Y-113112290D01*
X156913619Y-115367221D01*
X156812655Y-115874800D01*
X156938330Y-116506610D01*
X157296222Y-117042233D01*
X157831845Y-117400125D01*
X158463655Y-117525800D01*
X158528345Y-117525800D01*
X159160155Y-117400125D01*
X159695778Y-117042233D01*
X160053670Y-116506610D01*
X160179345Y-115874800D01*
X160053670Y-115242990D01*
X159826501Y-114903008D01*
X159963441Y-114814890D01*
X160108431Y-114602690D01*
X160159440Y-114350800D01*
X160159440Y-112318800D01*
X160115162Y-112083483D01*
X159976090Y-111867359D01*
X159763890Y-111722369D01*
X159512000Y-111671360D01*
X157480000Y-111671360D01*
X157244683Y-111715638D01*
X157028559Y-111854710D01*
X156883569Y-112066910D01*
X156832560Y-112318800D01*
X156832560Y-113136558D01*
X155899600Y-112203598D01*
X155899600Y-112064800D01*
X155841748Y-111773961D01*
X155677001Y-111527399D01*
X155430439Y-111362652D01*
X155366243Y-111349882D01*
X155278360Y-111213309D01*
X155066160Y-111068319D01*
X154814270Y-111017310D01*
X154014170Y-111017310D01*
X153778853Y-111061588D01*
X153562729Y-111200660D01*
X153462730Y-111347013D01*
X153462730Y-110714750D01*
X153418452Y-110479433D01*
X153279380Y-110263309D01*
X153129764Y-110161081D01*
X153117348Y-110098661D01*
X152952601Y-109852099D01*
X152731400Y-109630898D01*
X152731400Y-105529800D01*
X152960250Y-105529800D01*
X153119000Y-105371050D01*
X153119000Y-104571800D01*
X153373000Y-104571800D01*
X153373000Y-105371050D01*
X153531750Y-105529800D01*
X153972309Y-105529800D01*
X154205698Y-105433127D01*
X154384327Y-105254499D01*
X154481000Y-105021110D01*
X154481000Y-104730550D01*
X154322250Y-104571800D01*
X153373000Y-104571800D01*
X153119000Y-104571800D01*
X153099000Y-104571800D01*
X153099000Y-104317800D01*
X153119000Y-104317800D01*
X153119000Y-103518550D01*
X153373000Y-103518550D01*
X153373000Y-104317800D01*
X154322250Y-104317800D01*
X154481000Y-104159050D01*
X154481000Y-103868490D01*
X154384327Y-103635101D01*
X154205698Y-103456473D01*
X153972309Y-103359800D01*
X153531750Y-103359800D01*
X153373000Y-103518550D01*
X153119000Y-103518550D01*
X152960250Y-103359800D01*
X152589117Y-103359800D01*
X152508801Y-103239599D01*
X151488101Y-102218899D01*
X151306102Y-102097291D01*
X151372646Y-102054471D01*
X151374302Y-102056127D01*
X151607691Y-102152800D01*
X152048250Y-102152800D01*
X152207000Y-101994050D01*
X152207000Y-101269800D01*
X152461000Y-101269800D01*
X152461000Y-101994050D01*
X152619750Y-102152800D01*
X153060309Y-102152800D01*
X153293698Y-102056127D01*
X153472327Y-101877499D01*
X153569000Y-101644110D01*
X153569000Y-101428550D01*
X153410250Y-101269800D01*
X152461000Y-101269800D01*
X152207000Y-101269800D01*
X152187000Y-101269800D01*
X152187000Y-101015800D01*
X152207000Y-101015800D01*
X152207000Y-100291550D01*
X152461000Y-100291550D01*
X152461000Y-101015800D01*
X153410250Y-101015800D01*
X153569000Y-100857050D01*
X153569000Y-100641490D01*
X153472327Y-100408101D01*
X153293698Y-100229473D01*
X153060309Y-100132800D01*
X152619750Y-100132800D01*
X152461000Y-100291550D01*
X152207000Y-100291550D01*
X152048250Y-100132800D01*
X151607691Y-100132800D01*
X151374302Y-100229473D01*
X151372932Y-100230843D01*
X151285890Y-100171369D01*
X151127945Y-100139384D01*
X150971401Y-99905099D01*
X150724839Y-99740352D01*
X150434000Y-99682500D01*
X150249202Y-99682500D01*
X148881252Y-98314550D01*
X151390000Y-98314550D01*
X151390000Y-98755109D01*
X151486673Y-98988498D01*
X151665301Y-99167127D01*
X151898690Y-99263800D01*
X152114250Y-99263800D01*
X152273000Y-99105050D01*
X152273000Y-98155800D01*
X152527000Y-98155800D01*
X152527000Y-99105050D01*
X152685750Y-99263800D01*
X152901310Y-99263800D01*
X153134699Y-99167127D01*
X153313327Y-98988498D01*
X153410000Y-98755109D01*
X153410000Y-98314550D01*
X153251250Y-98155800D01*
X152527000Y-98155800D01*
X152273000Y-98155800D01*
X151548750Y-98155800D01*
X151390000Y-98314550D01*
X148881252Y-98314550D01*
X148201327Y-97634625D01*
X148201576Y-97349250D01*
X148029089Y-96931799D01*
X147986165Y-96888800D01*
X151407666Y-96888800D01*
X151421838Y-96964117D01*
X151488329Y-97067446D01*
X151486673Y-97069102D01*
X151390000Y-97302491D01*
X151390000Y-97743050D01*
X151548750Y-97901800D01*
X152273000Y-97901800D01*
X152273000Y-97881800D01*
X152527000Y-97881800D01*
X152527000Y-97901800D01*
X153251250Y-97901800D01*
X153410000Y-97743050D01*
X153410000Y-97302491D01*
X153313327Y-97069102D01*
X153311957Y-97067732D01*
X153371431Y-96980690D01*
X153422440Y-96728800D01*
X153422440Y-95528800D01*
X153378162Y-95293483D01*
X153239090Y-95077359D01*
X153026890Y-94932369D01*
X152775000Y-94881360D01*
X152025000Y-94881360D01*
X151789683Y-94925638D01*
X151573559Y-95064710D01*
X151428569Y-95276910D01*
X151409961Y-95368800D01*
X148575028Y-95368800D01*
X148674701Y-95302201D01*
X148979001Y-94997901D01*
X149143748Y-94751340D01*
X149201600Y-94460500D01*
X149201600Y-84810703D01*
X149529743Y-84675117D01*
X149562918Y-84642000D01*
X152318498Y-84642000D01*
X155589878Y-87913380D01*
X155589838Y-87958867D01*
X155731883Y-88302643D01*
X155994673Y-88565892D01*
X156338201Y-88708538D01*
X156710167Y-88708862D01*
X157053943Y-88566817D01*
X157317192Y-88304027D01*
X157459838Y-87960499D01*
X157460162Y-87588533D01*
X157318117Y-87244757D01*
X157055327Y-86981508D01*
X156711799Y-86838862D01*
X156664923Y-86838821D01*
X153170701Y-83344599D01*
X152924139Y-83179852D01*
X152633300Y-83122000D01*
X149563263Y-83122000D01*
X149531127Y-83089808D01*
X149201600Y-82952976D01*
X149201600Y-81815900D01*
X149143748Y-81525061D01*
X148979001Y-81278499D01*
X148763730Y-81134660D01*
X148763730Y-79015590D01*
X148719452Y-78780273D01*
X148580380Y-78564149D01*
X148368180Y-78419159D01*
X148116290Y-78368150D01*
X146015710Y-78368150D01*
X145780393Y-78412428D01*
X145564269Y-78551500D01*
X145419279Y-78763700D01*
X145368270Y-79015590D01*
X145368270Y-81055900D01*
X141867202Y-81055900D01*
X141858701Y-81047399D01*
X141612139Y-80882652D01*
X141529492Y-80866212D01*
X141460090Y-80758359D01*
X141247890Y-80613369D01*
X141036534Y-80570568D01*
X143341502Y-78265600D01*
X152813013Y-78265600D01*
X152871860Y-78357051D01*
X153084060Y-78502041D01*
X153335950Y-78553050D01*
X154136050Y-78553050D01*
X154310435Y-78520237D01*
X154558499Y-78768302D01*
X154791820Y-78924201D01*
X154805061Y-78933048D01*
X155095900Y-78990900D01*
X157094600Y-78990900D01*
X157385439Y-78933048D01*
X157632001Y-78768301D01*
X157678241Y-78722061D01*
X157794110Y-78801231D01*
X158046000Y-78852240D01*
X158946000Y-78852240D01*
X159181317Y-78807962D01*
X159397441Y-78668890D01*
X159542431Y-78456690D01*
X159593440Y-78204800D01*
X159593440Y-77004800D01*
X159549162Y-76769483D01*
X159410090Y-76553359D01*
X159341994Y-76506831D01*
X159484327Y-76364498D01*
X159581000Y-76131109D01*
X159581000Y-75690550D01*
X159422250Y-75531800D01*
X158623000Y-75531800D01*
X158623000Y-75551800D01*
X158369000Y-75551800D01*
X158369000Y-75531800D01*
X157569750Y-75531800D01*
X157411000Y-75690550D01*
X157411000Y-76131109D01*
X157507673Y-76364498D01*
X157648910Y-76505736D01*
X157594559Y-76540710D01*
X157449569Y-76752910D01*
X157417584Y-76910855D01*
X157183299Y-77067399D01*
X156779798Y-77470900D01*
X156671050Y-77470900D01*
X156671050Y-77378558D01*
X156512302Y-77378558D01*
X156671050Y-77219810D01*
X156671050Y-76979200D01*
X156574377Y-76745811D01*
X156395748Y-76567183D01*
X156162359Y-76470510D01*
X155921750Y-76470510D01*
X155763000Y-76629260D01*
X155763000Y-77378560D01*
X155783000Y-77378560D01*
X155783000Y-77470900D01*
X155489000Y-77470900D01*
X155489000Y-77378560D01*
X155509000Y-77378560D01*
X155509000Y-76629260D01*
X155362843Y-76483103D01*
X155537491Y-76370720D01*
X155682481Y-76158520D01*
X155733490Y-75906630D01*
X155733490Y-75106530D01*
X155689212Y-74871213D01*
X155681999Y-74860003D01*
X155863511Y-74678491D01*
X157411000Y-74678491D01*
X157411000Y-75119050D01*
X157569750Y-75277800D01*
X158369000Y-75277800D01*
X158369000Y-74328550D01*
X158623000Y-74328550D01*
X158623000Y-75277800D01*
X159422250Y-75277800D01*
X159581000Y-75119050D01*
X159581000Y-74678491D01*
X159484327Y-74445102D01*
X159305699Y-74266473D01*
X159072310Y-74169800D01*
X158781750Y-74169800D01*
X158623000Y-74328550D01*
X158369000Y-74328550D01*
X158210250Y-74169800D01*
X157919690Y-74169800D01*
X157686301Y-74266473D01*
X157507673Y-74445102D01*
X157411000Y-74678491D01*
X155863511Y-74678491D01*
X156493401Y-74048601D01*
X156658148Y-73802040D01*
X156716000Y-73511200D01*
X156716000Y-72896816D01*
X156927792Y-72755301D01*
X157015910Y-72892241D01*
X157228110Y-73037231D01*
X157480000Y-73088240D01*
X159512000Y-73088240D01*
X159747317Y-73043962D01*
X159963441Y-72904890D01*
X160108431Y-72692690D01*
X160159440Y-72440800D01*
X160159440Y-70408800D01*
X160115162Y-70173483D01*
X159976090Y-69957359D01*
X159763890Y-69812369D01*
X159512000Y-69761360D01*
X158013428Y-69761360D01*
X157657634Y-69405566D01*
X157622167Y-69381868D01*
X157448459Y-69265800D01*
X160655000Y-69265800D01*
X160655000Y-74075564D01*
G36*
X139974899Y-111092001D02*
X139998667Y-111107883D01*
X139893000Y-111213550D01*
X139893000Y-111937800D01*
X139913000Y-111937800D01*
X139913000Y-112034340D01*
X139766000Y-112005100D01*
X139619000Y-112005100D01*
X139619000Y-111937800D01*
X139639000Y-111937800D01*
X139639000Y-111213550D01*
X139480250Y-111054800D01*
X139039691Y-111054800D01*
X138806302Y-111151473D01*
X138627673Y-111330101D01*
X138531000Y-111563490D01*
X138531000Y-111779050D01*
X138689748Y-111937798D01*
X138531000Y-111937798D01*
X138531000Y-112005100D01*
X137821000Y-112005100D01*
X137821000Y-111937798D01*
X137662252Y-111937798D01*
X137821000Y-111779050D01*
X137821000Y-111563490D01*
X137724327Y-111330101D01*
X137545698Y-111151473D01*
X137312309Y-111054800D01*
X136871750Y-111054800D01*
X136713000Y-111213550D01*
X136713000Y-111937800D01*
X136733000Y-111937800D01*
X136733000Y-112005100D01*
X136439000Y-112005100D01*
X136439000Y-111937800D01*
X136459000Y-111937800D01*
X136459000Y-111213550D01*
X136300250Y-111054800D01*
X135861102Y-111054800D01*
X137899400Y-109016502D01*
X139974899Y-111092001D01*
X139974899Y-111092001D01*
G37*
X139974899Y-111092001D02*
X139998667Y-111107883D01*
X139893000Y-111213550D01*
X139893000Y-111937800D01*
X139913000Y-111937800D01*
X139913000Y-112034340D01*
X139766000Y-112005100D01*
X139619000Y-112005100D01*
X139619000Y-111937800D01*
X139639000Y-111937800D01*
X139639000Y-111213550D01*
X139480250Y-111054800D01*
X139039691Y-111054800D01*
X138806302Y-111151473D01*
X138627673Y-111330101D01*
X138531000Y-111563490D01*
X138531000Y-111779050D01*
X138689748Y-111937798D01*
X138531000Y-111937798D01*
X138531000Y-112005100D01*
X137821000Y-112005100D01*
X137821000Y-111937798D01*
X137662252Y-111937798D01*
X137821000Y-111779050D01*
X137821000Y-111563490D01*
X137724327Y-111330101D01*
X137545698Y-111151473D01*
X137312309Y-111054800D01*
X136871750Y-111054800D01*
X136713000Y-111213550D01*
X136713000Y-111937800D01*
X136733000Y-111937800D01*
X136733000Y-112005100D01*
X136439000Y-112005100D01*
X136439000Y-111937800D01*
X136459000Y-111937800D01*
X136459000Y-111213550D01*
X136300250Y-111054800D01*
X135861102Y-111054800D01*
X137899400Y-109016502D01*
X139974899Y-111092001D01*
G36*
X143516000Y-102569050D02*
X143674750Y-102727800D01*
X144399000Y-102727800D01*
X144399000Y-102707800D01*
X144653000Y-102707800D01*
X144653000Y-102727800D01*
X144673000Y-102727800D01*
X144673000Y-102981800D01*
X144653000Y-102981800D01*
X144653000Y-103931050D01*
X144811750Y-104089800D01*
X145027310Y-104089800D01*
X145062700Y-104075141D01*
X145062700Y-106178917D01*
X144976000Y-106161360D01*
X144076000Y-106161360D01*
X143840683Y-106205638D01*
X143624559Y-106344710D01*
X143479569Y-106556910D01*
X143447584Y-106714855D01*
X143213299Y-106871399D01*
X143179898Y-106904800D01*
X142013253Y-106904800D01*
X142013362Y-106779633D01*
X141871317Y-106435857D01*
X141608527Y-106172608D01*
X141264999Y-106029962D01*
X141198440Y-106029904D01*
X141198440Y-105814800D01*
X141178933Y-105711129D01*
X141198440Y-105614800D01*
X141198440Y-105314800D01*
X141178933Y-105211129D01*
X141198440Y-105114800D01*
X141198440Y-104814800D01*
X141185020Y-104743477D01*
X141186000Y-104741110D01*
X141186000Y-104698550D01*
X141174379Y-104686929D01*
X141154162Y-104579483D01*
X141030204Y-104386846D01*
X141186000Y-104231050D01*
X141186000Y-104188490D01*
X141089327Y-103955101D01*
X140910698Y-103776473D01*
X140905935Y-103774500D01*
X141766000Y-103774500D01*
X142056839Y-103716648D01*
X142303401Y-103551901D01*
X142714752Y-103140550D01*
X143516000Y-103140550D01*
X143516000Y-103581109D01*
X143612673Y-103814498D01*
X143791301Y-103993127D01*
X144024690Y-104089800D01*
X144240250Y-104089800D01*
X144399000Y-103931050D01*
X144399000Y-102981800D01*
X143674750Y-102981800D01*
X143516000Y-103140550D01*
X142714752Y-103140550D01*
X143516000Y-102339302D01*
X143516000Y-102569050D01*
X143516000Y-102569050D01*
G37*
X143516000Y-102569050D02*
X143674750Y-102727800D01*
X144399000Y-102727800D01*
X144399000Y-102707800D01*
X144653000Y-102707800D01*
X144653000Y-102727800D01*
X144673000Y-102727800D01*
X144673000Y-102981800D01*
X144653000Y-102981800D01*
X144653000Y-103931050D01*
X144811750Y-104089800D01*
X145027310Y-104089800D01*
X145062700Y-104075141D01*
X145062700Y-106178917D01*
X144976000Y-106161360D01*
X144076000Y-106161360D01*
X143840683Y-106205638D01*
X143624559Y-106344710D01*
X143479569Y-106556910D01*
X143447584Y-106714855D01*
X143213299Y-106871399D01*
X143179898Y-106904800D01*
X142013253Y-106904800D01*
X142013362Y-106779633D01*
X141871317Y-106435857D01*
X141608527Y-106172608D01*
X141264999Y-106029962D01*
X141198440Y-106029904D01*
X141198440Y-105814800D01*
X141178933Y-105711129D01*
X141198440Y-105614800D01*
X141198440Y-105314800D01*
X141178933Y-105211129D01*
X141198440Y-105114800D01*
X141198440Y-104814800D01*
X141185020Y-104743477D01*
X141186000Y-104741110D01*
X141186000Y-104698550D01*
X141174379Y-104686929D01*
X141154162Y-104579483D01*
X141030204Y-104386846D01*
X141186000Y-104231050D01*
X141186000Y-104188490D01*
X141089327Y-103955101D01*
X140910698Y-103776473D01*
X140905935Y-103774500D01*
X141766000Y-103774500D01*
X142056839Y-103716648D01*
X142303401Y-103551901D01*
X142714752Y-103140550D01*
X143516000Y-103140550D01*
X143516000Y-103581109D01*
X143612673Y-103814498D01*
X143791301Y-103993127D01*
X144024690Y-104089800D01*
X144240250Y-104089800D01*
X144399000Y-103931050D01*
X144399000Y-102981800D01*
X143674750Y-102981800D01*
X143516000Y-103140550D01*
X142714752Y-103140550D01*
X143516000Y-102339302D01*
X143516000Y-102569050D01*
G36*
X122345711Y-98093934D02*
X122288559Y-98130710D01*
X122143569Y-98342910D01*
X122124961Y-98434800D01*
X121899163Y-98434800D01*
X121867027Y-98402608D01*
X121523499Y-98259962D01*
X121151533Y-98259638D01*
X120807757Y-98401683D01*
X120544508Y-98664473D01*
X120401862Y-99008001D01*
X120401538Y-99379967D01*
X120543583Y-99723743D01*
X120806373Y-99986992D01*
X121149901Y-100129638D01*
X121521867Y-100129962D01*
X121865643Y-99987917D01*
X121898818Y-99954800D01*
X122122666Y-99954800D01*
X122136838Y-100030117D01*
X122275910Y-100246241D01*
X122488110Y-100391231D01*
X122740000Y-100442240D01*
X123183258Y-100442240D01*
X118679196Y-104946302D01*
X118607327Y-104874308D01*
X118263799Y-104731662D01*
X117933959Y-104731375D01*
X117831103Y-104610900D01*
X117005540Y-104610900D01*
X117005540Y-104630900D01*
X116751540Y-104630900D01*
X116751540Y-104610900D01*
X115925977Y-104610900D01*
X115777311Y-104785031D01*
X115839100Y-104963826D01*
X115752099Y-105019810D01*
X115607109Y-105232010D01*
X115556100Y-105483900D01*
X115556100Y-105883900D01*
X115580484Y-106013489D01*
X115556100Y-106133900D01*
X115556100Y-106236998D01*
X113938002Y-104618900D01*
X114051540Y-104618900D01*
X114051540Y-103610900D01*
X114305540Y-103610900D01*
X114305540Y-104618900D01*
X114580540Y-104618900D01*
X115005218Y-104483902D01*
X115345908Y-104196663D01*
X115352730Y-104182769D01*
X115777311Y-104182769D01*
X115925977Y-104356900D01*
X116751540Y-104356900D01*
X116751540Y-103391166D01*
X117005540Y-103391166D01*
X117005540Y-104356900D01*
X117831103Y-104356900D01*
X117979769Y-104182769D01*
X117838108Y-103772851D01*
X117550361Y-103448348D01*
X117176478Y-103264632D01*
X117005540Y-103391166D01*
X116751540Y-103391166D01*
X116580602Y-103264632D01*
X116206719Y-103448348D01*
X115918972Y-103772851D01*
X115777311Y-104182769D01*
X115352730Y-104182769D01*
X115547659Y-103785774D01*
X115421494Y-103610900D01*
X114305540Y-103610900D01*
X114051540Y-103610900D01*
X114031540Y-103610900D01*
X114031540Y-103356900D01*
X114051540Y-103356900D01*
X114051540Y-103336900D01*
X114305540Y-103336900D01*
X114305540Y-103356900D01*
X115421494Y-103356900D01*
X115547659Y-103182026D01*
X115345908Y-102771137D01*
X115005218Y-102483898D01*
X114580540Y-102348900D01*
X114341702Y-102348900D01*
X116041301Y-100649301D01*
X116206048Y-100402739D01*
X116235667Y-100253835D01*
X118307330Y-98182172D01*
X118350973Y-98225892D01*
X118694501Y-98368538D01*
X119066467Y-98368862D01*
X119410243Y-98226817D01*
X119443418Y-98193700D01*
X121975800Y-98193700D01*
X122266639Y-98135848D01*
X122337631Y-98088413D01*
X122345711Y-98093934D01*
X122345711Y-98093934D01*
G37*
X122345711Y-98093934D02*
X122288559Y-98130710D01*
X122143569Y-98342910D01*
X122124961Y-98434800D01*
X121899163Y-98434800D01*
X121867027Y-98402608D01*
X121523499Y-98259962D01*
X121151533Y-98259638D01*
X120807757Y-98401683D01*
X120544508Y-98664473D01*
X120401862Y-99008001D01*
X120401538Y-99379967D01*
X120543583Y-99723743D01*
X120806373Y-99986992D01*
X121149901Y-100129638D01*
X121521867Y-100129962D01*
X121865643Y-99987917D01*
X121898818Y-99954800D01*
X122122666Y-99954800D01*
X122136838Y-100030117D01*
X122275910Y-100246241D01*
X122488110Y-100391231D01*
X122740000Y-100442240D01*
X123183258Y-100442240D01*
X118679196Y-104946302D01*
X118607327Y-104874308D01*
X118263799Y-104731662D01*
X117933959Y-104731375D01*
X117831103Y-104610900D01*
X117005540Y-104610900D01*
X117005540Y-104630900D01*
X116751540Y-104630900D01*
X116751540Y-104610900D01*
X115925977Y-104610900D01*
X115777311Y-104785031D01*
X115839100Y-104963826D01*
X115752099Y-105019810D01*
X115607109Y-105232010D01*
X115556100Y-105483900D01*
X115556100Y-105883900D01*
X115580484Y-106013489D01*
X115556100Y-106133900D01*
X115556100Y-106236998D01*
X113938002Y-104618900D01*
X114051540Y-104618900D01*
X114051540Y-103610900D01*
X114305540Y-103610900D01*
X114305540Y-104618900D01*
X114580540Y-104618900D01*
X115005218Y-104483902D01*
X115345908Y-104196663D01*
X115352730Y-104182769D01*
X115777311Y-104182769D01*
X115925977Y-104356900D01*
X116751540Y-104356900D01*
X116751540Y-103391166D01*
X117005540Y-103391166D01*
X117005540Y-104356900D01*
X117831103Y-104356900D01*
X117979769Y-104182769D01*
X117838108Y-103772851D01*
X117550361Y-103448348D01*
X117176478Y-103264632D01*
X117005540Y-103391166D01*
X116751540Y-103391166D01*
X116580602Y-103264632D01*
X116206719Y-103448348D01*
X115918972Y-103772851D01*
X115777311Y-104182769D01*
X115352730Y-104182769D01*
X115547659Y-103785774D01*
X115421494Y-103610900D01*
X114305540Y-103610900D01*
X114051540Y-103610900D01*
X114031540Y-103610900D01*
X114031540Y-103356900D01*
X114051540Y-103356900D01*
X114051540Y-103336900D01*
X114305540Y-103336900D01*
X114305540Y-103356900D01*
X115421494Y-103356900D01*
X115547659Y-103182026D01*
X115345908Y-102771137D01*
X115005218Y-102483898D01*
X114580540Y-102348900D01*
X114341702Y-102348900D01*
X116041301Y-100649301D01*
X116206048Y-100402739D01*
X116235667Y-100253835D01*
X118307330Y-98182172D01*
X118350973Y-98225892D01*
X118694501Y-98368538D01*
X119066467Y-98368862D01*
X119410243Y-98226817D01*
X119443418Y-98193700D01*
X121975800Y-98193700D01*
X122266639Y-98135848D01*
X122337631Y-98088413D01*
X122345711Y-98093934D01*
G36*
X132305999Y-101592401D02*
X132552561Y-101757148D01*
X132843400Y-101815000D01*
X135881100Y-101815000D01*
X135881100Y-103479900D01*
X135920863Y-103679800D01*
X135674691Y-103679800D01*
X135441302Y-103776473D01*
X135262673Y-103955101D01*
X135166000Y-104188490D01*
X135166000Y-104231050D01*
X135323621Y-104388671D01*
X135204569Y-104562910D01*
X135179920Y-104684630D01*
X135166000Y-104698550D01*
X135166000Y-104741110D01*
X135167667Y-104745135D01*
X135153560Y-104814800D01*
X135153560Y-105114800D01*
X135173067Y-105218471D01*
X135153560Y-105314800D01*
X135153560Y-105614800D01*
X135173067Y-105718471D01*
X135153560Y-105814800D01*
X135153560Y-106114800D01*
X135170495Y-106204800D01*
X132004763Y-106204800D01*
X131972627Y-106172608D01*
X131766478Y-106087007D01*
X131790787Y-105964800D01*
X131741058Y-105714800D01*
X131750513Y-105667272D01*
X131752139Y-105666948D01*
X131998701Y-105502201D01*
X132163448Y-105255639D01*
X132221300Y-104964800D01*
X132221300Y-104448568D01*
X132247738Y-104384899D01*
X132248062Y-104012933D01*
X132106017Y-103669157D01*
X131843227Y-103405908D01*
X131499699Y-103263262D01*
X131127733Y-103262938D01*
X130982872Y-103322793D01*
X130983162Y-102989633D01*
X130851246Y-102670371D01*
X131071317Y-102628962D01*
X131287441Y-102489890D01*
X131432431Y-102277690D01*
X131483440Y-102025800D01*
X131483440Y-101275800D01*
X131439162Y-101040483D01*
X131377838Y-100945183D01*
X131378083Y-100664485D01*
X132305999Y-101592401D01*
X132305999Y-101592401D01*
G37*
X132305999Y-101592401D02*
X132552561Y-101757148D01*
X132843400Y-101815000D01*
X135881100Y-101815000D01*
X135881100Y-103479900D01*
X135920863Y-103679800D01*
X135674691Y-103679800D01*
X135441302Y-103776473D01*
X135262673Y-103955101D01*
X135166000Y-104188490D01*
X135166000Y-104231050D01*
X135323621Y-104388671D01*
X135204569Y-104562910D01*
X135179920Y-104684630D01*
X135166000Y-104698550D01*
X135166000Y-104741110D01*
X135167667Y-104745135D01*
X135153560Y-104814800D01*
X135153560Y-105114800D01*
X135173067Y-105218471D01*
X135153560Y-105314800D01*
X135153560Y-105614800D01*
X135173067Y-105718471D01*
X135153560Y-105814800D01*
X135153560Y-106114800D01*
X135170495Y-106204800D01*
X132004763Y-106204800D01*
X131972627Y-106172608D01*
X131766478Y-106087007D01*
X131790787Y-105964800D01*
X131741058Y-105714800D01*
X131750513Y-105667272D01*
X131752139Y-105666948D01*
X131998701Y-105502201D01*
X132163448Y-105255639D01*
X132221300Y-104964800D01*
X132221300Y-104448568D01*
X132247738Y-104384899D01*
X132248062Y-104012933D01*
X132106017Y-103669157D01*
X131843227Y-103405908D01*
X131499699Y-103263262D01*
X131127733Y-103262938D01*
X130982872Y-103322793D01*
X130983162Y-102989633D01*
X130851246Y-102670371D01*
X131071317Y-102628962D01*
X131287441Y-102489890D01*
X131432431Y-102277690D01*
X131483440Y-102025800D01*
X131483440Y-101275800D01*
X131439162Y-101040483D01*
X131377838Y-100945183D01*
X131378083Y-100664485D01*
X132305999Y-101592401D01*
G36*
X133865161Y-88842248D02*
X134156000Y-88900100D01*
X134656000Y-88900100D01*
X134756100Y-88880189D01*
X134756100Y-91805800D01*
X134813952Y-92096639D01*
X134978699Y-92343201D01*
X140266144Y-97630646D01*
X140155273Y-97701990D01*
X140032890Y-97618369D01*
X139958192Y-97603242D01*
X139934750Y-97579800D01*
X139904690Y-97579800D01*
X139884247Y-97588268D01*
X139781000Y-97567360D01*
X139531000Y-97567360D01*
X139401411Y-97591744D01*
X139346033Y-97580530D01*
X139193401Y-97352099D01*
X138209201Y-96367899D01*
X137962639Y-96203152D01*
X137671800Y-96145300D01*
X134275563Y-96145300D01*
X134243427Y-96113108D01*
X134087445Y-96048338D01*
X134107792Y-96028027D01*
X134250438Y-95684499D01*
X134250762Y-95312533D01*
X134108717Y-94968757D01*
X133845927Y-94705508D01*
X133502399Y-94562862D01*
X133130433Y-94562538D01*
X132786657Y-94704583D01*
X132523408Y-94967373D01*
X132507867Y-95004800D01*
X132330152Y-95004800D01*
X132353440Y-94889800D01*
X132353440Y-94639800D01*
X132329056Y-94510211D01*
X132353440Y-94389800D01*
X132353440Y-94139800D01*
X132329056Y-94010211D01*
X132353440Y-93889800D01*
X132353440Y-93639800D01*
X132329056Y-93510211D01*
X132353440Y-93389800D01*
X132353440Y-93139800D01*
X132329056Y-93010211D01*
X132353440Y-92889800D01*
X132353440Y-92639800D01*
X132329056Y-92510211D01*
X132353440Y-92389800D01*
X132353440Y-92139800D01*
X132329056Y-92010211D01*
X132353440Y-91889800D01*
X132353440Y-91639800D01*
X132329056Y-91510211D01*
X132353440Y-91389800D01*
X132353440Y-91246848D01*
X132366901Y-91252438D01*
X132738867Y-91252762D01*
X133073233Y-91114605D01*
X133214573Y-91256192D01*
X133558101Y-91398838D01*
X133930067Y-91399162D01*
X134273843Y-91257117D01*
X134537092Y-90994327D01*
X134679738Y-90650799D01*
X134680062Y-90278833D01*
X134538017Y-89935057D01*
X134275227Y-89671808D01*
X133931699Y-89529162D01*
X133884823Y-89529121D01*
X133510601Y-89154899D01*
X133463113Y-89123169D01*
X133561138Y-88887099D01*
X133561244Y-88765805D01*
X133656000Y-88702491D01*
X133865161Y-88842248D01*
X133865161Y-88842248D01*
G37*
X133865161Y-88842248D02*
X134156000Y-88900100D01*
X134656000Y-88900100D01*
X134756100Y-88880189D01*
X134756100Y-91805800D01*
X134813952Y-92096639D01*
X134978699Y-92343201D01*
X140266144Y-97630646D01*
X140155273Y-97701990D01*
X140032890Y-97618369D01*
X139958192Y-97603242D01*
X139934750Y-97579800D01*
X139904690Y-97579800D01*
X139884247Y-97588268D01*
X139781000Y-97567360D01*
X139531000Y-97567360D01*
X139401411Y-97591744D01*
X139346033Y-97580530D01*
X139193401Y-97352099D01*
X138209201Y-96367899D01*
X137962639Y-96203152D01*
X137671800Y-96145300D01*
X134275563Y-96145300D01*
X134243427Y-96113108D01*
X134087445Y-96048338D01*
X134107792Y-96028027D01*
X134250438Y-95684499D01*
X134250762Y-95312533D01*
X134108717Y-94968757D01*
X133845927Y-94705508D01*
X133502399Y-94562862D01*
X133130433Y-94562538D01*
X132786657Y-94704583D01*
X132523408Y-94967373D01*
X132507867Y-95004800D01*
X132330152Y-95004800D01*
X132353440Y-94889800D01*
X132353440Y-94639800D01*
X132329056Y-94510211D01*
X132353440Y-94389800D01*
X132353440Y-94139800D01*
X132329056Y-94010211D01*
X132353440Y-93889800D01*
X132353440Y-93639800D01*
X132329056Y-93510211D01*
X132353440Y-93389800D01*
X132353440Y-93139800D01*
X132329056Y-93010211D01*
X132353440Y-92889800D01*
X132353440Y-92639800D01*
X132329056Y-92510211D01*
X132353440Y-92389800D01*
X132353440Y-92139800D01*
X132329056Y-92010211D01*
X132353440Y-91889800D01*
X132353440Y-91639800D01*
X132329056Y-91510211D01*
X132353440Y-91389800D01*
X132353440Y-91246848D01*
X132366901Y-91252438D01*
X132738867Y-91252762D01*
X133073233Y-91114605D01*
X133214573Y-91256192D01*
X133558101Y-91398838D01*
X133930067Y-91399162D01*
X134273843Y-91257117D01*
X134537092Y-90994327D01*
X134679738Y-90650799D01*
X134680062Y-90278833D01*
X134538017Y-89935057D01*
X134275227Y-89671808D01*
X133931699Y-89529162D01*
X133884823Y-89529121D01*
X133510601Y-89154899D01*
X133463113Y-89123169D01*
X133561138Y-88887099D01*
X133561244Y-88765805D01*
X133656000Y-88702491D01*
X133865161Y-88842248D01*
G36*
X134493000Y-74676000D02*
X134501685Y-74722159D01*
X134528965Y-74764553D01*
X134570590Y-74792994D01*
X134620000Y-74803000D01*
X149860000Y-74803000D01*
X149906159Y-74794315D01*
X149948553Y-74767035D01*
X149976994Y-74725410D01*
X149987000Y-74676000D01*
X149987000Y-70831000D01*
X154416681Y-70831000D01*
X154305000Y-71392455D01*
X154305000Y-71457145D01*
X154430675Y-72088955D01*
X154788567Y-72624578D01*
X155196000Y-72896816D01*
X155196000Y-73196398D01*
X154148599Y-74243799D01*
X153983852Y-74490361D01*
X153971082Y-74554557D01*
X153834509Y-74642440D01*
X153689519Y-74854640D01*
X153638510Y-75106530D01*
X153638510Y-75906630D01*
X153682788Y-76141947D01*
X153821860Y-76358071D01*
X153968213Y-76458070D01*
X153335950Y-76458070D01*
X153100633Y-76502348D01*
X152884509Y-76641420D01*
X152813326Y-76745600D01*
X143026700Y-76745600D01*
X142735861Y-76803452D01*
X142489299Y-76968199D01*
X138933199Y-80524299D01*
X138899455Y-80574800D01*
X138781750Y-80574800D01*
X138623000Y-80733550D01*
X138623000Y-81457800D01*
X138643000Y-81457800D01*
X138643000Y-81711800D01*
X138623000Y-81711800D01*
X138623000Y-82436050D01*
X138710600Y-82523650D01*
X138710600Y-83185950D01*
X138623000Y-83273550D01*
X138623000Y-83997800D01*
X138643000Y-83997800D01*
X138643000Y-84251800D01*
X138623000Y-84251800D01*
X138623000Y-84271800D01*
X138369000Y-84271800D01*
X138369000Y-84251800D01*
X138349000Y-84251800D01*
X138349000Y-83997800D01*
X138369000Y-83997800D01*
X138369000Y-83273550D01*
X138210250Y-83114800D01*
X138011802Y-83114800D01*
X137999017Y-83083857D01*
X137736227Y-82820608D01*
X137392699Y-82677962D01*
X137020733Y-82677638D01*
X136676957Y-82819683D01*
X136643782Y-82852800D01*
X135377302Y-82852800D01*
X134395052Y-81870550D01*
X137261000Y-81870550D01*
X137261000Y-82086110D01*
X137357673Y-82319499D01*
X137536302Y-82498127D01*
X137769691Y-82594800D01*
X138210250Y-82594800D01*
X138369000Y-82436050D01*
X138369000Y-81711800D01*
X137419750Y-81711800D01*
X137261000Y-81870550D01*
X134395052Y-81870550D01*
X133607992Y-81083490D01*
X137261000Y-81083490D01*
X137261000Y-81299050D01*
X137419750Y-81457800D01*
X138369000Y-81457800D01*
X138369000Y-80733550D01*
X138210250Y-80574800D01*
X137769691Y-80574800D01*
X137536302Y-80671473D01*
X137357673Y-80850101D01*
X137261000Y-81083490D01*
X133607992Y-81083490D01*
X129869630Y-77345128D01*
X130076692Y-77138427D01*
X130219338Y-76794899D01*
X130219379Y-76748023D01*
X131053702Y-75913700D01*
X131826000Y-75913700D01*
X132116839Y-75855848D01*
X132363401Y-75691101D01*
X132528148Y-75444539D01*
X132562976Y-75269446D01*
X132885670Y-75053829D01*
X133210526Y-74567648D01*
X133324600Y-73994159D01*
X133324600Y-73935441D01*
X133210526Y-73361952D01*
X132885670Y-72875771D01*
X132614828Y-72694800D01*
X132885670Y-72513829D01*
X133210526Y-72027648D01*
X133324600Y-71454159D01*
X133324600Y-71395441D01*
X133212326Y-70831000D01*
X134493000Y-70831000D01*
X134493000Y-74676000D01*
X134493000Y-74676000D01*
G37*
X134493000Y-74676000D02*
X134501685Y-74722159D01*
X134528965Y-74764553D01*
X134570590Y-74792994D01*
X134620000Y-74803000D01*
X149860000Y-74803000D01*
X149906159Y-74794315D01*
X149948553Y-74767035D01*
X149976994Y-74725410D01*
X149987000Y-74676000D01*
X149987000Y-70831000D01*
X154416681Y-70831000D01*
X154305000Y-71392455D01*
X154305000Y-71457145D01*
X154430675Y-72088955D01*
X154788567Y-72624578D01*
X155196000Y-72896816D01*
X155196000Y-73196398D01*
X154148599Y-74243799D01*
X153983852Y-74490361D01*
X153971082Y-74554557D01*
X153834509Y-74642440D01*
X153689519Y-74854640D01*
X153638510Y-75106530D01*
X153638510Y-75906630D01*
X153682788Y-76141947D01*
X153821860Y-76358071D01*
X153968213Y-76458070D01*
X153335950Y-76458070D01*
X153100633Y-76502348D01*
X152884509Y-76641420D01*
X152813326Y-76745600D01*
X143026700Y-76745600D01*
X142735861Y-76803452D01*
X142489299Y-76968199D01*
X138933199Y-80524299D01*
X138899455Y-80574800D01*
X138781750Y-80574800D01*
X138623000Y-80733550D01*
X138623000Y-81457800D01*
X138643000Y-81457800D01*
X138643000Y-81711800D01*
X138623000Y-81711800D01*
X138623000Y-82436050D01*
X138710600Y-82523650D01*
X138710600Y-83185950D01*
X138623000Y-83273550D01*
X138623000Y-83997800D01*
X138643000Y-83997800D01*
X138643000Y-84251800D01*
X138623000Y-84251800D01*
X138623000Y-84271800D01*
X138369000Y-84271800D01*
X138369000Y-84251800D01*
X138349000Y-84251800D01*
X138349000Y-83997800D01*
X138369000Y-83997800D01*
X138369000Y-83273550D01*
X138210250Y-83114800D01*
X138011802Y-83114800D01*
X137999017Y-83083857D01*
X137736227Y-82820608D01*
X137392699Y-82677962D01*
X137020733Y-82677638D01*
X136676957Y-82819683D01*
X136643782Y-82852800D01*
X135377302Y-82852800D01*
X134395052Y-81870550D01*
X137261000Y-81870550D01*
X137261000Y-82086110D01*
X137357673Y-82319499D01*
X137536302Y-82498127D01*
X137769691Y-82594800D01*
X138210250Y-82594800D01*
X138369000Y-82436050D01*
X138369000Y-81711800D01*
X137419750Y-81711800D01*
X137261000Y-81870550D01*
X134395052Y-81870550D01*
X133607992Y-81083490D01*
X137261000Y-81083490D01*
X137261000Y-81299050D01*
X137419750Y-81457800D01*
X138369000Y-81457800D01*
X138369000Y-80733550D01*
X138210250Y-80574800D01*
X137769691Y-80574800D01*
X137536302Y-80671473D01*
X137357673Y-80850101D01*
X137261000Y-81083490D01*
X133607992Y-81083490D01*
X129869630Y-77345128D01*
X130076692Y-77138427D01*
X130219338Y-76794899D01*
X130219379Y-76748023D01*
X131053702Y-75913700D01*
X131826000Y-75913700D01*
X132116839Y-75855848D01*
X132363401Y-75691101D01*
X132528148Y-75444539D01*
X132562976Y-75269446D01*
X132885670Y-75053829D01*
X133210526Y-74567648D01*
X133324600Y-73994159D01*
X133324600Y-73935441D01*
X133210526Y-73361952D01*
X132885670Y-72875771D01*
X132614828Y-72694800D01*
X132885670Y-72513829D01*
X133210526Y-72027648D01*
X133324600Y-71454159D01*
X133324600Y-71395441D01*
X133212326Y-70831000D01*
X134493000Y-70831000D01*
X134493000Y-74676000D01*
G36*
X122707400Y-71395441D02*
X122707400Y-71454159D01*
X122821474Y-72027648D01*
X123136526Y-72499156D01*
X122982701Y-72562873D01*
X122804073Y-72741502D01*
X122707400Y-72974891D01*
X122707400Y-73679050D01*
X122866150Y-73837800D01*
X124079000Y-73837800D01*
X124079000Y-73817800D01*
X124333000Y-73817800D01*
X124333000Y-73837800D01*
X124353000Y-73837800D01*
X124353000Y-74091800D01*
X124333000Y-74091800D01*
X124333000Y-74111800D01*
X124079000Y-74111800D01*
X124079000Y-74091800D01*
X122866150Y-74091800D01*
X122707400Y-74250550D01*
X122707400Y-74954709D01*
X122804073Y-75188098D01*
X122982701Y-75366727D01*
X123122901Y-75424800D01*
X121327003Y-75424800D01*
X121389502Y-75362301D01*
X121554248Y-75115739D01*
X121612100Y-74824900D01*
X121612100Y-72826200D01*
X121554248Y-72535361D01*
X121389501Y-72288799D01*
X121343261Y-72242559D01*
X121422431Y-72126690D01*
X121473440Y-71874800D01*
X121473440Y-70974800D01*
X121446382Y-70831000D01*
X122819674Y-70831000D01*
X122707400Y-71395441D01*
X122707400Y-71395441D01*
G37*
X122707400Y-71395441D02*
X122707400Y-71454159D01*
X122821474Y-72027648D01*
X123136526Y-72499156D01*
X122982701Y-72562873D01*
X122804073Y-72741502D01*
X122707400Y-72974891D01*
X122707400Y-73679050D01*
X122866150Y-73837800D01*
X124079000Y-73837800D01*
X124079000Y-73817800D01*
X124333000Y-73817800D01*
X124333000Y-73837800D01*
X124353000Y-73837800D01*
X124353000Y-74091800D01*
X124333000Y-74091800D01*
X124333000Y-74111800D01*
X124079000Y-74111800D01*
X124079000Y-74091800D01*
X122866150Y-74091800D01*
X122707400Y-74250550D01*
X122707400Y-74954709D01*
X122804073Y-75188098D01*
X122982701Y-75366727D01*
X123122901Y-75424800D01*
X121327003Y-75424800D01*
X121389502Y-75362301D01*
X121554248Y-75115739D01*
X121612100Y-74824900D01*
X121612100Y-72826200D01*
X121554248Y-72535361D01*
X121389501Y-72288799D01*
X121343261Y-72242559D01*
X121422431Y-72126690D01*
X121473440Y-71874800D01*
X121473440Y-70974800D01*
X121446382Y-70831000D01*
X122819674Y-70831000D01*
X122707400Y-71395441D01*
G36*
X116791000Y-70848490D02*
X116791000Y-71139050D01*
X116949750Y-71297800D01*
X117899000Y-71297800D01*
X117899000Y-71277800D01*
X118153000Y-71277800D01*
X118153000Y-71297800D01*
X118173000Y-71297800D01*
X118173000Y-71551800D01*
X118153000Y-71551800D01*
X118153000Y-72351050D01*
X118311750Y-72509800D01*
X118752309Y-72509800D01*
X118985698Y-72413127D01*
X119126936Y-72271890D01*
X119161910Y-72326241D01*
X119374110Y-72471231D01*
X119532055Y-72503216D01*
X119688599Y-72737501D01*
X120092100Y-73141002D01*
X120092100Y-73249750D01*
X119999758Y-73249750D01*
X119999758Y-73408498D01*
X119841010Y-73249750D01*
X119600400Y-73249750D01*
X119367011Y-73346423D01*
X119188383Y-73525052D01*
X119091710Y-73758441D01*
X119091710Y-73999050D01*
X119250460Y-74157800D01*
X119999760Y-74157800D01*
X119999760Y-74137800D01*
X120092100Y-74137800D01*
X120092100Y-74431800D01*
X119999760Y-74431800D01*
X119999760Y-74411800D01*
X119250460Y-74411800D01*
X119104303Y-74557957D01*
X118991920Y-74383309D01*
X118779720Y-74238319D01*
X118527830Y-74187310D01*
X117883312Y-74187310D01*
X115628381Y-71932379D01*
X115672505Y-71710550D01*
X116791000Y-71710550D01*
X116791000Y-72001110D01*
X116887673Y-72234499D01*
X117066302Y-72413127D01*
X117299691Y-72509800D01*
X117740250Y-72509800D01*
X117899000Y-72351050D01*
X117899000Y-71551800D01*
X116949750Y-71551800D01*
X116791000Y-71710550D01*
X115672505Y-71710550D01*
X115729345Y-71424800D01*
X115611231Y-70831000D01*
X116798245Y-70831000D01*
X116791000Y-70848490D01*
X116791000Y-70848490D01*
G37*
X116791000Y-70848490D02*
X116791000Y-71139050D01*
X116949750Y-71297800D01*
X117899000Y-71297800D01*
X117899000Y-71277800D01*
X118153000Y-71277800D01*
X118153000Y-71297800D01*
X118173000Y-71297800D01*
X118173000Y-71551800D01*
X118153000Y-71551800D01*
X118153000Y-72351050D01*
X118311750Y-72509800D01*
X118752309Y-72509800D01*
X118985698Y-72413127D01*
X119126936Y-72271890D01*
X119161910Y-72326241D01*
X119374110Y-72471231D01*
X119532055Y-72503216D01*
X119688599Y-72737501D01*
X120092100Y-73141002D01*
X120092100Y-73249750D01*
X119999758Y-73249750D01*
X119999758Y-73408498D01*
X119841010Y-73249750D01*
X119600400Y-73249750D01*
X119367011Y-73346423D01*
X119188383Y-73525052D01*
X119091710Y-73758441D01*
X119091710Y-73999050D01*
X119250460Y-74157800D01*
X119999760Y-74157800D01*
X119999760Y-74137800D01*
X120092100Y-74137800D01*
X120092100Y-74431800D01*
X119999760Y-74431800D01*
X119999760Y-74411800D01*
X119250460Y-74411800D01*
X119104303Y-74557957D01*
X118991920Y-74383309D01*
X118779720Y-74238319D01*
X118527830Y-74187310D01*
X117883312Y-74187310D01*
X115628381Y-71932379D01*
X115672505Y-71710550D01*
X116791000Y-71710550D01*
X116791000Y-72001110D01*
X116887673Y-72234499D01*
X117066302Y-72413127D01*
X117299691Y-72509800D01*
X117740250Y-72509800D01*
X117899000Y-72351050D01*
X117899000Y-71551800D01*
X116949750Y-71551800D01*
X116791000Y-71710550D01*
X115672505Y-71710550D01*
X115729345Y-71424800D01*
X115611231Y-70831000D01*
X116798245Y-70831000D01*
X116791000Y-70848490D01*
M02*
