G04 #@! TF.FileFunction,Legend,Top*
%FSLAX46Y46*%
G04 Gerber Fmt 4.6, Leading zero omitted, Abs format (unit mm)*
G04 Created by KiCad (PCBNEW 4.0.2+dfsg1-stable) date 2016年07月17日 星期日 15时22分32秒*
%MOMM*%
G01*
G04 APERTURE LIST*
%ADD10C,0.100000*%
%ADD11C,0.150000*%
G04 APERTURE END LIST*
D10*
D11*
X118202000Y-79710800D02*
X118202000Y-80410800D01*
X117002000Y-80410800D02*
X117002000Y-79710800D01*
X123602000Y-89366800D02*
X124302000Y-89366800D01*
X124302000Y-90566800D02*
X123602000Y-90566800D01*
X123602000Y-92414800D02*
X124302000Y-92414800D01*
X124302000Y-93614800D02*
X123602000Y-93614800D01*
X145126000Y-101554800D02*
X145126000Y-102254800D01*
X143926000Y-102254800D02*
X143926000Y-101554800D01*
X141066000Y-112664800D02*
X140366000Y-112664800D01*
X140366000Y-111464800D02*
X141066000Y-111464800D01*
X135286000Y-111464800D02*
X135986000Y-111464800D01*
X135986000Y-112664800D02*
X135286000Y-112664800D01*
X128686000Y-111144800D02*
X128686000Y-110444800D01*
X129886000Y-110444800D02*
X129886000Y-111144800D01*
X129636000Y-102250800D02*
X128936000Y-102250800D01*
X128936000Y-101050800D02*
X129636000Y-101050800D01*
X139796000Y-82184800D02*
X139096000Y-82184800D01*
X139096000Y-80984800D02*
X139796000Y-80984800D01*
X139096000Y-83524800D02*
X139796000Y-83524800D01*
X139796000Y-84724800D02*
X139096000Y-84724800D01*
X151034000Y-100542800D02*
X151734000Y-100542800D01*
X151734000Y-101742800D02*
X151034000Y-101742800D01*
X151800000Y-97428800D02*
X151800000Y-96728800D01*
X153000000Y-96728800D02*
X153000000Y-97428800D01*
X141986000Y-114604800D02*
X134366000Y-114604800D01*
X141986000Y-117144800D02*
X134366000Y-117144800D01*
X144806000Y-117424800D02*
X143256000Y-117424800D01*
X134366000Y-114604800D02*
X134366000Y-117144800D01*
X141986000Y-117144800D02*
X141986000Y-114604800D01*
X143256000Y-114324800D02*
X144806000Y-114324800D01*
X144806000Y-114324800D02*
X144806000Y-117424800D01*
X157226000Y-72694800D02*
X154686000Y-72694800D01*
X160046000Y-72974800D02*
X158496000Y-72974800D01*
X157226000Y-72694800D02*
X157226000Y-70154800D01*
X158496000Y-69874800D02*
X160046000Y-69874800D01*
X160046000Y-69874800D02*
X160046000Y-72974800D01*
X157226000Y-70154800D02*
X154686000Y-70154800D01*
X154686000Y-70154800D02*
X154686000Y-72694800D01*
X112776000Y-72694800D02*
X112776000Y-70154800D01*
X112496000Y-75514800D02*
X112496000Y-73964800D01*
X112776000Y-72694800D02*
X115316000Y-72694800D01*
X115596000Y-73964800D02*
X115596000Y-75514800D01*
X115596000Y-75514800D02*
X112496000Y-75514800D01*
X115316000Y-72694800D02*
X115316000Y-70154800D01*
X115316000Y-70154800D02*
X112776000Y-70154800D01*
X115316000Y-114604800D02*
X117856000Y-114604800D01*
X112496000Y-114324800D02*
X114046000Y-114324800D01*
X115316000Y-114604800D02*
X115316000Y-117144800D01*
X114046000Y-117424800D02*
X112496000Y-117424800D01*
X112496000Y-117424800D02*
X112496000Y-114324800D01*
X115316000Y-117144800D02*
X117856000Y-117144800D01*
X117856000Y-117144800D02*
X117856000Y-114604800D01*
X159766000Y-114604800D02*
X159766000Y-117144800D01*
X160046000Y-111784800D02*
X160046000Y-113334800D01*
X159766000Y-114604800D02*
X157226000Y-114604800D01*
X156946000Y-113334800D02*
X156946000Y-111784800D01*
X156946000Y-111784800D02*
X160046000Y-111784800D01*
X157226000Y-114604800D02*
X157226000Y-117144800D01*
X157226000Y-117144800D02*
X159766000Y-117144800D01*
X155985160Y-75854560D02*
X155936900Y-75854560D01*
X153186180Y-76555600D02*
X153186180Y-75854560D01*
X153186180Y-75854560D02*
X153435100Y-75854560D01*
X155985160Y-75854560D02*
X156185820Y-75854560D01*
X156185820Y-75854560D02*
X156185820Y-76555600D01*
X121808240Y-81359960D02*
X121808240Y-81311700D01*
X121107200Y-78560980D02*
X121808240Y-78560980D01*
X121808240Y-78560980D02*
X121808240Y-78809900D01*
X121808240Y-81359960D02*
X121808240Y-81560620D01*
X121808240Y-81560620D02*
X121107200Y-81560620D01*
X118475760Y-73935640D02*
X118475760Y-73983900D01*
X119176800Y-76734620D02*
X118475760Y-76734620D01*
X118475760Y-76734620D02*
X118475760Y-76485700D01*
X118475760Y-73935640D02*
X118475760Y-73734980D01*
X118475760Y-73734980D02*
X119176800Y-73734980D01*
X122906840Y-111445040D02*
X122955100Y-111445040D01*
X125705820Y-110744000D02*
X125705820Y-111445040D01*
X125705820Y-111445040D02*
X125456900Y-111445040D01*
X122906840Y-111445040D02*
X122706180Y-111445040D01*
X122706180Y-111445040D02*
X122706180Y-110744000D01*
X154066240Y-113363960D02*
X154066240Y-113315700D01*
X153365200Y-110564980D02*
X154066240Y-110564980D01*
X154066240Y-110564980D02*
X154066240Y-110813900D01*
X154066240Y-113363960D02*
X154066240Y-113564620D01*
X154066240Y-113564620D02*
X153365200Y-113564620D01*
X128024000Y-83703800D02*
X129024000Y-83703800D01*
X129024000Y-85053800D02*
X128024000Y-85053800D01*
X123865000Y-97594800D02*
X123865000Y-98594800D01*
X122515000Y-98594800D02*
X122515000Y-97594800D01*
X118626000Y-84719800D02*
X119626000Y-84719800D01*
X119626000Y-86069800D02*
X118626000Y-86069800D01*
X125055000Y-98594800D02*
X125055000Y-97594800D01*
X126405000Y-97594800D02*
X126405000Y-98594800D01*
X127341000Y-98594800D02*
X127341000Y-97594800D01*
X128691000Y-97594800D02*
X128691000Y-98594800D01*
X143851000Y-109008800D02*
X143851000Y-108008800D01*
X145201000Y-108008800D02*
X145201000Y-109008800D01*
X124706000Y-107659800D02*
X123706000Y-107659800D01*
X123706000Y-106309800D02*
X124706000Y-106309800D01*
X159171000Y-76004800D02*
X159171000Y-77004800D01*
X157821000Y-77004800D02*
X157821000Y-76004800D01*
X152646000Y-105119800D02*
X151646000Y-105119800D01*
X151646000Y-103769800D02*
X152646000Y-103769800D01*
X118626000Y-70749800D02*
X119626000Y-70749800D01*
X119626000Y-72099800D02*
X118626000Y-72099800D01*
X128024000Y-81417800D02*
X129024000Y-81417800D01*
X129024000Y-82767800D02*
X128024000Y-82767800D01*
X121071000Y-110294800D02*
X121071000Y-111294800D01*
X119721000Y-111294800D02*
X119721000Y-110294800D01*
X153916000Y-116549800D02*
X152916000Y-116549800D01*
X152916000Y-115199800D02*
X153916000Y-115199800D01*
X142081000Y-98189800D02*
X142081000Y-97114800D01*
X131731000Y-98189800D02*
X131731000Y-97114800D01*
X131731000Y-87839800D02*
X131731000Y-88914800D01*
X142081000Y-87839800D02*
X142081000Y-88914800D01*
X142081000Y-98189800D02*
X141006000Y-98189800D01*
X142081000Y-87839800D02*
X141006000Y-87839800D01*
X131731000Y-87839800D02*
X132806000Y-87839800D01*
X131731000Y-98189800D02*
X132806000Y-98189800D01*
X142081000Y-97114800D02*
X143106000Y-97114800D01*
X140326000Y-103564800D02*
X140326000Y-104089800D01*
X136026000Y-107864800D02*
X136026000Y-107339800D01*
X140326000Y-107864800D02*
X140326000Y-107339800D01*
X136026000Y-103564800D02*
X136551000Y-103564800D01*
X136026000Y-107864800D02*
X136551000Y-107864800D01*
X140326000Y-107864800D02*
X139801000Y-107864800D01*
X140326000Y-103564800D02*
X139801000Y-103564800D01*
X118926000Y-90044800D02*
G75*
G03X118926000Y-90044800I-100000J0D01*
G01*
X119376000Y-90294800D02*
X118876000Y-90294800D01*
X119376000Y-93194800D02*
X119376000Y-90294800D01*
X118876000Y-93194800D02*
X119376000Y-93194800D01*
X118876000Y-90294800D02*
X118876000Y-93194800D01*
X127661000Y-104089800D02*
X128161000Y-104089800D01*
X130911000Y-107339800D02*
X130411000Y-107339800D01*
X130911000Y-104089800D02*
X130411000Y-104089800D01*
X127661000Y-107339800D02*
X127661000Y-106839800D01*
X130911000Y-107339800D02*
X130911000Y-106839800D01*
X130911000Y-104089800D02*
X130911000Y-104589800D01*
X127661000Y-104089800D02*
X127661000Y-104589800D01*
X149565360Y-92514420D02*
X149565360Y-80815180D01*
X144566640Y-80815180D02*
X144566640Y-92514420D01*
X149565360Y-80815180D02*
X148717000Y-80815180D01*
X144566640Y-80815180D02*
X145415000Y-80815180D01*
X149565360Y-92514420D02*
X148717000Y-92514420D01*
X144566640Y-92514420D02*
X145415000Y-92514420D01*
X146166840Y-98125280D02*
X145915380Y-97873820D01*
X145915380Y-97873820D02*
X145666460Y-97525840D01*
X145666460Y-97525840D02*
X145516600Y-96974660D01*
X145516600Y-96974660D02*
X145516600Y-96575880D01*
X145516600Y-96575880D02*
X145717260Y-96075500D01*
X145717260Y-96075500D02*
X146065240Y-95674180D01*
X147916900Y-98125280D02*
X148115020Y-97975420D01*
X148115020Y-97975420D02*
X148366480Y-97675700D01*
X148366480Y-97675700D02*
X148567140Y-97223580D01*
X148567140Y-97223580D02*
X148615400Y-96774000D01*
X148615400Y-96774000D02*
X148516340Y-96273620D01*
X148516340Y-96273620D02*
X148315680Y-95925640D01*
X148315680Y-95925640D02*
X147965160Y-95575120D01*
X126746000Y-114604800D02*
X121666000Y-114604800D01*
X121666000Y-114604800D02*
X121666000Y-117144800D01*
X121666000Y-117144800D02*
X126746000Y-117144800D01*
X129566000Y-117424800D02*
X128016000Y-117424800D01*
X126746000Y-117144800D02*
X126746000Y-114604800D01*
X128016000Y-114324800D02*
X129566000Y-114324800D01*
X129566000Y-114324800D02*
X129566000Y-117424800D01*
X113792000Y-79806800D02*
X114300000Y-79806800D01*
X114300000Y-79806800D02*
X114300000Y-81584800D01*
X114300000Y-81584800D02*
X113284000Y-81584800D01*
X113284000Y-81584800D02*
X113284000Y-79806800D01*
X113284000Y-79806800D02*
X113792000Y-79806800D01*
X113284000Y-83870800D02*
X112268000Y-83870800D01*
X112268000Y-83870800D02*
X112268000Y-77774800D01*
X112268000Y-77774800D02*
X113284000Y-77774800D01*
X114300000Y-77774800D02*
X115316000Y-77774800D01*
X115316000Y-77774800D02*
X115316000Y-83616800D01*
X115316000Y-83616800D02*
X115316000Y-83870800D01*
X115316000Y-83870800D02*
X114300000Y-83870800D01*
X112776000Y-85394800D02*
X115316000Y-85394800D01*
X115316000Y-85394800D02*
X115316000Y-93014800D01*
X115316000Y-93014800D02*
X112776000Y-93014800D01*
X112776000Y-93014800D02*
X112776000Y-85394800D01*
X115316000Y-87934800D02*
X112776000Y-87934800D01*
X125476000Y-75234800D02*
X133096000Y-75234800D01*
X133096000Y-75234800D02*
X133096000Y-70154800D01*
X133096000Y-70154800D02*
X122936000Y-70154800D01*
X122936000Y-70154800D02*
X122936000Y-72694800D01*
X122656000Y-73964800D02*
X122656000Y-75514800D01*
X122936000Y-72694800D02*
X125476000Y-72694800D01*
X125476000Y-72694800D02*
X125476000Y-75234800D01*
X122656000Y-75514800D02*
X124206000Y-75514800D01*
X111498540Y-102633900D02*
X111498540Y-111333900D01*
X117903540Y-102633900D02*
X117903540Y-111333900D01*
X117903540Y-111333900D02*
X111498540Y-111333900D01*
X112728540Y-111333900D02*
X112728540Y-102633900D01*
X111498540Y-102633900D02*
X117903540Y-102633900D01*
X172669367Y-129687581D02*
X172336033Y-129211390D01*
X172097938Y-129687581D02*
X172097938Y-128687581D01*
X172478891Y-128687581D01*
X172574129Y-128735200D01*
X172621748Y-128782819D01*
X172669367Y-128878057D01*
X172669367Y-129020914D01*
X172621748Y-129116152D01*
X172574129Y-129163771D01*
X172478891Y-129211390D01*
X172097938Y-129211390D01*
X173097938Y-129163771D02*
X173431272Y-129163771D01*
X173574129Y-129687581D02*
X173097938Y-129687581D01*
X173097938Y-128687581D01*
X173574129Y-128687581D01*
X174336034Y-129163771D02*
X174002700Y-129163771D01*
X174002700Y-129687581D02*
X174002700Y-128687581D01*
X174478891Y-128687581D01*
X175002700Y-128687581D02*
X175002700Y-128925676D01*
X174764605Y-128830438D02*
X175002700Y-128925676D01*
X175240796Y-128830438D01*
X174859843Y-129116152D02*
X175002700Y-128925676D01*
X175145558Y-129116152D01*
X175764605Y-128687581D02*
X175764605Y-128925676D01*
X175526510Y-128830438D02*
X175764605Y-128925676D01*
X176002701Y-128830438D01*
X175621748Y-129116152D02*
X175764605Y-128925676D01*
X175907463Y-129116152D01*
X100152367Y-127274581D02*
X99819033Y-126798390D01*
X99580938Y-127274581D02*
X99580938Y-126274581D01*
X99961891Y-126274581D01*
X100057129Y-126322200D01*
X100104748Y-126369819D01*
X100152367Y-126465057D01*
X100152367Y-126607914D01*
X100104748Y-126703152D01*
X100057129Y-126750771D01*
X99961891Y-126798390D01*
X99580938Y-126798390D01*
X100580938Y-126750771D02*
X100914272Y-126750771D01*
X101057129Y-127274581D02*
X100580938Y-127274581D01*
X100580938Y-126274581D01*
X101057129Y-126274581D01*
X101819034Y-126750771D02*
X101485700Y-126750771D01*
X101485700Y-127274581D02*
X101485700Y-126274581D01*
X101961891Y-126274581D01*
X102485700Y-126274581D02*
X102485700Y-126512676D01*
X102247605Y-126417438D02*
X102485700Y-126512676D01*
X102723796Y-126417438D01*
X102342843Y-126703152D02*
X102485700Y-126512676D01*
X102628558Y-126703152D01*
X103247605Y-126274581D02*
X103247605Y-126512676D01*
X103009510Y-126417438D02*
X103247605Y-126512676D01*
X103485701Y-126417438D01*
X103104748Y-126703152D02*
X103247605Y-126512676D01*
X103390463Y-126703152D01*
X169710267Y-61082181D02*
X169376933Y-60605990D01*
X169138838Y-61082181D02*
X169138838Y-60082181D01*
X169519791Y-60082181D01*
X169615029Y-60129800D01*
X169662648Y-60177419D01*
X169710267Y-60272657D01*
X169710267Y-60415514D01*
X169662648Y-60510752D01*
X169615029Y-60558371D01*
X169519791Y-60605990D01*
X169138838Y-60605990D01*
X170138838Y-60558371D02*
X170472172Y-60558371D01*
X170615029Y-61082181D02*
X170138838Y-61082181D01*
X170138838Y-60082181D01*
X170615029Y-60082181D01*
X171376934Y-60558371D02*
X171043600Y-60558371D01*
X171043600Y-61082181D02*
X171043600Y-60082181D01*
X171519791Y-60082181D01*
X172043600Y-60082181D02*
X172043600Y-60320276D01*
X171805505Y-60225038D02*
X172043600Y-60320276D01*
X172281696Y-60225038D01*
X171900743Y-60510752D02*
X172043600Y-60320276D01*
X172186458Y-60510752D01*
X172805505Y-60082181D02*
X172805505Y-60320276D01*
X172567410Y-60225038D02*
X172805505Y-60320276D01*
X173043601Y-60225038D01*
X172662648Y-60510752D02*
X172805505Y-60320276D01*
X172948363Y-60510752D01*
X119859143Y-80227466D02*
X119906762Y-80275085D01*
X119954381Y-80417942D01*
X119954381Y-80513180D01*
X119906762Y-80656038D01*
X119811524Y-80751276D01*
X119716286Y-80798895D01*
X119525810Y-80846514D01*
X119382952Y-80846514D01*
X119192476Y-80798895D01*
X119097238Y-80751276D01*
X119002000Y-80656038D01*
X118954381Y-80513180D01*
X118954381Y-80417942D01*
X119002000Y-80275085D01*
X119049619Y-80227466D01*
X119382952Y-79656038D02*
X119335333Y-79751276D01*
X119287714Y-79798895D01*
X119192476Y-79846514D01*
X119144857Y-79846514D01*
X119049619Y-79798895D01*
X119002000Y-79751276D01*
X118954381Y-79656038D01*
X118954381Y-79465561D01*
X119002000Y-79370323D01*
X119049619Y-79322704D01*
X119144857Y-79275085D01*
X119192476Y-79275085D01*
X119287714Y-79322704D01*
X119335333Y-79370323D01*
X119382952Y-79465561D01*
X119382952Y-79656038D01*
X119430571Y-79751276D01*
X119478190Y-79798895D01*
X119573429Y-79846514D01*
X119763905Y-79846514D01*
X119859143Y-79798895D01*
X119906762Y-79751276D01*
X119954381Y-79656038D01*
X119954381Y-79465561D01*
X119906762Y-79370323D01*
X119859143Y-79322704D01*
X119763905Y-79275085D01*
X119573429Y-79275085D01*
X119478190Y-79322704D01*
X119430571Y-79370323D01*
X119382952Y-79465561D01*
X123309143Y-88423943D02*
X123261524Y-88471562D01*
X123118667Y-88519181D01*
X123023429Y-88519181D01*
X122880571Y-88471562D01*
X122785333Y-88376324D01*
X122737714Y-88281086D01*
X122690095Y-88090610D01*
X122690095Y-87947752D01*
X122737714Y-87757276D01*
X122785333Y-87662038D01*
X122880571Y-87566800D01*
X123023429Y-87519181D01*
X123118667Y-87519181D01*
X123261524Y-87566800D01*
X123309143Y-87614419D01*
X124261524Y-88519181D02*
X123690095Y-88519181D01*
X123975809Y-88519181D02*
X123975809Y-87519181D01*
X123880571Y-87662038D01*
X123785333Y-87757276D01*
X123690095Y-87804895D01*
X124880571Y-87519181D02*
X124975810Y-87519181D01*
X125071048Y-87566800D01*
X125118667Y-87614419D01*
X125166286Y-87709657D01*
X125213905Y-87900133D01*
X125213905Y-88138229D01*
X125166286Y-88328705D01*
X125118667Y-88423943D01*
X125071048Y-88471562D01*
X124975810Y-88519181D01*
X124880571Y-88519181D01*
X124785333Y-88471562D01*
X124737714Y-88423943D01*
X124690095Y-88328705D01*
X124642476Y-88138229D01*
X124642476Y-87900133D01*
X124690095Y-87709657D01*
X124737714Y-87614419D01*
X124785333Y-87566800D01*
X124880571Y-87519181D01*
X123309143Y-91471943D02*
X123261524Y-91519562D01*
X123118667Y-91567181D01*
X123023429Y-91567181D01*
X122880571Y-91519562D01*
X122785333Y-91424324D01*
X122737714Y-91329086D01*
X122690095Y-91138610D01*
X122690095Y-90995752D01*
X122737714Y-90805276D01*
X122785333Y-90710038D01*
X122880571Y-90614800D01*
X123023429Y-90567181D01*
X123118667Y-90567181D01*
X123261524Y-90614800D01*
X123309143Y-90662419D01*
X124261524Y-91567181D02*
X123690095Y-91567181D01*
X123975809Y-91567181D02*
X123975809Y-90567181D01*
X123880571Y-90710038D01*
X123785333Y-90805276D01*
X123690095Y-90852895D01*
X125213905Y-91567181D02*
X124642476Y-91567181D01*
X124928190Y-91567181D02*
X124928190Y-90567181D01*
X124832952Y-90710038D01*
X124737714Y-90805276D01*
X124642476Y-90852895D01*
X146783143Y-102547657D02*
X146830762Y-102595276D01*
X146878381Y-102738133D01*
X146878381Y-102833371D01*
X146830762Y-102976229D01*
X146735524Y-103071467D01*
X146640286Y-103119086D01*
X146449810Y-103166705D01*
X146306952Y-103166705D01*
X146116476Y-103119086D01*
X146021238Y-103071467D01*
X145926000Y-102976229D01*
X145878381Y-102833371D01*
X145878381Y-102738133D01*
X145926000Y-102595276D01*
X145973619Y-102547657D01*
X146878381Y-101595276D02*
X146878381Y-102166705D01*
X146878381Y-101880991D02*
X145878381Y-101880991D01*
X146021238Y-101976229D01*
X146116476Y-102071467D01*
X146164095Y-102166705D01*
X145973619Y-101214324D02*
X145926000Y-101166705D01*
X145878381Y-101071467D01*
X145878381Y-100833371D01*
X145926000Y-100738133D01*
X145973619Y-100690514D01*
X146068857Y-100642895D01*
X146164095Y-100642895D01*
X146306952Y-100690514D01*
X146878381Y-101261943D01*
X146878381Y-100642895D01*
X140073143Y-114321943D02*
X140025524Y-114369562D01*
X139882667Y-114417181D01*
X139787429Y-114417181D01*
X139644571Y-114369562D01*
X139549333Y-114274324D01*
X139501714Y-114179086D01*
X139454095Y-113988610D01*
X139454095Y-113845752D01*
X139501714Y-113655276D01*
X139549333Y-113560038D01*
X139644571Y-113464800D01*
X139787429Y-113417181D01*
X139882667Y-113417181D01*
X140025524Y-113464800D01*
X140073143Y-113512419D01*
X141025524Y-114417181D02*
X140454095Y-114417181D01*
X140739809Y-114417181D02*
X140739809Y-113417181D01*
X140644571Y-113560038D01*
X140549333Y-113655276D01*
X140454095Y-113702895D01*
X141358857Y-113417181D02*
X141977905Y-113417181D01*
X141644571Y-113798133D01*
X141787429Y-113798133D01*
X141882667Y-113845752D01*
X141930286Y-113893371D01*
X141977905Y-113988610D01*
X141977905Y-114226705D01*
X141930286Y-114321943D01*
X141882667Y-114369562D01*
X141787429Y-114417181D01*
X141501714Y-114417181D01*
X141406476Y-114369562D01*
X141358857Y-114321943D01*
X134993143Y-110521943D02*
X134945524Y-110569562D01*
X134802667Y-110617181D01*
X134707429Y-110617181D01*
X134564571Y-110569562D01*
X134469333Y-110474324D01*
X134421714Y-110379086D01*
X134374095Y-110188610D01*
X134374095Y-110045752D01*
X134421714Y-109855276D01*
X134469333Y-109760038D01*
X134564571Y-109664800D01*
X134707429Y-109617181D01*
X134802667Y-109617181D01*
X134945524Y-109664800D01*
X134993143Y-109712419D01*
X135945524Y-110617181D02*
X135374095Y-110617181D01*
X135659809Y-110617181D02*
X135659809Y-109617181D01*
X135564571Y-109760038D01*
X135469333Y-109855276D01*
X135374095Y-109902895D01*
X136802667Y-109950514D02*
X136802667Y-110617181D01*
X136564571Y-109569562D02*
X136326476Y-110283848D01*
X136945524Y-110283848D01*
X127743143Y-111437657D02*
X127790762Y-111485276D01*
X127838381Y-111628133D01*
X127838381Y-111723371D01*
X127790762Y-111866229D01*
X127695524Y-111961467D01*
X127600286Y-112009086D01*
X127409810Y-112056705D01*
X127266952Y-112056705D01*
X127076476Y-112009086D01*
X126981238Y-111961467D01*
X126886000Y-111866229D01*
X126838381Y-111723371D01*
X126838381Y-111628133D01*
X126886000Y-111485276D01*
X126933619Y-111437657D01*
X127838381Y-110485276D02*
X127838381Y-111056705D01*
X127838381Y-110770991D02*
X126838381Y-110770991D01*
X126981238Y-110866229D01*
X127076476Y-110961467D01*
X127124095Y-111056705D01*
X126838381Y-109628133D02*
X126838381Y-109818610D01*
X126886000Y-109913848D01*
X126933619Y-109961467D01*
X127076476Y-110056705D01*
X127266952Y-110104324D01*
X127647905Y-110104324D01*
X127743143Y-110056705D01*
X127790762Y-110009086D01*
X127838381Y-109913848D01*
X127838381Y-109723371D01*
X127790762Y-109628133D01*
X127743143Y-109580514D01*
X127647905Y-109532895D01*
X127409810Y-109532895D01*
X127314571Y-109580514D01*
X127266952Y-109628133D01*
X127219333Y-109723371D01*
X127219333Y-109913848D01*
X127266952Y-110009086D01*
X127314571Y-110056705D01*
X127409810Y-110104324D01*
X128643143Y-103907943D02*
X128595524Y-103955562D01*
X128452667Y-104003181D01*
X128357429Y-104003181D01*
X128214571Y-103955562D01*
X128119333Y-103860324D01*
X128071714Y-103765086D01*
X128024095Y-103574610D01*
X128024095Y-103431752D01*
X128071714Y-103241276D01*
X128119333Y-103146038D01*
X128214571Y-103050800D01*
X128357429Y-103003181D01*
X128452667Y-103003181D01*
X128595524Y-103050800D01*
X128643143Y-103098419D01*
X129595524Y-104003181D02*
X129024095Y-104003181D01*
X129309809Y-104003181D02*
X129309809Y-103003181D01*
X129214571Y-103146038D01*
X129119333Y-103241276D01*
X129024095Y-103288895D01*
X129928857Y-103003181D02*
X130595524Y-103003181D01*
X130166952Y-104003181D01*
X138803143Y-83841943D02*
X138755524Y-83889562D01*
X138612667Y-83937181D01*
X138517429Y-83937181D01*
X138374571Y-83889562D01*
X138279333Y-83794324D01*
X138231714Y-83699086D01*
X138184095Y-83508610D01*
X138184095Y-83365752D01*
X138231714Y-83175276D01*
X138279333Y-83080038D01*
X138374571Y-82984800D01*
X138517429Y-82937181D01*
X138612667Y-82937181D01*
X138755524Y-82984800D01*
X138803143Y-83032419D01*
X139184095Y-83032419D02*
X139231714Y-82984800D01*
X139326952Y-82937181D01*
X139565048Y-82937181D01*
X139660286Y-82984800D01*
X139707905Y-83032419D01*
X139755524Y-83127657D01*
X139755524Y-83222895D01*
X139707905Y-83365752D01*
X139136476Y-83937181D01*
X139755524Y-83937181D01*
X140136476Y-83032419D02*
X140184095Y-82984800D01*
X140279333Y-82937181D01*
X140517429Y-82937181D01*
X140612667Y-82984800D01*
X140660286Y-83032419D01*
X140707905Y-83127657D01*
X140707905Y-83222895D01*
X140660286Y-83365752D01*
X140088857Y-83937181D01*
X140707905Y-83937181D01*
X138803143Y-82581943D02*
X138755524Y-82629562D01*
X138612667Y-82677181D01*
X138517429Y-82677181D01*
X138374571Y-82629562D01*
X138279333Y-82534324D01*
X138231714Y-82439086D01*
X138184095Y-82248610D01*
X138184095Y-82105752D01*
X138231714Y-81915276D01*
X138279333Y-81820038D01*
X138374571Y-81724800D01*
X138517429Y-81677181D01*
X138612667Y-81677181D01*
X138755524Y-81724800D01*
X138803143Y-81772419D01*
X139184095Y-81772419D02*
X139231714Y-81724800D01*
X139326952Y-81677181D01*
X139565048Y-81677181D01*
X139660286Y-81724800D01*
X139707905Y-81772419D01*
X139755524Y-81867657D01*
X139755524Y-81962895D01*
X139707905Y-82105752D01*
X139136476Y-82677181D01*
X139755524Y-82677181D01*
X140088857Y-81677181D02*
X140707905Y-81677181D01*
X140374571Y-82058133D01*
X140517429Y-82058133D01*
X140612667Y-82105752D01*
X140660286Y-82153371D01*
X140707905Y-82248610D01*
X140707905Y-82486705D01*
X140660286Y-82581943D01*
X140612667Y-82629562D01*
X140517429Y-82677181D01*
X140231714Y-82677181D01*
X140136476Y-82629562D01*
X140088857Y-82581943D01*
X150741143Y-99599943D02*
X150693524Y-99647562D01*
X150550667Y-99695181D01*
X150455429Y-99695181D01*
X150312571Y-99647562D01*
X150217333Y-99552324D01*
X150169714Y-99457086D01*
X150122095Y-99266610D01*
X150122095Y-99123752D01*
X150169714Y-98933276D01*
X150217333Y-98838038D01*
X150312571Y-98742800D01*
X150455429Y-98695181D01*
X150550667Y-98695181D01*
X150693524Y-98742800D01*
X150741143Y-98790419D01*
X151122095Y-98790419D02*
X151169714Y-98742800D01*
X151264952Y-98695181D01*
X151503048Y-98695181D01*
X151598286Y-98742800D01*
X151645905Y-98790419D01*
X151693524Y-98885657D01*
X151693524Y-98980895D01*
X151645905Y-99123752D01*
X151074476Y-99695181D01*
X151693524Y-99695181D01*
X152550667Y-99028514D02*
X152550667Y-99695181D01*
X152312571Y-98647562D02*
X152074476Y-99361848D01*
X152693524Y-99361848D01*
X150857143Y-97721657D02*
X150904762Y-97769276D01*
X150952381Y-97912133D01*
X150952381Y-98007371D01*
X150904762Y-98150229D01*
X150809524Y-98245467D01*
X150714286Y-98293086D01*
X150523810Y-98340705D01*
X150380952Y-98340705D01*
X150190476Y-98293086D01*
X150095238Y-98245467D01*
X150000000Y-98150229D01*
X149952381Y-98007371D01*
X149952381Y-97912133D01*
X150000000Y-97769276D01*
X150047619Y-97721657D01*
X150047619Y-97340705D02*
X150000000Y-97293086D01*
X149952381Y-97197848D01*
X149952381Y-96959752D01*
X150000000Y-96864514D01*
X150047619Y-96816895D01*
X150142857Y-96769276D01*
X150238095Y-96769276D01*
X150380952Y-96816895D01*
X150952381Y-97388324D01*
X150952381Y-96769276D01*
X149952381Y-95864514D02*
X149952381Y-96340705D01*
X150428571Y-96388324D01*
X150380952Y-96340705D01*
X150333333Y-96245467D01*
X150333333Y-96007371D01*
X150380952Y-95912133D01*
X150428571Y-95864514D01*
X150523810Y-95816895D01*
X150761905Y-95816895D01*
X150857143Y-95864514D01*
X150904762Y-95912133D01*
X150952381Y-96007371D01*
X150952381Y-96245467D01*
X150904762Y-96340705D01*
X150857143Y-96388324D01*
X148808381Y-116612895D02*
X147808381Y-116612895D01*
X147808381Y-116231942D01*
X147856000Y-116136704D01*
X147903619Y-116089085D01*
X147998857Y-116041466D01*
X148141714Y-116041466D01*
X148236952Y-116089085D01*
X148284571Y-116136704D01*
X148332190Y-116231942D01*
X148332190Y-116612895D01*
X147903619Y-115660514D02*
X147856000Y-115612895D01*
X147808381Y-115517657D01*
X147808381Y-115279561D01*
X147856000Y-115184323D01*
X147903619Y-115136704D01*
X147998857Y-115089085D01*
X148094095Y-115089085D01*
X148236952Y-115136704D01*
X148808381Y-115708133D01*
X148808381Y-115089085D01*
X153868381Y-72162895D02*
X152868381Y-72162895D01*
X152868381Y-71781942D01*
X152916000Y-71686704D01*
X152963619Y-71639085D01*
X153058857Y-71591466D01*
X153201714Y-71591466D01*
X153296952Y-71639085D01*
X153344571Y-71686704D01*
X153392190Y-71781942D01*
X153392190Y-72162895D01*
X152868381Y-71258133D02*
X152868381Y-70639085D01*
X153249333Y-70972419D01*
X153249333Y-70829561D01*
X153296952Y-70734323D01*
X153344571Y-70686704D01*
X153439810Y-70639085D01*
X153677905Y-70639085D01*
X153773143Y-70686704D01*
X153820762Y-70734323D01*
X153868381Y-70829561D01*
X153868381Y-71115276D01*
X153820762Y-71210514D01*
X153773143Y-71258133D01*
X113307905Y-79517181D02*
X113307905Y-78517181D01*
X113688858Y-78517181D01*
X113784096Y-78564800D01*
X113831715Y-78612419D01*
X113879334Y-78707657D01*
X113879334Y-78850514D01*
X113831715Y-78945752D01*
X113784096Y-78993371D01*
X113688858Y-79040990D01*
X113307905Y-79040990D01*
X114736477Y-78850514D02*
X114736477Y-79517181D01*
X114498381Y-78469562D02*
X114260286Y-79183848D01*
X114879334Y-79183848D01*
X119578381Y-116612895D02*
X118578381Y-116612895D01*
X118578381Y-116231942D01*
X118626000Y-116136704D01*
X118673619Y-116089085D01*
X118768857Y-116041466D01*
X118911714Y-116041466D01*
X119006952Y-116089085D01*
X119054571Y-116136704D01*
X119102190Y-116231942D01*
X119102190Y-116612895D01*
X118578381Y-115136704D02*
X118578381Y-115612895D01*
X119054571Y-115660514D01*
X119006952Y-115612895D01*
X118959333Y-115517657D01*
X118959333Y-115279561D01*
X119006952Y-115184323D01*
X119054571Y-115136704D01*
X119149810Y-115089085D01*
X119387905Y-115089085D01*
X119483143Y-115136704D01*
X119530762Y-115184323D01*
X119578381Y-115279561D01*
X119578381Y-115517657D01*
X119530762Y-115612895D01*
X119483143Y-115660514D01*
X157757905Y-108687181D02*
X157757905Y-107687181D01*
X158138858Y-107687181D01*
X158234096Y-107734800D01*
X158281715Y-107782419D01*
X158329334Y-107877657D01*
X158329334Y-108020514D01*
X158281715Y-108115752D01*
X158234096Y-108163371D01*
X158138858Y-108210990D01*
X157757905Y-108210990D01*
X159186477Y-107687181D02*
X158996000Y-107687181D01*
X158900762Y-107734800D01*
X158853143Y-107782419D01*
X158757905Y-107925276D01*
X158710286Y-108115752D01*
X158710286Y-108496705D01*
X158757905Y-108591943D01*
X158805524Y-108639562D01*
X158900762Y-108687181D01*
X159091239Y-108687181D01*
X159186477Y-108639562D01*
X159234096Y-108591943D01*
X159281715Y-108496705D01*
X159281715Y-108258610D01*
X159234096Y-108163371D01*
X159186477Y-108115752D01*
X159091239Y-108068133D01*
X158900762Y-108068133D01*
X158805524Y-108115752D01*
X158757905Y-108163371D01*
X158710286Y-108258610D01*
X154590762Y-74802419D02*
X154495524Y-74754800D01*
X154400286Y-74659562D01*
X154257429Y-74516705D01*
X154162190Y-74469086D01*
X154066952Y-74469086D01*
X154114571Y-74707181D02*
X154019333Y-74659562D01*
X153924095Y-74564324D01*
X153876476Y-74373848D01*
X153876476Y-74040514D01*
X153924095Y-73850038D01*
X154019333Y-73754800D01*
X154114571Y-73707181D01*
X154305048Y-73707181D01*
X154400286Y-73754800D01*
X154495524Y-73850038D01*
X154543143Y-74040514D01*
X154543143Y-74373848D01*
X154495524Y-74564324D01*
X154400286Y-74659562D01*
X154305048Y-74707181D01*
X154114571Y-74707181D01*
X155495524Y-74707181D02*
X154924095Y-74707181D01*
X155209809Y-74707181D02*
X155209809Y-73707181D01*
X155114571Y-73850038D01*
X155019333Y-73945276D01*
X154924095Y-73992895D01*
X123955619Y-80156038D02*
X123908000Y-80251276D01*
X123812762Y-80346514D01*
X123669905Y-80489371D01*
X123622286Y-80584610D01*
X123622286Y-80679848D01*
X123860381Y-80632229D02*
X123812762Y-80727467D01*
X123717524Y-80822705D01*
X123527048Y-80870324D01*
X123193714Y-80870324D01*
X123003238Y-80822705D01*
X122908000Y-80727467D01*
X122860381Y-80632229D01*
X122860381Y-80441752D01*
X122908000Y-80346514D01*
X123003238Y-80251276D01*
X123193714Y-80203657D01*
X123527048Y-80203657D01*
X123717524Y-80251276D01*
X123812762Y-80346514D01*
X123860381Y-80441752D01*
X123860381Y-80632229D01*
X122955619Y-79822705D02*
X122908000Y-79775086D01*
X122860381Y-79679848D01*
X122860381Y-79441752D01*
X122908000Y-79346514D01*
X122955619Y-79298895D01*
X123050857Y-79251276D01*
X123146095Y-79251276D01*
X123288952Y-79298895D01*
X123860381Y-79870324D01*
X123860381Y-79251276D01*
X117423619Y-75330038D02*
X117376000Y-75425276D01*
X117280762Y-75520514D01*
X117137905Y-75663371D01*
X117090286Y-75758610D01*
X117090286Y-75853848D01*
X117328381Y-75806229D02*
X117280762Y-75901467D01*
X117185524Y-75996705D01*
X116995048Y-76044324D01*
X116661714Y-76044324D01*
X116471238Y-75996705D01*
X116376000Y-75901467D01*
X116328381Y-75806229D01*
X116328381Y-75615752D01*
X116376000Y-75520514D01*
X116471238Y-75425276D01*
X116661714Y-75377657D01*
X116995048Y-75377657D01*
X117185524Y-75425276D01*
X117280762Y-75520514D01*
X117328381Y-75615752D01*
X117328381Y-75806229D01*
X116328381Y-75044324D02*
X116328381Y-74425276D01*
X116709333Y-74758610D01*
X116709333Y-74615752D01*
X116756952Y-74520514D01*
X116804571Y-74472895D01*
X116899810Y-74425276D01*
X117137905Y-74425276D01*
X117233143Y-74472895D01*
X117280762Y-74520514D01*
X117328381Y-74615752D01*
X117328381Y-74901467D01*
X117280762Y-74996705D01*
X117233143Y-75044324D01*
X124110762Y-113592419D02*
X124015524Y-113544800D01*
X123920286Y-113449562D01*
X123777429Y-113306705D01*
X123682190Y-113259086D01*
X123586952Y-113259086D01*
X123634571Y-113497181D02*
X123539333Y-113449562D01*
X123444095Y-113354324D01*
X123396476Y-113163848D01*
X123396476Y-112830514D01*
X123444095Y-112640038D01*
X123539333Y-112544800D01*
X123634571Y-112497181D01*
X123825048Y-112497181D01*
X123920286Y-112544800D01*
X124015524Y-112640038D01*
X124063143Y-112830514D01*
X124063143Y-113163848D01*
X124015524Y-113354324D01*
X123920286Y-113449562D01*
X123825048Y-113497181D01*
X123634571Y-113497181D01*
X124920286Y-112830514D02*
X124920286Y-113497181D01*
X124682190Y-112449562D02*
X124444095Y-113163848D01*
X125063143Y-113163848D01*
X156213619Y-112160038D02*
X156166000Y-112255276D01*
X156070762Y-112350514D01*
X155927905Y-112493371D01*
X155880286Y-112588610D01*
X155880286Y-112683848D01*
X156118381Y-112636229D02*
X156070762Y-112731467D01*
X155975524Y-112826705D01*
X155785048Y-112874324D01*
X155451714Y-112874324D01*
X155261238Y-112826705D01*
X155166000Y-112731467D01*
X155118381Y-112636229D01*
X155118381Y-112445752D01*
X155166000Y-112350514D01*
X155261238Y-112255276D01*
X155451714Y-112207657D01*
X155785048Y-112207657D01*
X155975524Y-112255276D01*
X156070762Y-112350514D01*
X156118381Y-112445752D01*
X156118381Y-112636229D01*
X155118381Y-111302895D02*
X155118381Y-111779086D01*
X155594571Y-111826705D01*
X155546952Y-111779086D01*
X155499333Y-111683848D01*
X155499333Y-111445752D01*
X155546952Y-111350514D01*
X155594571Y-111302895D01*
X155689810Y-111255276D01*
X155927905Y-111255276D01*
X156023143Y-111302895D01*
X156070762Y-111350514D01*
X156118381Y-111445752D01*
X156118381Y-111683848D01*
X156070762Y-111779086D01*
X156023143Y-111826705D01*
X128357334Y-86731181D02*
X128024000Y-86254990D01*
X127785905Y-86731181D02*
X127785905Y-85731181D01*
X128166858Y-85731181D01*
X128262096Y-85778800D01*
X128309715Y-85826419D01*
X128357334Y-85921657D01*
X128357334Y-86064514D01*
X128309715Y-86159752D01*
X128262096Y-86207371D01*
X128166858Y-86254990D01*
X127785905Y-86254990D01*
X129309715Y-86731181D02*
X128738286Y-86731181D01*
X129024000Y-86731181D02*
X129024000Y-85731181D01*
X128928762Y-85874038D01*
X128833524Y-85969276D01*
X128738286Y-86016895D01*
X121742381Y-98261466D02*
X121266190Y-98594800D01*
X121742381Y-98832895D02*
X120742381Y-98832895D01*
X120742381Y-98451942D01*
X120790000Y-98356704D01*
X120837619Y-98309085D01*
X120932857Y-98261466D01*
X121075714Y-98261466D01*
X121170952Y-98309085D01*
X121218571Y-98356704D01*
X121266190Y-98451942D01*
X121266190Y-98832895D01*
X120837619Y-97880514D02*
X120790000Y-97832895D01*
X120742381Y-97737657D01*
X120742381Y-97499561D01*
X120790000Y-97404323D01*
X120837619Y-97356704D01*
X120932857Y-97309085D01*
X121028095Y-97309085D01*
X121170952Y-97356704D01*
X121742381Y-97928133D01*
X121742381Y-97309085D01*
X118959334Y-87747181D02*
X118626000Y-87270990D01*
X118387905Y-87747181D02*
X118387905Y-86747181D01*
X118768858Y-86747181D01*
X118864096Y-86794800D01*
X118911715Y-86842419D01*
X118959334Y-86937657D01*
X118959334Y-87080514D01*
X118911715Y-87175752D01*
X118864096Y-87223371D01*
X118768858Y-87270990D01*
X118387905Y-87270990D01*
X119816477Y-87080514D02*
X119816477Y-87747181D01*
X119578381Y-86699562D02*
X119340286Y-87413848D01*
X119959334Y-87413848D01*
X128082381Y-98261466D02*
X127606190Y-98594800D01*
X128082381Y-98832895D02*
X127082381Y-98832895D01*
X127082381Y-98451942D01*
X127130000Y-98356704D01*
X127177619Y-98309085D01*
X127272857Y-98261466D01*
X127415714Y-98261466D01*
X127510952Y-98309085D01*
X127558571Y-98356704D01*
X127606190Y-98451942D01*
X127606190Y-98832895D01*
X127082381Y-97404323D02*
X127082381Y-97594800D01*
X127130000Y-97690038D01*
X127177619Y-97737657D01*
X127320476Y-97832895D01*
X127510952Y-97880514D01*
X127891905Y-97880514D01*
X127987143Y-97832895D01*
X128034762Y-97785276D01*
X128082381Y-97690038D01*
X128082381Y-97499561D01*
X128034762Y-97404323D01*
X127987143Y-97356704D01*
X127891905Y-97309085D01*
X127653810Y-97309085D01*
X127558571Y-97356704D01*
X127510952Y-97404323D01*
X127463333Y-97499561D01*
X127463333Y-97690038D01*
X127510952Y-97785276D01*
X127558571Y-97832895D01*
X127653810Y-97880514D01*
X130368381Y-98261466D02*
X129892190Y-98594800D01*
X130368381Y-98832895D02*
X129368381Y-98832895D01*
X129368381Y-98451942D01*
X129416000Y-98356704D01*
X129463619Y-98309085D01*
X129558857Y-98261466D01*
X129701714Y-98261466D01*
X129796952Y-98309085D01*
X129844571Y-98356704D01*
X129892190Y-98451942D01*
X129892190Y-98832895D01*
X129368381Y-97928133D02*
X129368381Y-97261466D01*
X130368381Y-97690038D01*
X146878381Y-108675466D02*
X146402190Y-109008800D01*
X146878381Y-109246895D02*
X145878381Y-109246895D01*
X145878381Y-108865942D01*
X145926000Y-108770704D01*
X145973619Y-108723085D01*
X146068857Y-108675466D01*
X146211714Y-108675466D01*
X146306952Y-108723085D01*
X146354571Y-108770704D01*
X146402190Y-108865942D01*
X146402190Y-109246895D01*
X146878381Y-108199276D02*
X146878381Y-108008800D01*
X146830762Y-107913561D01*
X146783143Y-107865942D01*
X146640286Y-107770704D01*
X146449810Y-107723085D01*
X146068857Y-107723085D01*
X145973619Y-107770704D01*
X145926000Y-107818323D01*
X145878381Y-107913561D01*
X145878381Y-108104038D01*
X145926000Y-108199276D01*
X145973619Y-108246895D01*
X146068857Y-108294514D01*
X146306952Y-108294514D01*
X146402190Y-108246895D01*
X146449810Y-108199276D01*
X146497429Y-108104038D01*
X146497429Y-107913561D01*
X146449810Y-107818323D01*
X146402190Y-107770704D01*
X146306952Y-107723085D01*
X123563143Y-105537181D02*
X123229809Y-105060990D01*
X122991714Y-105537181D02*
X122991714Y-104537181D01*
X123372667Y-104537181D01*
X123467905Y-104584800D01*
X123515524Y-104632419D01*
X123563143Y-104727657D01*
X123563143Y-104870514D01*
X123515524Y-104965752D01*
X123467905Y-105013371D01*
X123372667Y-105060990D01*
X122991714Y-105060990D01*
X124515524Y-105537181D02*
X123944095Y-105537181D01*
X124229809Y-105537181D02*
X124229809Y-104537181D01*
X124134571Y-104680038D01*
X124039333Y-104775276D01*
X123944095Y-104822895D01*
X125134571Y-104537181D02*
X125229810Y-104537181D01*
X125325048Y-104584800D01*
X125372667Y-104632419D01*
X125420286Y-104727657D01*
X125467905Y-104918133D01*
X125467905Y-105156229D01*
X125420286Y-105346705D01*
X125372667Y-105441943D01*
X125325048Y-105489562D01*
X125229810Y-105537181D01*
X125134571Y-105537181D01*
X125039333Y-105489562D01*
X124991714Y-105441943D01*
X124944095Y-105346705D01*
X124896476Y-105156229D01*
X124896476Y-104918133D01*
X124944095Y-104727657D01*
X124991714Y-104632419D01*
X125039333Y-104584800D01*
X125134571Y-104537181D01*
X157048381Y-77147657D02*
X156572190Y-77480991D01*
X157048381Y-77719086D02*
X156048381Y-77719086D01*
X156048381Y-77338133D01*
X156096000Y-77242895D01*
X156143619Y-77195276D01*
X156238857Y-77147657D01*
X156381714Y-77147657D01*
X156476952Y-77195276D01*
X156524571Y-77242895D01*
X156572190Y-77338133D01*
X156572190Y-77719086D01*
X157048381Y-76195276D02*
X157048381Y-76766705D01*
X157048381Y-76480991D02*
X156048381Y-76480991D01*
X156191238Y-76576229D01*
X156286476Y-76671467D01*
X156334095Y-76766705D01*
X157048381Y-75242895D02*
X157048381Y-75814324D01*
X157048381Y-75528610D02*
X156048381Y-75528610D01*
X156191238Y-75623848D01*
X156286476Y-75719086D01*
X156334095Y-75814324D01*
X151503143Y-102997181D02*
X151169809Y-102520990D01*
X150931714Y-102997181D02*
X150931714Y-101997181D01*
X151312667Y-101997181D01*
X151407905Y-102044800D01*
X151455524Y-102092419D01*
X151503143Y-102187657D01*
X151503143Y-102330514D01*
X151455524Y-102425752D01*
X151407905Y-102473371D01*
X151312667Y-102520990D01*
X150931714Y-102520990D01*
X152455524Y-102997181D02*
X151884095Y-102997181D01*
X152169809Y-102997181D02*
X152169809Y-101997181D01*
X152074571Y-102140038D01*
X151979333Y-102235276D01*
X151884095Y-102282895D01*
X152836476Y-102092419D02*
X152884095Y-102044800D01*
X152979333Y-101997181D01*
X153217429Y-101997181D01*
X153312667Y-102044800D01*
X153360286Y-102092419D01*
X153407905Y-102187657D01*
X153407905Y-102282895D01*
X153360286Y-102425752D01*
X152788857Y-102997181D01*
X153407905Y-102997181D01*
X118483143Y-73777181D02*
X118149809Y-73300990D01*
X117911714Y-73777181D02*
X117911714Y-72777181D01*
X118292667Y-72777181D01*
X118387905Y-72824800D01*
X118435524Y-72872419D01*
X118483143Y-72967657D01*
X118483143Y-73110514D01*
X118435524Y-73205752D01*
X118387905Y-73253371D01*
X118292667Y-73300990D01*
X117911714Y-73300990D01*
X119435524Y-73777181D02*
X118864095Y-73777181D01*
X119149809Y-73777181D02*
X119149809Y-72777181D01*
X119054571Y-72920038D01*
X118959333Y-73015276D01*
X118864095Y-73062895D01*
X119768857Y-72777181D02*
X120387905Y-72777181D01*
X120054571Y-73158133D01*
X120197429Y-73158133D01*
X120292667Y-73205752D01*
X120340286Y-73253371D01*
X120387905Y-73348610D01*
X120387905Y-73586705D01*
X120340286Y-73681943D01*
X120292667Y-73729562D01*
X120197429Y-73777181D01*
X119911714Y-73777181D01*
X119816476Y-73729562D01*
X119768857Y-73681943D01*
X127881143Y-84445181D02*
X127547809Y-83968990D01*
X127309714Y-84445181D02*
X127309714Y-83445181D01*
X127690667Y-83445181D01*
X127785905Y-83492800D01*
X127833524Y-83540419D01*
X127881143Y-83635657D01*
X127881143Y-83778514D01*
X127833524Y-83873752D01*
X127785905Y-83921371D01*
X127690667Y-83968990D01*
X127309714Y-83968990D01*
X128833524Y-84445181D02*
X128262095Y-84445181D01*
X128547809Y-84445181D02*
X128547809Y-83445181D01*
X128452571Y-83588038D01*
X128357333Y-83683276D01*
X128262095Y-83730895D01*
X129690667Y-83778514D02*
X129690667Y-84445181D01*
X129452571Y-83397562D02*
X129214476Y-84111848D01*
X129833524Y-84111848D01*
X118948381Y-111437657D02*
X118472190Y-111770991D01*
X118948381Y-112009086D02*
X117948381Y-112009086D01*
X117948381Y-111628133D01*
X117996000Y-111532895D01*
X118043619Y-111485276D01*
X118138857Y-111437657D01*
X118281714Y-111437657D01*
X118376952Y-111485276D01*
X118424571Y-111532895D01*
X118472190Y-111628133D01*
X118472190Y-112009086D01*
X118948381Y-110485276D02*
X118948381Y-111056705D01*
X118948381Y-110770991D02*
X117948381Y-110770991D01*
X118091238Y-110866229D01*
X118186476Y-110961467D01*
X118234095Y-111056705D01*
X117948381Y-109580514D02*
X117948381Y-110056705D01*
X118424571Y-110104324D01*
X118376952Y-110056705D01*
X118329333Y-109961467D01*
X118329333Y-109723371D01*
X118376952Y-109628133D01*
X118424571Y-109580514D01*
X118519810Y-109532895D01*
X118757905Y-109532895D01*
X118853143Y-109580514D01*
X118900762Y-109628133D01*
X118948381Y-109723371D01*
X118948381Y-109961467D01*
X118900762Y-110056705D01*
X118853143Y-110104324D01*
X152773143Y-114427181D02*
X152439809Y-113950990D01*
X152201714Y-114427181D02*
X152201714Y-113427181D01*
X152582667Y-113427181D01*
X152677905Y-113474800D01*
X152725524Y-113522419D01*
X152773143Y-113617657D01*
X152773143Y-113760514D01*
X152725524Y-113855752D01*
X152677905Y-113903371D01*
X152582667Y-113950990D01*
X152201714Y-113950990D01*
X153725524Y-114427181D02*
X153154095Y-114427181D01*
X153439809Y-114427181D02*
X153439809Y-113427181D01*
X153344571Y-113570038D01*
X153249333Y-113665276D01*
X153154095Y-113712895D01*
X154582667Y-113427181D02*
X154392190Y-113427181D01*
X154296952Y-113474800D01*
X154249333Y-113522419D01*
X154154095Y-113665276D01*
X154106476Y-113855752D01*
X154106476Y-114236705D01*
X154154095Y-114331943D01*
X154201714Y-114379562D01*
X154296952Y-114427181D01*
X154487429Y-114427181D01*
X154582667Y-114379562D01*
X154630286Y-114331943D01*
X154677905Y-114236705D01*
X154677905Y-113998610D01*
X154630286Y-113903371D01*
X154582667Y-113855752D01*
X154487429Y-113808133D01*
X154296952Y-113808133D01*
X154201714Y-113855752D01*
X154154095Y-113903371D01*
X154106476Y-113998610D01*
X136144095Y-99667181D02*
X136144095Y-100476705D01*
X136191714Y-100571943D01*
X136239333Y-100619562D01*
X136334571Y-100667181D01*
X136525048Y-100667181D01*
X136620286Y-100619562D01*
X136667905Y-100571943D01*
X136715524Y-100476705D01*
X136715524Y-99667181D01*
X137144095Y-99762419D02*
X137191714Y-99714800D01*
X137286952Y-99667181D01*
X137525048Y-99667181D01*
X137620286Y-99714800D01*
X137667905Y-99762419D01*
X137715524Y-99857657D01*
X137715524Y-99952895D01*
X137667905Y-100095752D01*
X137096476Y-100667181D01*
X137715524Y-100667181D01*
X137414095Y-101792181D02*
X137414095Y-102601705D01*
X137461714Y-102696943D01*
X137509333Y-102744562D01*
X137604571Y-102792181D01*
X137795048Y-102792181D01*
X137890286Y-102744562D01*
X137937905Y-102696943D01*
X137985524Y-102601705D01*
X137985524Y-101792181D01*
X138366476Y-101792181D02*
X138985524Y-101792181D01*
X138652190Y-102173133D01*
X138795048Y-102173133D01*
X138890286Y-102220752D01*
X138937905Y-102268371D01*
X138985524Y-102363610D01*
X138985524Y-102601705D01*
X138937905Y-102696943D01*
X138890286Y-102744562D01*
X138795048Y-102792181D01*
X138509333Y-102792181D01*
X138414095Y-102744562D01*
X138366476Y-102696943D01*
X118314095Y-88647181D02*
X118314095Y-89456705D01*
X118361714Y-89551943D01*
X118409333Y-89599562D01*
X118504571Y-89647181D01*
X118695048Y-89647181D01*
X118790286Y-89599562D01*
X118837905Y-89551943D01*
X118885524Y-89456705D01*
X118885524Y-88647181D01*
X119790286Y-88647181D02*
X119599809Y-88647181D01*
X119504571Y-88694800D01*
X119456952Y-88742419D01*
X119361714Y-88885276D01*
X119314095Y-89075752D01*
X119314095Y-89456705D01*
X119361714Y-89551943D01*
X119409333Y-89599562D01*
X119504571Y-89647181D01*
X119695048Y-89647181D01*
X119790286Y-89599562D01*
X119837905Y-89551943D01*
X119885524Y-89456705D01*
X119885524Y-89218610D01*
X119837905Y-89123371D01*
X119790286Y-89075752D01*
X119695048Y-89028133D01*
X119504571Y-89028133D01*
X119409333Y-89075752D01*
X119361714Y-89123371D01*
X119314095Y-89218610D01*
X125888381Y-106476705D02*
X126697905Y-106476705D01*
X126793143Y-106429086D01*
X126840762Y-106381467D01*
X126888381Y-106286229D01*
X126888381Y-106095752D01*
X126840762Y-106000514D01*
X126793143Y-105952895D01*
X126697905Y-105905276D01*
X125888381Y-105905276D01*
X125888381Y-105524324D02*
X125888381Y-104857657D01*
X126888381Y-105286229D01*
X141438381Y-87474324D02*
X142438381Y-86807657D01*
X141438381Y-86807657D02*
X142438381Y-87474324D01*
X142438381Y-85902895D02*
X142438381Y-86474324D01*
X142438381Y-86188610D02*
X141438381Y-86188610D01*
X141581238Y-86283848D01*
X141676476Y-86379086D01*
X141724095Y-86474324D01*
X150328381Y-97634324D02*
X151328381Y-96967657D01*
X150328381Y-96967657D02*
X151328381Y-97634324D01*
X150423619Y-96634324D02*
X150376000Y-96586705D01*
X150328381Y-96491467D01*
X150328381Y-96253371D01*
X150376000Y-96158133D01*
X150423619Y-96110514D01*
X150518857Y-96062895D01*
X150614095Y-96062895D01*
X150756952Y-96110514D01*
X151328381Y-96681943D01*
X151328381Y-96062895D01*
X133568381Y-116612895D02*
X132568381Y-116612895D01*
X133568381Y-116041466D02*
X132996952Y-116470038D01*
X132568381Y-116041466D02*
X133139810Y-116612895D01*
X133568381Y-115089085D02*
X133568381Y-115660514D01*
X133568381Y-115374800D02*
X132568381Y-115374800D01*
X132711238Y-115470038D01*
X132806476Y-115565276D01*
X132854095Y-115660514D01*
X116482762Y-82156133D02*
X116530381Y-82013276D01*
X116530381Y-81775180D01*
X116482762Y-81679942D01*
X116435143Y-81632323D01*
X116339905Y-81584704D01*
X116244667Y-81584704D01*
X116149429Y-81632323D01*
X116101810Y-81679942D01*
X116054190Y-81775180D01*
X116006571Y-81965657D01*
X115958952Y-82060895D01*
X115911333Y-82108514D01*
X115816095Y-82156133D01*
X115720857Y-82156133D01*
X115625619Y-82108514D01*
X115578000Y-82060895D01*
X115530381Y-81965657D01*
X115530381Y-81727561D01*
X115578000Y-81584704D01*
X115530381Y-81251371D02*
X116530381Y-81013276D01*
X115816095Y-80822799D01*
X116530381Y-80632323D01*
X115530381Y-80394228D01*
X115625619Y-80060895D02*
X115578000Y-80013276D01*
X115530381Y-79918038D01*
X115530381Y-79679942D01*
X115578000Y-79584704D01*
X115625619Y-79537085D01*
X115720857Y-79489466D01*
X115816095Y-79489466D01*
X115958952Y-79537085D01*
X116530381Y-80108514D01*
X116530381Y-79489466D01*
X116990762Y-90538133D02*
X117038381Y-90395276D01*
X117038381Y-90157180D01*
X116990762Y-90061942D01*
X116943143Y-90014323D01*
X116847905Y-89966704D01*
X116752667Y-89966704D01*
X116657429Y-90014323D01*
X116609810Y-90061942D01*
X116562190Y-90157180D01*
X116514571Y-90347657D01*
X116466952Y-90442895D01*
X116419333Y-90490514D01*
X116324095Y-90538133D01*
X116228857Y-90538133D01*
X116133619Y-90490514D01*
X116086000Y-90442895D01*
X116038381Y-90347657D01*
X116038381Y-90109561D01*
X116086000Y-89966704D01*
X116038381Y-89633371D02*
X117038381Y-89395276D01*
X116324095Y-89204799D01*
X117038381Y-89014323D01*
X116038381Y-88776228D01*
X117038381Y-87871466D02*
X117038381Y-88442895D01*
X117038381Y-88157181D02*
X116038381Y-88157181D01*
X116181238Y-88252419D01*
X116276476Y-88347657D01*
X116324095Y-88442895D01*
X119558381Y-74702895D02*
X118558381Y-74702895D01*
X118558381Y-74321942D01*
X118606000Y-74226704D01*
X118653619Y-74179085D01*
X118748857Y-74131466D01*
X118891714Y-74131466D01*
X118986952Y-74179085D01*
X119034571Y-74226704D01*
X119082190Y-74321942D01*
X119082190Y-74702895D01*
X118558381Y-73798133D02*
X118558381Y-73131466D01*
X119558381Y-73560038D01*
X119218381Y-107722895D02*
X118218381Y-107722895D01*
X118218381Y-107341942D01*
X118266000Y-107246704D01*
X118313619Y-107199085D01*
X118408857Y-107151466D01*
X118551714Y-107151466D01*
X118646952Y-107199085D01*
X118694571Y-107246704D01*
X118742190Y-107341942D01*
X118742190Y-107722895D01*
X118646952Y-106580038D02*
X118599333Y-106675276D01*
X118551714Y-106722895D01*
X118456476Y-106770514D01*
X118408857Y-106770514D01*
X118313619Y-106722895D01*
X118266000Y-106675276D01*
X118218381Y-106580038D01*
X118218381Y-106389561D01*
X118266000Y-106294323D01*
X118313619Y-106246704D01*
X118408857Y-106199085D01*
X118456476Y-106199085D01*
X118551714Y-106246704D01*
X118599333Y-106294323D01*
X118646952Y-106389561D01*
X118646952Y-106580038D01*
X118694571Y-106675276D01*
X118742190Y-106722895D01*
X118837429Y-106770514D01*
X119027905Y-106770514D01*
X119123143Y-106722895D01*
X119170762Y-106675276D01*
X119218381Y-106580038D01*
X119218381Y-106389561D01*
X119170762Y-106294323D01*
X119123143Y-106246704D01*
X119027905Y-106199085D01*
X118837429Y-106199085D01*
X118742190Y-106246704D01*
X118694571Y-106294323D01*
X118646952Y-106389561D01*
X97180567Y-58618381D02*
X96847233Y-58142190D01*
X96609138Y-58618381D02*
X96609138Y-57618381D01*
X96990091Y-57618381D01*
X97085329Y-57666000D01*
X97132948Y-57713619D01*
X97180567Y-57808857D01*
X97180567Y-57951714D01*
X97132948Y-58046952D01*
X97085329Y-58094571D01*
X96990091Y-58142190D01*
X96609138Y-58142190D01*
X97609138Y-58094571D02*
X97942472Y-58094571D01*
X98085329Y-58618381D02*
X97609138Y-58618381D01*
X97609138Y-57618381D01*
X98085329Y-57618381D01*
X98847234Y-58094571D02*
X98513900Y-58094571D01*
X98513900Y-58618381D02*
X98513900Y-57618381D01*
X98990091Y-57618381D01*
X99513900Y-57618381D02*
X99513900Y-57856476D01*
X99275805Y-57761238D02*
X99513900Y-57856476D01*
X99751996Y-57761238D01*
X99371043Y-58046952D02*
X99513900Y-57856476D01*
X99656758Y-58046952D01*
X100275805Y-57618381D02*
X100275805Y-57856476D01*
X100037710Y-57761238D02*
X100275805Y-57856476D01*
X100513901Y-57761238D01*
X100132948Y-58046952D02*
X100275805Y-57856476D01*
X100418663Y-58046952D01*
M02*
