G04 #@! TF.FileFunction,Profile,NP*
%FSLAX46Y46*%
G04 Gerber Fmt 4.6, Leading zero omitted, Abs format (unit mm)*
G04 Created by KiCad (PCBNEW 4.0.2+dfsg1-stable) date 2016年07月17日 星期日 15时22分32秒*
%MOMM*%
G01*
G04 APERTURE LIST*
%ADD10C,0.100000*%
G04 APERTURE END LIST*
D10*
X94407000Y-129492943D02*
G75*
G03X100368100Y-135813800I-1138200J-7044757D01*
G01*
X100368100Y-135712200D02*
X100368100Y-135801100D01*
X111480600Y-112471200D02*
X111493300Y-112471200D01*
X94437200Y-129514600D02*
X111480600Y-112471200D01*
X111493300Y-112496600D02*
X111455200Y-112496600D01*
X111493300Y-75069700D02*
X111493300Y-112496600D01*
X111493300Y-112471200D02*
X111493300Y-112420400D01*
X172224700Y-135407400D02*
X155232100Y-118414800D01*
X186080400Y-143535400D02*
X186080400Y-143560800D01*
X172189128Y-135434131D02*
G75*
G03X178308000Y-129667000I6817372J-1103569D01*
G01*
X100380800Y-135699500D02*
X117678200Y-118402100D01*
X143535400Y-29641800D02*
X143535400Y-29616400D01*
X177958574Y-57694885D02*
G75*
G03X172161200Y-51638200I1047926J6805985D01*
G01*
X100124090Y-51752817D02*
G75*
G03X94208600Y-57734200I-6855290J863917D01*
G01*
X117246400Y-68897500D02*
X117233700Y-68897500D01*
X117297200Y-68948300D02*
X117246400Y-68897500D01*
X154838400Y-68948300D02*
X117297200Y-68948300D01*
X155244800Y-118402100D02*
X155371800Y-118529100D01*
X117627400Y-118402100D02*
X155244800Y-118402100D01*
X160997900Y-112255300D02*
X161112200Y-112369600D01*
X160997900Y-74714100D02*
X160997900Y-112255300D01*
X111493300Y-75044300D02*
X111480600Y-75044300D01*
X178117500Y-57581800D02*
X160997900Y-74701400D01*
X172148500Y-51638200D02*
X154851100Y-68935600D01*
X178435000Y-129679700D02*
X161137600Y-112382300D01*
X94183200Y-57746900D02*
X111480600Y-75044300D01*
X100126800Y-51777900D02*
X117246400Y-68897500D01*
X187375800Y-43865800D02*
X187375800Y-43738800D01*
X186080400Y-29972000D02*
X186055000Y-29972000D01*
X186080400Y-30353000D02*
X186080400Y-29972000D01*
X429361600Y-44348400D02*
X429361600Y-44627800D01*
X86436200Y-43865800D02*
X86436200Y-43840400D01*
M02*
