M48
INCH,TZ
T1C0.016
T2C0.020
T3C0.022
T4C0.024
T5C0.032
T6C0.040
T7C0.280
%
G90
G05
T1
X44123Y-35438
X46487Y-41601
X46804Y-38360
X46900Y-34736
X47770Y-39053
X47965Y-31107
X48890Y-37698
X48910Y-33156
X48939Y-40386
X49192Y-31352
X49432Y-40334
X49773Y-39485
X49776Y-32004
X50020Y-33606
X50046Y-37112
X50088Y-31286
X50211Y-43942
X50231Y-42187
X50745Y-30489
X50899Y-30161
X51005Y-37584
X51005Y-39634
X51200Y-40620
X51356Y-39669
X51485Y-43246
X51698Y-41023
X51749Y-42112
X52186Y-35558
X52215Y-34921
X52344Y-42414
X52344Y-44546
X52419Y-33795
X52486Y-37598
X52643Y-38152
X52655Y-35616
X53073Y-39487
X53400Y-39482
X53527Y-36678
X53611Y-34840
X54018Y-32918
X54091Y-40476
X54677Y-33815
X54857Y-36711
X55175Y-33972
X55245Y-36605
X55543Y-42112
X55626Y-34366
X55633Y-38965
X55989Y-42683
X56171Y-38349
X56635Y-36864
X56767Y-38352
X56832Y-35931
X56899Y-36556
X57275Y-35474
X57300Y-38644
X58662Y-33024
X61624Y-34557
T4
X57900Y-37825
X57900Y-38415
T5
X44900Y-34120
X44900Y-35120
X44900Y-36120
T6
X44900Y-28120
X44900Y-29120
X44900Y-38220
X44900Y-39220
X44900Y-45620
X45900Y-45620
X48400Y-45620
X48900Y-28120
X48900Y-29120
X49400Y-45620
X49900Y-28120
X49900Y-29120
X50400Y-45620
X50900Y-28120
X50900Y-29120
X51900Y-28120
X51900Y-29120
X53400Y-45620
X54400Y-45620
X55400Y-45620
X56400Y-45620
X61400Y-28120
X62400Y-28120
X62400Y-44620
X62400Y-45620
T7
X36720Y-20035
X36720Y-53755
X70475Y-20035
X70475Y-53755
T2
X44824Y-40742G85X45080Y-40742
G05
X44824Y-43498G85X45080Y-43498
G05
T3
X46015Y-41076G85X46015Y-41194
G05
X46015Y-43045G85X46015Y-43163
G05
T0
M30
