G04 #@! TF.FileFunction,Soldermask,Bot*
%FSLAX46Y46*%
G04 Gerber Fmt 4.6, Leading zero omitted, Abs format (unit mm)*
G04 Created by KiCad (PCBNEW 4.0.2+dfsg1-stable) date 2016年07月17日 星期日 15时22分32秒*
%MOMM*%
G01*
G04 APERTURE LIST*
%ADD10C,0.100000*%
%ADD11C,10.000000*%
%ADD12R,1.200000X0.750000*%
%ADD13R,0.750000X1.200000*%
%ADD14R,1.198880X1.198880*%
%ADD15R,1.198880X0.599440*%
%ADD16R,0.599440X1.198880*%
%ADD17R,2.032000X2.032000*%
%ADD18O,2.032000X2.032000*%
%ADD19R,1.727200X2.032000*%
%ADD20O,1.727200X2.032000*%
%ADD21R,0.900000X1.200000*%
%ADD22R,1.200000X0.900000*%
%ADD23R,0.730000X0.300000*%
%ADD24R,0.300000X0.730000*%
%ADD25R,1.250000X1.250000*%
%ADD26R,1.060000X0.650000*%
%ADD27C,1.000760*%
%ADD28R,5.600700X2.100580*%
%ADD29R,0.910000X1.220000*%
%ADD30R,1.397000X1.397000*%
%ADD31C,1.397000*%
%ADD32R,1.727200X1.727200*%
%ADD33O,1.727200X1.727200*%
%ADD34O,0.950000X1.250000*%
%ADD35O,1.550000X1.000000*%
G04 APERTURE END LIST*
D10*
D11*
X179006500Y-136537700D03*
X93268800Y-136537700D03*
X179006500Y-50888900D03*
D12*
X123256000Y-85394800D03*
X125156000Y-85394800D03*
X123256000Y-82854800D03*
X125156000Y-82854800D03*
X125156000Y-91744800D03*
X123256000Y-91744800D03*
X125156000Y-94284800D03*
X123256000Y-94284800D03*
D13*
X157226000Y-92440800D03*
X157226000Y-90540800D03*
D12*
X134178000Y-83362800D03*
X136078000Y-83362800D03*
X118176000Y-84124800D03*
X120076000Y-84124800D03*
X125156000Y-100634800D03*
X123256000Y-100634800D03*
X140396000Y-84886800D03*
X138496000Y-84886800D03*
X134178000Y-79552800D03*
X136078000Y-79552800D03*
X149926000Y-81330800D03*
X151826000Y-81330800D03*
D13*
X148336000Y-84952800D03*
X148336000Y-86852800D03*
X148336000Y-93964800D03*
X148336000Y-92064800D03*
D14*
X120175020Y-99364800D03*
X118076980Y-99364800D03*
D15*
X124206000Y-87233760D03*
X124206000Y-88635840D03*
D16*
X157419040Y-83108800D03*
X156016960Y-83108800D03*
D15*
X152146000Y-87365840D03*
X152146000Y-85963760D03*
D16*
X157927040Y-86664800D03*
X156524960Y-86664800D03*
D17*
X114046000Y-97078800D03*
D18*
X114046000Y-99618800D03*
D19*
X143256000Y-115874800D03*
D20*
X140716000Y-115874800D03*
X138176000Y-115874800D03*
X135636000Y-115874800D03*
D17*
X158496000Y-71424800D03*
D18*
X155956000Y-71424800D03*
D17*
X114046000Y-73964800D03*
D18*
X114046000Y-71424800D03*
D17*
X114046000Y-115874800D03*
D18*
X116586000Y-115874800D03*
D17*
X158496000Y-113334800D03*
D18*
X158496000Y-115874800D03*
D21*
X128016000Y-87764800D03*
X128016000Y-85564800D03*
D22*
X120226000Y-91744800D03*
X118026000Y-91744800D03*
D21*
X145796000Y-91914800D03*
X145796000Y-94114800D03*
D23*
X135703000Y-92236800D03*
X135703000Y-91736800D03*
X135703000Y-91236800D03*
X135703000Y-90736800D03*
X135703000Y-90236800D03*
D24*
X136668000Y-89271800D03*
X137168000Y-89271800D03*
X137668000Y-89271800D03*
X138168000Y-89271800D03*
X138668000Y-89271800D03*
D23*
X139633000Y-90236800D03*
X139633000Y-90736800D03*
X139633000Y-91236800D03*
X139633000Y-91736800D03*
X139633000Y-92236800D03*
D24*
X138668000Y-93201800D03*
X138168000Y-93201800D03*
X137668000Y-93201800D03*
X137168000Y-93201800D03*
X136668000Y-93201800D03*
D25*
X138293000Y-90611800D03*
X138293000Y-91861800D03*
X137043000Y-90611800D03*
X137043000Y-91861800D03*
D26*
X118026000Y-88884800D03*
X118026000Y-87934800D03*
X118026000Y-86984800D03*
X120226000Y-86984800D03*
X120226000Y-88884800D03*
X118026000Y-96504800D03*
X118026000Y-95554800D03*
X118026000Y-94604800D03*
X120226000Y-94604800D03*
X120226000Y-96504800D03*
D27*
X147066000Y-96075500D03*
X147066000Y-97574100D03*
D28*
X143487140Y-104444800D03*
X153184860Y-104444800D03*
D19*
X128016000Y-115874800D03*
D20*
X125476000Y-115874800D03*
X122936000Y-115874800D03*
D29*
X117745000Y-81330800D03*
X121015000Y-81330800D03*
D30*
X114046000Y-86664800D03*
D31*
X114046000Y-89204800D03*
X114046000Y-91744800D03*
D32*
X124206000Y-73964800D03*
D33*
X124206000Y-71424800D03*
X126746000Y-73964800D03*
X126746000Y-71424800D03*
X129286000Y-73964800D03*
X129286000Y-71424800D03*
X131826000Y-73964800D03*
X131826000Y-71424800D03*
D34*
X116878540Y-104483900D03*
X116878540Y-109483900D03*
D35*
X114178540Y-103483900D03*
X114178540Y-110483900D03*
D11*
X93268800Y-50888900D03*
M02*
